<svg version="1.1" xmlns="http://www.w3.org/2000/svg" viewBox="0 0 344 150" width="344" height="150">
  <!-- svg-source:excalidraw -->
  
  <defs>
    <style class="style-fonts">
      @font-face {
        font-family: "Virgil";
        src: url("https://file%2B.vscode-resource.vscode-cdn.net/c%3A/Users/hrowi/.vscode/extensions/pomdtr.excalidraw-editor-3.6.1/public//dist/excalidraw-assets/Virgil.woff2");
      }
      @font-face {
        font-family: "Cascadia";
        src: url("https://file%2B.vscode-resource.vscode-cdn.net/c%3A/Users/hrowi/.vscode/extensions/pomdtr.excalidraw-editor-3.6.1/public//dist/excalidraw-assets/Cascadia.woff2");
      }
    </style>
    
  </defs>
  <rect x="0" y="0" width="344" height="150" fill="#ffffff"></rect><g transform="translate(10 10) rotate(0 30 12.5)"><text x="0" y="0" font-family="Virgil, Segoe UI Emoji" font-size="20px" fill="#1e1e1e" text-anchor="start" style="white-space: pre;" direction="ltr" dominant-baseline="text-before-edge">タクヤ</text></g><g transform="translate(185 13) rotate(0 20 12.5)"><text x="0" y="0" font-family="Virgil, Segoe UI Emoji" font-size="20px" fill="#1e1e1e" text-anchor="start" style="white-space: pre;" direction="ltr" dominant-baseline="text-before-edge">ネネ</text></g><g transform="translate(16 114) rotate(0 20 12.5)"><text x="0" y="0" font-family="Virgil, Segoe UI Emoji" font-size="20px" fill="#1e1e1e" text-anchor="start" style="white-space: pre;" direction="ltr" dominant-baseline="text-before-edge">萌絵</text></g><g transform="translate(168 115) rotate(0 20 12.5)"><text x="0" y="0" font-family="Virgil, Segoe UI Emoji" font-size="20px" fill="#1e1e1e" text-anchor="start" style="white-space: pre;" direction="ltr" dominant-baseline="text-before-edge">結城</text></g><g transform="translate(294 115) rotate(0 20 12.5)"><text x="0" y="0" font-family="Virgil, Segoe UI Emoji" font-size="20px" fill="#1e1e1e" text-anchor="start" style="white-space: pre;" direction="ltr" dominant-baseline="text-before-edge">三咲</text></g><g stroke-linecap="round"><g transform="translate(82 22.795906526501255) rotate(0 45.00000000000006 0.5504623208792054)"><path d="M0 0 C15 0.18, 75 0.92, 90 1.1 M0 0 C15 0.18, 75 0.92, 90 1.1" stroke="#1e1e1e" stroke-width="1" fill="none"></path></g><g transform="translate(82 22.795906526501255) rotate(0 45.00000000000006 0.5504623208792054)"><path d="M61.69 11.02 C69.78 8.18, 77.87 5.35, 90 1.1 M61.69 11.02 C68.34 8.69, 74.99 6.36, 90 1.1" stroke="#1e1e1e" stroke-width="1" fill="none"></path></g><g transform="translate(82 22.795906526501255) rotate(0 45.00000000000006 0.5504623208792054)"><path d="M61.94 -9.5 C69.96 -6.47, 77.97 -3.44, 90 1.1 M61.94 -9.5 C68.53 -7.01, 75.12 -4.52, 90 1.1" stroke="#1e1e1e" stroke-width="1" fill="none"></path></g></g><mask></mask><g stroke-linecap="round"><g transform="translate(221.0000000000001 126.61086837467394) rotate(0 29.999999999999943 -0.028609503630150357)"><path d="M0 0 C10 -0.01, 50 -0.05, 60 -0.06 M0 0 C10 -0.01, 50 -0.05, 60 -0.06" stroke="#1e1e1e" stroke-width="1" fill="none"></path></g><g transform="translate(221.0000000000001 126.61086837467394) rotate(0 29.999999999999943 -0.028609503630150357)"><path d="M31.82 10.23 C37.68 8.09, 43.53 5.95, 60 -0.06 M31.82 10.23 C42.05 6.49, 52.28 2.76, 60 -0.06" stroke="#1e1e1e" stroke-width="1" fill="none"></path></g><g transform="translate(221.0000000000001 126.61086837467394) rotate(0 29.999999999999943 -0.028609503630150357)"><path d="M31.8 -10.29 C37.66 -8.16, 43.52 -6.04, 60 -0.06 M31.8 -10.29 C42.04 -6.58, 52.28 -2.86, 60 -0.06" stroke="#1e1e1e" stroke-width="1" fill="none"></path></g></g><mask></mask></svg>