<?xml version="1.0" encoding="us-ascii" standalone="no"?><svg xmlns="http://www.w3.org/2000/svg" xmlns:xlink="http://www.w3.org/1999/xlink" contentStyleType="text/css" height="1571.875px" preserveAspectRatio="none" style="width:2678px;height:1571px;background:#FFFFFF;" version="1.1" viewBox="0 0 2678 1571" width="2678.125px" zoomAndPan="magnify"><defs/><g><!--cluster ????--><g id="cluster_&#27005;&#22825;&#12506;&#12452;"><rect fill="none" height="234.375" rx="7.8125" ry="7.8125" style="stroke:#181818;stroke-width:3.125;" width="575" x="409.375" y="1192.1875"/><text fill="#000000" font-family="sans-serif" font-size="37.5" font-weight="bold" lengthAdjust="spacing" textLength="162.5" x="615.625" y="1237.3657">&#27005;&#22825;&#12506;&#12452;</text></g><!--cluster PayPay--><g id="cluster_PayPay"><rect fill="none" height="234.375" rx="7.8125" ry="7.8125" style="stroke:#181818;stroke-width:3.125;" width="896.875" x="400" y="750"/><text fill="#000000" font-family="sans-serif" font-size="37.5" font-weight="bold" lengthAdjust="spacing" textLength="131.25" x="782.8125" y="795.1782">PayPay</text></g><!--cluster LINE Pay--><g id="cluster_LINE Pay"><rect fill="none" height="234.375" rx="7.8125" ry="7.8125" style="stroke:#181818;stroke-width:3.125;" width="793.75" x="893.75" y="21.875"/><text fill="#000000" font-family="sans-serif" font-size="37.5" font-weight="bold" lengthAdjust="spacing" textLength="153.125" x="1214.0625" y="67.0532">LINE Pay</text></g><!--class rakutencashandpoint--><g id="elem_rakutencashandpoint"><rect codeLine="29" fill="#FFFFFF" height="78.418" id="rakutencashandpoint" rx="7.8125" ry="7.8125" style="stroke:#000000;stroke-width:1.5625;" width="471.875" x="460.9375" y="1298.4375"/><text fill="#000000" font-family="sans-serif" font-size="37.5" lengthAdjust="spacing" textLength="453.125" x="470.3125" y="1352.9907">&#27005;&#22825;&#12461;&#12515;&#12483;&#12471;&#12517; + &#12509;&#12452;&#12531;&#12488;</text></g><!--class paypaycashandpoint--><g id="elem_paypaycashandpoint"><rect codeLine="43" fill="#FFFFFF" height="78.418" id="paypaycashandpoint" rx="7.8125" ry="7.8125" style="stroke:#000000;stroke-width:1.5625;" width="418.75" x="828.125" y="856.25"/><text fill="#000000" font-family="sans-serif" font-size="37.5" lengthAdjust="spacing" textLength="400" x="837.5" y="910.8032">PayPay &#27531;&#39640; + &#12509;&#12452;&#12531;&#12488;</text></g><!--class paypaylater--><g id="elem_paypaylater"><rect codeLine="44" fill="#FFFFFF" height="78.418" id="paypaylater" rx="7.8125" ry="7.8125" style="stroke:#000000;stroke-width:1.5625;" width="265.625" x="451.5625" y="856.25"/><text fill="#000000" font-family="sans-serif" font-size="37.5" lengthAdjust="spacing" textLength="246.875" x="460.9375" y="910.8032">PayPay &#24460;&#25173;&#12356;</text></g><!--class visalinepaycredit--><g id="elem_visalinepaycredit"><rect codeLine="48" fill="#FFFFFF" height="78.418" id="visalinepaycredit" rx="7.8125" ry="7.8125" style="stroke:#000000;stroke-width:1.5625;" width="690.625" x="945.3125" y="128.125"/><text fill="#000000" font-family="sans-serif" font-size="37.5" lengthAdjust="spacing" textLength="671.875" x="954.6875" y="182.6782">Visa LINE Pay &#12463;&#12524;&#12472;&#12483;&#12488;&#12459;&#12540;&#12489;&#65288;P+&#65289;</text></g><!--class smbc--><g id="elem_smbc"><rect codeLine="25" fill="#FFFFFF" height="78.418" id="smbc" rx="7.8125" ry="7.8125" style="stroke:#000000;stroke-width:1.5625;" width="243.75" x="1168.75" y="342.1875"/><text fill="#000000" font-family="sans-serif" font-size="37.5" lengthAdjust="spacing" textLength="225" x="1178.125" y="396.7407">&#19977;&#20117;&#20303;&#21451;&#37504;&#34892;</text></g><!--class rakutencardmastercard--><g id="elem_rakutencardmastercard"><rect codeLine="27" fill="#FFFFFF" height="78.418" id="rakutencardmastercard" rx="7.8125" ry="7.8125" style="stroke:#000000;stroke-width:1.5625;" width="406.25" x="193.75" y="1064.0625"/><text fill="#000000" font-family="sans-serif" font-size="37.5" lengthAdjust="spacing" textLength="387.5" x="203.125" y="1118.6157">&#27005;&#22825;&#12459;&#12540;&#12489; Mastercard</text></g><!--class rakutencardvisa--><g id="elem_rakutencardvisa"><rect codeLine="32" fill="#FFFFFF" height="78.418" id="rakutencardvisa" rx="7.8125" ry="7.8125" style="stroke:#000000;stroke-width:1.5625;" width="290.625" x="407.8125" y="585.9375"/><text fill="#000000" font-family="sans-serif" font-size="37.5" lengthAdjust="spacing" textLength="271.875" x="417.1875" y="640.4907">&#27005;&#22825;&#12459;&#12540;&#12489; Visa</text></g><!--class paypaycardmastercard--><g id="elem_paypaycardmastercard"><rect codeLine="34" fill="#FFFFFF" height="150.5859" id="paypaycardmastercard" rx="7.8125" ry="7.8125" style="stroke:#000000;stroke-width:1.5625;" width="456.25" x="809.375" y="550"/><text fill="#000000" font-family="sans-serif" font-size="37.5" lengthAdjust="spacing" textLength="437.5" x="818.75" y="604.5532">PayPay&#12459;&#12540;&#12489; Mastercard</text><line style="stroke:#000000;stroke-width:1.5625;" x1="812.5" x2="1262.5" y1="628.418" y2="628.418"/><text fill="#000000" font-family="sans-serif" font-size="37.5" lengthAdjust="spacing" textLength="271.875" x="828.125" y="679.8462">Visa &#12479;&#12483;&#12481;&#27770;&#28168;</text></g><!--class paypaycardjcb--><g id="elem_paypaycardjcb"><rect codeLine="37" fill="#FFFFFF" height="78.418" id="paypaycardjcb" rx="7.8125" ry="7.8125" style="stroke:#000000;stroke-width:1.5625;" width="337.5" x="1375" y="585.9375"/><text fill="#000000" font-family="sans-serif" font-size="37.5" lengthAdjust="spacing" textLength="318.75" x="1384.375" y="640.4907">PayPay&#12459;&#12540;&#12489; JCB</text></g><!--class famipay--><g id="elem_famipay"><rect codeLine="38" fill="#FFFFFF" height="78.418" id="famipay" rx="7.8125" ry="7.8125" style="stroke:#000000;stroke-width:1.5625;" width="206.25" x="1356.25" y="856.25"/><text fill="#000000" font-family="sans-serif" font-size="37.5" lengthAdjust="spacing" textLength="187.5" x="1365.625" y="910.8032">&#12501;&#12449;&#12511;&#12506;&#12452;</text></g><!--class rakutengiftcard--><g id="elem_rakutengiftcard"><rect codeLine="39" fill="#FFFFFF" height="78.418" id="rakutengiftcard" rx="7.8125" ry="7.8125" style="stroke:#000000;stroke-width:1.5625;" width="318.75" x="737.5" y="1064.0625"/><text fill="#000000" font-family="sans-serif" font-size="37.5" lengthAdjust="spacing" textLength="300" x="746.875" y="1118.6157">&#27005;&#22825;&#12462;&#12501;&#12488;&#12459;&#12540;&#12489;</text></g><!--class vvgiftcard--><g id="elem_vvgiftcard"><rect codeLine="40" fill="#FFFFFF" height="78.418" id="vvgiftcard" rx="7.8125" ry="7.8125" style="stroke:#000000;stroke-width:1.5625;" width="431.25" x="1178.125" y="1064.0625"/><text fill="#000000" font-family="sans-serif" font-size="37.5" lengthAdjust="spacing" textLength="412.5" x="1187.5" y="1118.6157">&#12496;&#12491;&#12521;Visa&#12462;&#12501;&#12488;&#12459;&#12540;&#12489;</text></g><!--class olivecreditmode--><g id="elem_olivecreditmode"><rect codeLine="51" fill="#FFFFFF" height="150.5859" id="olivecreditmode" rx="7.8125" ry="7.8125" style="stroke:#000000;stroke-width:1.5625;" width="412.5" x="1950" y="306.25"/><text fill="#000000" font-family="sans-serif" font-size="37.5" lengthAdjust="spacing" textLength="393.75" x="1959.375" y="360.8032">Olive &#12463;&#12524;&#12472;&#12483;&#12488;&#12514;&#12540;&#12489;</text><line style="stroke:#000000;stroke-width:1.5625;" x1="1953.125" x2="2359.375" y1="384.668" y2="384.668"/><text fill="#000000" font-family="sans-serif" font-size="37.5" lengthAdjust="spacing" textLength="271.875" x="1968.75" y="436.0962">Visa &#12479;&#12483;&#12481;&#27770;&#28168;</text></g><!--class jcbcardw--><g id="elem_jcbcardw"><rect codeLine="55" fill="#FFFFFF" height="150.5859" id="jcbcardw" rx="7.8125" ry="7.8125" style="stroke:#000000;stroke-width:1.5625;" width="309.375" x="1723.4375" y="820.3125"/><text fill="#000000" font-family="sans-serif" font-size="37.5" lengthAdjust="spacing" textLength="231.25" x="1762.5" y="874.8657">JCB CARD W</text><line style="stroke:#000000;stroke-width:1.5625;" x1="1726.5625" x2="2029.6875" y1="898.7305" y2="898.7305"/><text fill="#000000" font-family="sans-serif" font-size="37.5" lengthAdjust="spacing" textLength="271.875" x="1742.1875" y="950.1587">Visa &#12479;&#12483;&#12481;&#27770;&#28168;</text></g><!--class amazonprimemastercard--><g id="elem_amazonprimemastercard"><rect codeLine="59" fill="#FFFFFF" height="78.418" id="amazonprimemastercard" rx="7.8125" ry="7.8125" style="stroke:#000000;stroke-width:1.5625;" width="468.75" x="2025" y="128.125"/><text fill="#000000" font-family="sans-serif" font-size="37.5" lengthAdjust="spacing" textLength="450" x="2034.375" y="182.6782">Amazon Prime Mastercard</text></g><!--class eposcard--><g id="elem_eposcard"><rect codeLine="60" fill="#FFFFFF" height="78.418" id="eposcard" rx="7.8125" ry="7.8125" style="stroke:#000000;stroke-width:1.5625;" width="393.75" x="665.625" y="342.1875"/><text fill="#000000" font-family="sans-serif" font-size="37.5" lengthAdjust="spacing" textLength="375" x="675" y="396.7407">&#12456;&#12509;&#12473;&#12468;&#12540;&#12523;&#12489;&#12459;&#12540;&#12489;</text></g><!--class mercard--><g id="elem_mercard"><rect codeLine="61" fill="#FFFFFF" height="78.418" id="mercard" rx="7.8125" ry="7.8125" style="stroke:#000000;stroke-width:1.5625;" width="206.25" x="2043.75" y="585.9375"/><text fill="#000000" font-family="sans-serif" font-size="37.5" lengthAdjust="spacing" textLength="187.5" x="2053.125" y="640.4907">&#12513;&#12523;&#12459;&#12540;&#12489;</text></g><!--class biccamerasuicacard--><g id="elem_biccamerasuicacard"><rect codeLine="62" fill="#FFFFFF" height="78.418" id="biccamerasuicacard" rx="7.8125" ry="7.8125" style="stroke:#000000;stroke-width:1.5625;" width="453.125" x="326.5625" y="1476.5625"/><text fill="#000000" font-family="sans-serif" font-size="37.5" lengthAdjust="spacing" textLength="434.375" x="335.9375" y="1531.1157">&#12499;&#12483;&#12463;&#12459;&#12513;&#12521;Suica&#12459;&#12540;&#12489;</text></g><!--class welciacard--><g id="elem_welciacard"><rect codeLine="63" fill="#FFFFFF" height="78.418" id="welciacard" rx="7.8125" ry="7.8125" style="stroke:#000000;stroke-width:1.5625;" width="318.75" x="1521.875" y="342.1875"/><text fill="#000000" font-family="sans-serif" font-size="37.5" lengthAdjust="spacing" textLength="300" x="1531.25" y="396.7407">&#12454;&#12456;&#12523;&#12471;&#12450;&#12459;&#12540;&#12489;</text></g><!--class dmmjcbcard--><g id="elem_dmmjcbcard"><rect codeLine="64" fill="#FFFFFF" height="78.418" id="dmmjcbcard" rx="7.8125" ry="7.8125" style="stroke:#000000;stroke-width:1.5625;" width="296.875" x="2360.9375" y="585.9375"/><text fill="#000000" font-family="sans-serif" font-size="37.5" lengthAdjust="spacing" textLength="278.125" x="2370.3125" y="640.4907">DMM JCB&#12459;&#12540;&#12489;</text></g><!--class starbuckscards--><g id="elem_starbuckscards"><rect codeLine="66" fill="#FFFFFF" height="78.418" id="starbuckscards" rx="7.8125" ry="7.8125" style="stroke:#000000;stroke-width:1.5625;" width="306.25" x="1725" y="1064.0625"/><text fill="#000000" font-family="sans-serif" font-size="37.5" lengthAdjust="spacing" textLength="287.5" x="1734.375" y="1118.6157">Starbucks Cards</text></g><!--class suica--><g id="elem_suica"><rect codeLine="67" fill="#FFFFFF" height="78.418" id="suica" rx="7.8125" ry="7.8125" style="stroke:#000000;stroke-width:1.5625;" width="115.625" x="1195.3125" y="1298.4375"/><text fill="#000000" font-family="sans-serif" font-size="37.5" lengthAdjust="spacing" textLength="96.875" x="1204.6875" y="1352.9907">Suica</text></g><!--class paypal--><g id="elem_paypal"><rect codeLine="68" fill="#FFFFFF" height="78.418" id="paypal" rx="7.8125" ry="7.8125" style="stroke:#000000;stroke-width:1.5625;" width="137.5" x="2471.875" y="342.1875"/><text fill="#000000" font-family="sans-serif" font-size="37.5" lengthAdjust="spacing" textLength="118.75" x="2481.25" y="396.7407">PayPal</text></g><!--reverse link visalinepaycredit to smbc--><g id="link_visalinepaycredit_smbc"><path codeLine="72" d="M1290.625,225.25 C1290.625,262.9375 1290.625,302.9063 1290.625,340.9375 " fill="none" id="visalinepaycredit-backto-smbc" style="stroke:#000000;stroke-width:3.125;"/><polygon fill="#000000" points="1290.625,206.5,1278.125,234.625,1290.625,222.125,1303.125,234.625,1290.625,206.5" style="stroke:#000000;stroke-width:3.125;"/></g><!--link smbc to rakutencardvisa--><g id="link_smbc_rakutencardvisa"><path codeLine="74" d="M1209.5625,420.3125 C1180.2813,432.5938 1146.7813,445.8438 1115.625,456.25 C959.0625,508.5625 914.0625,501.5938 756.25,550 C721.1875,560.75 700.8723,567.4947 667.3411,579.4947 " fill="none" id="smbc-to-rakutencardvisa" style="stroke:#000000;stroke-width:3.125;"/><polygon fill="#000000" points="649.6875,585.8125,680.3797,588.1049,664.3988,580.5477,671.956,564.5668,649.6875,585.8125" style="stroke:#000000;stroke-width:3.125;"/></g><!--link smbc to rakutencardmastercard--><g id="link_smbc_rakutencardmastercard"><path codeLine="75" d="M1215.4688,420.4062 C1185.0938,433.5938 1149.3125,447.4375 1115.625,456.25 C950.4687,499.4687 466.25,422.125 353.125,550 C221.75,698.5 323.2966,949.5783 370.1091,1046.7033 " fill="none" id="smbc-to-rakutencardmastercard" style="stroke:#000000;stroke-width:3.125;"/><polygon fill="#000000" points="378.25,1063.5938,377.299,1032.8308,371.4659,1049.5184,354.7783,1043.6853,378.25,1063.5938" style="stroke:#000000;stroke-width:3.125;"/></g><!--link smbc to paypaycardmastercard--><g id="link_smbc_paypaycardmastercard"><path codeLine="77" d="M1252.1875,420.4375 C1215.6563,454.7188 1173.3873,494.3527 1127.7936,537.1652 " fill="none" id="smbc-to-paypaycardmastercard" style="stroke:#000000;stroke-width:3.125;"/><polygon fill="#000000" points="1114.125,550,1143.1844,539.8602,1125.5155,539.3043,1126.0714,521.6354,1114.125,550" style="stroke:#000000;stroke-width:3.125;"/></g><!--link paypaycardmastercard to paypaylater--><g id="link_paypaycardmastercard_paypaylater"><path codeLine="78" d="M821.0313,700.625 C805.125,708.1875 789.625,716.3125 775,725 C713.7188,761.4687 666.674,805.2243 630.8303,842.3806 " fill="none" id="paypaycardmastercard-to-paypaylater" style="stroke:#000000;stroke-width:3.125;"/><polygon fill="#000000" points="617.8125,855.875,646.3355,844.3118,628.6606,844.6296,628.3429,826.9548,617.8125,855.875" style="stroke:#000000;stroke-width:3.125;"/></g><!--link paypaycardmastercard to paypaycashandpoint--><g id="link_paypaycardmastercard_paypaycashandpoint"><path codeLine="79" d="M1037.5,700.2812 C1037.5,750.375 1037.5,796.2813 1037.5,836.3125 " fill="none" id="paypaycardmastercard-to-paypaycashandpoint" style="stroke:#000000;stroke-width:3.125;"/><polygon fill="#000000" points="1037.5,855.0625,1050,826.9375,1037.5,839.4375,1025,826.9375,1037.5,855.0625" style="stroke:#000000;stroke-width:3.125;"/></g><!--link smbc to paypaycardjcb--><g id="link_smbc_paypaycardjcb"><path codeLine="81" d="M1329.0625,420.4375 C1376.6563,465.0937 1443.5154,527.8252 1491.2654,572.6377 " fill="none" id="smbc-to-paypaycardjcb" style="stroke:#000000;stroke-width:3.125;"/><polygon fill="#000000" points="1504.9375,585.4688,1492.9833,557.1074,1493.5441,574.7762,1475.8753,575.3369,1504.9375,585.4688" style="stroke:#000000;stroke-width:3.125;"/></g><!--link paypaycardjcb to famipay--><g id="link_paypaycardjcb_famipay"><path codeLine="82" d="M1532.0313,664.8438 C1515.9063,715.2813 1492.7682,787.6392 1476.7057,837.9205 " fill="none" id="paypaycardjcb-to-famipay" style="stroke:#000000;stroke-width:3.125;"/><polygon fill="#000000" points="1471,855.7813,1491.4657,832.7939,1475.7547,840.8973,1467.6513,825.1863,1471,855.7813" style="stroke:#000000;stroke-width:3.125;"/></g><!--link famipay to rakutengiftcard--><g id="link_famipay_rakutengiftcard"><path codeLine="83" d="M1415.1875,935.4063 C1383.9375,959.7813 1340.0938,990.5313 1296.875,1009.375 C1221.1563,1042.375 1150.3744,1060.6503 1075.4056,1074.5253 " fill="none" id="famipay-to-rakutengiftcard" style="stroke:#000000;stroke-width:3.125;"/><polygon fill="#000000" points="1056.9688,1077.9375,1086.8989,1085.1104,1072.3328,1075.094,1082.3493,1060.5279,1056.9688,1077.9375" style="stroke:#000000;stroke-width:3.125;"/></g><!--link rakutengiftcard to rakutencashandpoint--><g id="link_rakutengiftcard_rakutencashandpoint"><path codeLine="85" d="M864.75,1142.9063 C827.625,1185.2188 779.2984,1240.3701 741.9546,1282.9639 " fill="none" id="rakutengiftcard-to-rakutencashandpoint" style="stroke:#000000;stroke-width:3.125;"/><polygon fill="#000000" points="729.5938,1297.0625,757.5341,1284.1551,739.8945,1285.3136,738.736,1267.674,729.5938,1297.0625" style="stroke:#000000;stroke-width:3.125;"/></g><!--link rakutencardmastercard to rakutencashandpoint--><g id="link_rakutencardmastercard_rakutencashandpoint"><path codeLine="86" d="M445.0625,1142.9063 C501.0625,1185.4688 577.9524,1243.9287 633.8587,1286.46 " fill="none" id="rakutencardmastercard-to-rakutencashandpoint" style="stroke:#000000;stroke-width:3.125;"/><polygon fill="#000000" points="648.7813,1297.8125,633.9657,1270.8354,636.3458,1288.3521,618.8291,1290.7321,648.7813,1297.8125" style="stroke:#000000;stroke-width:3.125;"/></g><!--link famipay to vvgiftcard--><g id="link_famipay_vvgiftcard"><path codeLine="88" d="M1447.6563,934.4687 C1435.8438,970.7188 1423.565,1008.487 1411.6275,1045.0807 " fill="none" id="famipay-to-vvgiftcard" style="stroke:#000000;stroke-width:3.125;"/><polygon fill="#000000" points="1405.8125,1062.9063,1426.4186,1040.0447,1410.6583,1048.0517,1402.6513,1032.2913,1405.8125,1062.9063" style="stroke:#000000;stroke-width:3.125;"/></g><!--link vvgiftcard to suica--><g id="link_vvgiftcard_suica"><path codeLine="89" d="M1371.1563,1142.9063 C1345.0625,1185.2188 1312.2123,1238.5066 1285.9623,1281.1003 " fill="none" id="vvgiftcard-to-suica" style="stroke:#000000;stroke-width:3.125;"/><polygon fill="#000000" points="1276.125,1297.0625,1301.5224,1279.6775,1284.3227,1283.7607,1280.2395,1266.5611,1276.125,1297.0625" style="stroke:#000000;stroke-width:3.125;"/></g><!--link smbc to olivecreditmode--><g id="link_smbc_olivecreditmode"><path codeLine="91" d="M1365.8438,342.1563 C1410.3125,321.8125 1468.5313,299.9375 1523.4375,293.75 C1664.2187,277.875 1701.4063,277.875 1842.1875,293.75 C1866.9687,296.5312 1872.75,300 1896.875,306.25 C1914.125,310.7188 1913.8875,310.5371 1931.7625,315.4434 " fill="none" id="smbc-to-olivecreditmode" style="stroke:#000000;stroke-width:3.125;"/><polygon fill="#000000" points="1949.8438,320.4062,1926.0304,300.9078,1934.776,316.2705,1919.4133,325.0161,1949.8438,320.4062" style="stroke:#000000;stroke-width:3.125;"/></g><!--reverse link biccamerasuicacard to smbc--><g id="link_biccamerasuicacard_smbc"><path codeLine="93" d="M404.6262,1470.1726 C246.4074,1417.2038 18.75,1308.4375 18.75,1106.25 C18.75,892.1875 18.75,892.1875 18.75,892.1875 C18.75,703.8438 105.7813,644.4062 268.75,550 C596.4375,360.1875 748.7188,549.9375 1115.625,456.25 C1149.3438,447.625 1185.1563,433.8437 1215.5313,420.625 " fill="none" id="biccamerasuicacard-backto-smbc" style="stroke:#000000;stroke-width:3.125;"/><polygon fill="#000000" points="422.4062,1476.125,399.7044,1455.343,407.5895,1471.1646,391.7678,1479.0497,422.4062,1476.125" style="stroke:#000000;stroke-width:3.125;"/></g><!--reverse link suica to biccamerasuicacard--><g id="link_suica_biccamerasuicacard"><path codeLine="94" d="M1177.914,1377.7464 C1124.4765,1403.1839 1059.375,1431.125 984.375,1451.5625 C919.0938,1469.3438 846.7188,1482.1563 780.25,1491.2813 " fill="none" id="suica-backto-biccamerasuicacard" style="stroke:#000000;stroke-width:3.125;"/><polygon fill="#000000" points="1194.8438,1369.6875,1164.0765,1370.4894,1180.7356,1376.4033,1174.8218,1393.0624,1194.8438,1369.6875" style="stroke:#000000;stroke-width:3.125;"/></g><!--reverse link amazonprimemastercard to smbc--><g id="link_amazonprimemastercard_smbc"><path codeLine="96" d="M2073.9535,210.0903 C1960.2347,233.684 1824.4375,260.1875 1687.5,281.25 C1590.7813,296.125 1563.5938,282.1563 1468.75,306.25 C1434.5,314.9375 1398.0625,328.7812 1367.125,341.9688 " fill="none" id="amazonprimemastercard-backto-smbc" style="stroke:#000000;stroke-width:3.125;"/><polygon fill="#000000" points="2092.3125,206.2812,2062.2346,199.7554,2077.0133,209.4554,2067.3133,224.2341,2092.3125,206.2812" style="stroke:#000000;stroke-width:3.125;"/></g><!--link amazonprimemastercard to paypal--><g id="link_amazonprimemastercard_paypal"><path codeLine="97" d="M2308.375,206.5 C2359.6563,244.4062 2424.7359,292.4778 2476.1734,330.5091 " fill="none" id="amazonprimemastercard-to-paypal" style="stroke:#000000;stroke-width:3.125;"/><polygon fill="#000000" points="2491.25,341.6562,2476.0665,314.8845,2478.6862,332.367,2461.2037,334.9866,2491.25,341.6562" style="stroke:#000000;stroke-width:3.125;"/></g><!--link smbc to jcbcardw--><g id="link_smbc_jcbcardw"><path codeLine="99" d="M1376.1563,420.5313 C1405.3438,432.4063 1438.2813,445.375 1468.75,456.25 C1600.2812,503.25 1669.6563,451.5313 1768.75,550 C1841.3125,622.0938 1863.7928,723.6057 1872.0116,800.6682 " fill="none" id="smbc-to-jcbcardw" style="stroke:#000000;stroke-width:3.125;"/><polygon fill="#000000" points="1874,819.3125,1883.4469,790.0205,1872.343,803.7756,1858.5879,792.6717,1874,819.3125" style="stroke:#000000;stroke-width:3.125;"/></g><!--link jcbcardw to starbuckscards--><g id="link_jcbcardw_starbuckscards"><path codeLine="100" d="M1878.125,971.2187 C1878.125,1002.3438 1878.125,1018.5625 1878.125,1044.2188 " fill="none" id="jcbcardw-to-starbuckscards" style="stroke:#000000;stroke-width:3.125;"/><polygon fill="#000000" points="1878.125,1062.9688,1890.625,1034.8438,1878.125,1047.3438,1865.625,1034.8438,1878.125,1062.9688" style="stroke:#000000;stroke-width:3.125;"/></g><!--reverse link eposcard to smbc--><g id="link_eposcard_smbc"><path codeLine="102" d="M1078.5938,381.25 C1114.6563,381.25 1131.9688,381.25 1168.0313,381.25 " fill="none" id="eposcard-backto-smbc" style="stroke:#000000;stroke-width:3.125;"/><polygon fill="#000000" points="1059.8438,381.25,1087.9688,393.75,1075.4688,381.25,1087.9688,368.75,1059.8438,381.25" style="stroke:#000000;stroke-width:3.125;"/></g><!--link smbc to mercard--><g id="link_smbc_mercard"><path codeLine="104" d="M1370.125,420.3125 C1400.5313,433.0313 1435.8125,446.5625 1468.75,456.25 C1681.7188,518.9063 1745.875,489.1875 1959.375,550 C1993.5625,559.75 2012.8476,566.2235 2044.6601,578.8172 " fill="none" id="smbc-to-mercard" style="stroke:#000000;stroke-width:3.125;"/><polygon fill="#000000" points="2062.0938,585.7188,2040.5443,563.744,2047.5657,579.9675,2031.3423,586.9889,2062.0938,585.7188" style="stroke:#000000;stroke-width:3.125;"/></g><!--link smbc to welciacard--><g id="link_smbc_welciacard"><path codeLine="105" d="M1412.6875,381.25 C1449.0625,381.25 1466.6875,381.25 1503.0313,381.25 " fill="none" id="smbc-to-welciacard" style="stroke:#000000;stroke-width:3.125;"/><polygon fill="#000000" points="1521.7813,381.25,1493.6563,368.75,1506.1563,381.25,1493.6563,393.75,1521.7813,381.25" style="stroke:#000000;stroke-width:3.125;"/></g><!--link smbc to dmmjcbcard--><g id="link_smbc_dmmjcbcard"><path codeLine="106" d="M1367.125,420.5625 C1398.0625,433.7813 1434.4688,447.5938 1468.75,456.25 C1831.875,548 1941.2188,466.1563 2306.25,550 C2344.9063,558.875 2368.8099,566.159 2404.1224,579.3465 " fill="none" id="smbc-to-dmmjcbcard" style="stroke:#000000;stroke-width:3.125;"/><polygon fill="#000000" points="2421.6875,585.9063,2399.713,564.3566,2407.0499,580.4398,2390.9667,587.7768,2421.6875,585.9063" style="stroke:#000000;stroke-width:3.125;"/></g><!--SRC=[ZLJTQXD15BxFKmozBOLMRxmeWPggA5PBAtezsPqaO_QFcKr2AuBTyI8nXGfI446ajHLBjKKKhANLXvassAk-WZEpsTsPxQOrB6JtdE-SyvtV1hOHi32n75Hgo7Va1k4Ig67as5INk2Xi-49Keati1P105rWEf1GyAm7ngqAhUOVuBS-k-8vFGAU1GnHhV68Z4akhZe0fAIJ4x-Z2vxhds2TjGDllOAyEQj2XiJS2lIP50RW-gJxj08lNoSpbemQscXuIlAPY0Ah1bXFUzhrm4IyZC7KjmwR26sRqg_CIy1WqTdBGEpbSFpbUErthdxrwyNTZTGn02gXRjLBCOFluT6k7HxkS7N7M0tEGXeXOaDWAIs2p5I9FVhkffXI8mB2EKclsZaTROs1wUW5P8VJg3YgNXnnpORvozf4pngEVd6s3SS3PUs7AsNVEkcP0KM3F3dpiXLf6URQFCOLvdcqXImtcuP9uHgONm2NncDaDYKlNW4T_95ksClXsE3Ze2YOZ_DwhtCmvV6fL4p1dwppQuEn3KYW1h44N2sG-iJs9PTtKiPvS7TT2LVxKxMlE-fpjIAeZJDljr2hhMap-qdx5433Owv_jlYtgKvAergQBvgU_LmUzTRxoKZDneAYpR6bAv_xT1xV0LOHKEnAawCi-PrzuTA2wa-LyVjIT7py_6kOkJ1pi8ScJ81lhW_JGmMrqmGtRr4hdIqXiwFhYr5mw5ebVCGUWChCm2vue7s88PEqx_sSyuy9btmFp1BieFwbGwGAfqXOncOJeishGBnxzK1c8SlJCGK21JytXsP0m0-FclB8tQbNt5Kh0TnPRs8AcJHLR5XI6a4gTIUgJuhKhbptQDCqwoB6m0P-TcvDRPC9irnsMC2tIOWX9jMKrAQW8COqlMYAJI9eY9QDOBz-CrNMoYNHAuYTl8fXeJPGBfcQe5BhybIbIQDt9z4LtfbHuV39ql2XNW8m5B8edpv3nfVJ9zHd-wpbazo8dC1FLmXOcFn9jnDJEK_QgD77BXXcLyykeDwnW0Y-AOgZXL0gAjwfGcjNLIGij9Cc6bz9LL-pDWKmYbhCrp7gLR5sIghOQAKRRWty0]--></g></svg>