<?xml version="1.0" encoding="us-ascii" standalone="no"?><svg xmlns="http://www.w3.org/2000/svg" xmlns:xlink="http://www.w3.org/1999/xlink" contentStyleType="text/css" height="634.375px" preserveAspectRatio="none" style="width:1278px;height:634px;background:#FFFFFF;" version="1.1" viewBox="0 0 1278 634" width="1278.125px" zoomAndPan="magnify"><defs/><g><!--class cash--><g id="elem_cash"><rect codeLine="25" fill="#FFFFFF" height="78.418" id="cash" rx="7.8125" ry="7.8125" style="stroke:#000000;stroke-width:1.5625;" width="93.75" x="646.875" y="21.875"/><text fill="#000000" font-family="sans-serif" font-size="37.5" lengthAdjust="spacing" textLength="75" x="656.25" y="76.4282">&#29694;&#37329;</text></g><!--class smbc1--><g id="elem_smbc1"><rect codeLine="27" fill="#FFFFFF" height="78.418" id="smbc1" rx="7.8125" ry="7.8125" style="stroke:#000000;stroke-width:1.5625;" width="275" x="231.25" y="365.625"/><text fill="#000000" font-family="sans-serif" font-size="37.5" lengthAdjust="spacing" textLength="256.25" x="240.625" y="420.1782">&#19977;&#20117;&#20303;&#21451;&#37504;&#34892; 1</text></g><!--class smbc2--><g id="elem_smbc2"><rect codeLine="28" fill="#FFFFFF" height="78.418" id="smbc2" rx="7.8125" ry="7.8125" style="stroke:#000000;stroke-width:1.5625;" width="275" x="231.25" y="537.5"/><text fill="#000000" font-family="sans-serif" font-size="37.5" lengthAdjust="spacing" textLength="256.25" x="240.625" y="592.0532">&#19977;&#20117;&#20303;&#21451;&#37504;&#34892; 2</text></g><!--class sbinetbank--><g id="elem_sbinetbank"><rect codeLine="30" fill="#FFFFFF" height="78.418" id="sbinetbank" rx="7.8125" ry="7.8125" style="stroke:#000000;stroke-width:1.5625;" width="265.625" x="673.4375" y="193.75"/><text fill="#000000" font-family="sans-serif" font-size="37.5" lengthAdjust="spacing" textLength="246.875" x="682.8125" y="248.3032">SBI&#12493;&#12483;&#12488;&#37504;&#34892;</text></g><!--class sbihybrid--><g id="elem_sbihybrid"><rect codeLine="31" fill="#FFFFFF" height="78.418" id="sbihybrid" rx="7.8125" ry="7.8125" style="stroke:#000000;stroke-width:1.5625;" width="378.125" x="617.1875" y="365.625"/><text fill="#000000" font-family="sans-serif" font-size="37.5" lengthAdjust="spacing" textLength="359.375" x="626.5625" y="420.1782">SBI&#12495;&#12452;&#12502;&#12522;&#12483;&#12489;&#37504;&#34892;</text></g><!--class sbisec--><g id="elem_sbisec"><rect codeLine="32" fill="#FFFFFF" height="78.418" id="sbisec" rx="7.8125" ry="7.8125" style="stroke:#000000;stroke-width:1.5625;" width="153.125" x="1104.6875" y="365.625"/><text fill="#000000" font-family="sans-serif" font-size="37.5" lengthAdjust="spacing" textLength="134.375" x="1114.0625" y="420.1782">SBI&#35388;&#21048;</text></g><!--class paypaybank--><g id="elem_paypaybank"><rect codeLine="34" fill="#FFFFFF" height="78.418" id="paypaybank" rx="7.8125" ry="7.8125" style="stroke:#000000;stroke-width:1.5625;" width="218.75" x="21.875" y="193.75"/><text fill="#000000" font-family="sans-serif" font-size="37.5" lengthAdjust="spacing" textLength="200" x="31.25" y="248.3032">PayPay&#37504;&#34892;</text></g><!--class bitflyer--><g id="elem_bitflyer"><rect codeLine="36" fill="#FFFFFF" height="78.418" id="bitflyer" rx="7.8125" ry="7.8125" style="stroke:#000000;stroke-width:1.5625;" width="140.625" x="851.5625" y="21.875"/><text fill="#000000" font-family="sans-serif" font-size="37.5" lengthAdjust="spacing" textLength="121.875" x="860.9375" y="76.4282">bitFlyer</text></g><!--class linefx--><g id="elem_linefx"><rect codeLine="38" fill="#FFFFFF" height="78.418" id="linefx" rx="7.8125" ry="7.8125" style="stroke:#000000;stroke-width:1.5625;" width="156.25" x="350" y="193.75"/><text fill="#000000" font-family="sans-serif" font-size="37.5" lengthAdjust="spacing" textLength="137.5" x="359.375" y="248.3032">LINE FX</text></g><!--link cash to sbinetbank--><g id="link_cash_sbinetbank"><path codeLine="40" d="M728.6952,115.5078 C747.3202,142.9141 751.7869,149.4831 770.5682,177.1706 " fill="none" id="cash-sbinetbank" style="stroke:#000000;stroke-width:3.125;"/><polygon fill="#000000" points="718.1563,100,723.6261,130.2877,726.9387,112.9232,744.3032,116.2358,718.1563,100" style="stroke:#000000;stroke-width:3.125;"/><polygon fill="#000000" points="781.0938,192.6875,775.65,162.3951,772.3224,179.7567,754.9608,176.4292,781.0938,192.6875" style="stroke:#000000;stroke-width:3.125;"/></g><!--link sbinetbank to smbc1--><g id="link_sbinetbank_smbc1"><path codeLine="41" d="M693.7774,278.5146 C620.9024,306.1083 555.7542,330.7678 482.5355,358.4865 " fill="none" id="sbinetbank-smbc1" style="stroke:#000000;stroke-width:3.125;"/><polygon fill="#000000" points="711.3125,271.875,680.5835,270.1443,696.6999,277.408,689.4363,293.5244,711.3125,271.875" style="stroke:#000000;stroke-width:3.125;"/><polygon fill="#000000" points="465,365.125,495.7289,366.8576,479.6129,359.5929,486.8776,343.477,465,365.125" style="stroke:#000000;stroke-width:3.125;"/></g><!--reverse link smbc1 to smbc2--><g id="link_smbc1_smbc2"><path codeLine="43" d="M368.75,462.5 C368.75,489.9063 368.75,508.75 368.75,536.4375 " fill="none" id="smbc1-backto-smbc2" style="stroke:#000000;stroke-width:3.125;"/><polygon fill="#000000" points="368.75,443.75,356.25,471.875,368.75,459.375,381.25,471.875,368.75,443.75" style="stroke:#000000;stroke-width:3.125;"/></g><!--link paypaybank to smbc1--><g id="link_paypaybank_smbc1"><path codeLine="45" d="M182.7813,271.875 C222.3438,299.4688 261.3701,326.6814 301.1201,354.4002 " fill="none" id="paypaybank-to-smbc1" style="stroke:#000000;stroke-width:3.125;"/><polygon fill="#000000" points="316.5,365.125,300.58,338.7845,303.6834,356.1877,286.2803,359.291,316.5,365.125" style="stroke:#000000;stroke-width:3.125;"/></g><!--link sbinetbank to sbisec--><g id="link_sbinetbank_sbisec"><path codeLine="47" d="M904.7772,279.449 C968.9647,307.7928 1023.601,331.9188 1086.726,359.825 " fill="none" id="sbinetbank-sbisec" style="stroke:#000000;stroke-width:3.125;"/><polygon fill="#000000" points="887.625,271.875,908.3039,294.6708,901.9185,278.1867,918.4026,271.8012,887.625,271.875" style="stroke:#000000;stroke-width:3.125;"/><polygon fill="#000000" points="1103.875,367.4063,1083.2057,344.6018,1089.5842,361.0886,1073.0974,367.4671,1103.875,367.4063" style="stroke:#000000;stroke-width:3.125;"/></g><!--link sbihybrid to sbisec--><g id="link_sbihybrid_sbisec"><path codeLine="48" d="M1015.4375,404.6875 C1051,404.6875 1049.0625,404.6875 1084.625,404.6875 " fill="none" id="sbihybrid-sbisec" style="stroke:#000000;stroke-width:3.125;"/><polygon fill="#000000" points="996.6875,404.6875,1024.8125,417.1875,1012.3125,404.6875,1024.8125,392.1875,996.6875,404.6875" style="stroke:#000000;stroke-width:3.125;"/><polygon fill="#000000" points="1103.375,404.6875,1075.25,392.1875,1087.75,404.6875,1075.25,417.1875,1103.375,404.6875" style="stroke:#000000;stroke-width:3.125;"/></g><!--link sbinetbank to sbihybrid--><g id="link_sbinetbank_sbihybrid"><path codeLine="49" d="M806.25,290.625 C806.25,318.0313 806.25,318.125 806.25,345.8125 " fill="none" id="sbinetbank-sbihybrid" style="stroke:#000000;stroke-width:3.125;"/><polygon fill="#000000" points="806.25,271.875,793.75,300,806.25,287.5,818.75,300,806.25,271.875" style="stroke:#000000;stroke-width:3.125;"/><polygon fill="#000000" points="806.25,364.5625,818.75,336.4375,806.25,348.9375,793.75,336.4375,806.25,364.5625" style="stroke:#000000;stroke-width:3.125;"/></g><!--link bitflyer to sbinetbank--><g id="link_bitflyer_sbinetbank"><path codeLine="51" d="M886.0512,115.3762 C866.9262,142.7825 862.133,149.6215 842.8205,177.309 " fill="none" id="bitflyer-sbinetbank" style="stroke:#000000;stroke-width:3.125;"/><polygon fill="#000000" points="896.7813,100,870.4354,115.911,887.8395,112.8135,890.937,130.2177,896.7813,100" style="stroke:#000000;stroke-width:3.125;"/><polygon fill="#000000" points="832.0938,192.6875,858.4363,176.7709,841.0327,179.8721,837.9316,162.4685,832.0938,192.6875" style="stroke:#000000;stroke-width:3.125;"/></g><!--link linefx to smbc1--><g id="link_linefx_smbc1"><path codeLine="53" d="M408.9118,289.5213 C399.0681,316.9275 398.2539,319.2209 388.3477,346.9084 " fill="none" id="linefx-smbc1" style="stroke:#000000;stroke-width:3.125;"/><polygon fill="#000000" points="415.25,271.875,393.9786,294.1189,409.9682,286.5802,417.5069,302.5698,415.25,271.875" style="stroke:#000000;stroke-width:3.125;"/><polygon fill="#000000" points="382.0313,364.5625,403.2752,342.2924,387.2949,349.8508,379.7365,333.8705,382.0313,364.5625" style="stroke:#000000;stroke-width:3.125;"/></g><!--SRC=[XP1FIyCm6CRl_HJ1-s2T5m_YGN4o417cmMkQfYOqRKhICQi8OWzk_c5uqBlWGVm4GzGlqmstRs6MR6qsGKCEoVFytZTFNa9z310LY667pCuuIj8C11GpNzfAX5F2bUJ8aCO95302Y44fmRa3rF8W2lS4xyJ-3cTSW2wXAJOE5puMHlMOmhGAXU1TMxomEvkUaa2VTsby0WB8fEacO1nAd83rkhxw2LN7UjNoY50KnbZbSWs00zXXQPF7QPkUOU0sAhOKDvPV__zV2ZVGslVWQthzi0QW10XAKkgZON_q_ZZw78m7jzERoydp7N0r9ICFkNzGZP9gbCtQswqYlo_olCXx1ZEGHsESUceYI-2Wk7efygSYVzCL_UKAadc2-bR1vFLZt1ikR8bH-UmXpDIsoXEOgQqVN30UJPiimqBxwXBCBgMxtphO1SrZRJ8LDZXLbXeJsApLjkpyrN5kwIavUWoWrgcKAWAmkTLoyv7okqgrnLLsFXDdaVzNFCU4jxFz0000]--></g></svg>