<?xml version="1.0" encoding="UTF-8" standalone="no"?><svg xmlns="http://www.w3.org/2000/svg" xmlns:xlink="http://www.w3.org/1999/xlink" contentScriptType="application/ecmascript" contentStyleType="text/css" height="3681.25px" preserveAspectRatio="none" style="width:4471px;height:3681px;background:#FFFFFF;" version="1.1" viewBox="0 0 4471 3681" width="4471.875px" zoomAndPan="magnify"><defs><filter height="300%" id="fjrxir72ayuln" width="300%" x="-1" y="-1"><feGaussianBlur result="blurOut" stdDeviation="6.25"/><feColorMatrix in="blurOut" result="blurOut2" type="matrix" values="0 0 0 0 0 0 0 0 0 0 0 0 0 0 0 0 0 0 .4 0"/><feOffset dx="12.5" dy="12.5" in="blurOut2" result="blurOut3"/><feBlend in="SourceGraphic" in2="blurOut3" mode="normal"/></filter></defs><g><!--MD5=[b3c0514fa69bffb9c22fb6650bde9461]
class customer--><rect codeLine="20" fill="#FFFFFF" filter="url(#fjrxir72ayuln)" height="78.418" id="customer" style="stroke:#000000;stroke-width:4.6875;" width="93.75" x="2604.5625" y="21.875"/><text fill="#000000" font-family="sans-serif" font-size="37.5" lengthAdjust="spacing" textLength="75" x="2613.9375" y="76.4282">顧客</text><!--MD5=[5869d99fa12b30e2b71737d1d39da053]
class youtube1--><rect codeLine="23" fill="#FFFFFF" filter="url(#fjrxir72ayuln)" height="292.0898" id="youtube1" style="stroke:#000000;stroke-width:4.6875;" width="671.875" x="1243.625" y="871.875"/><text fill="#000000" font-family="sans-serif" font-size="37.5" lengthAdjust="spacing" textLength="184.375" x="1487.375" y="926.4282">YouTube 1</text><line style="stroke:#000000;stroke-width:4.6875;" x1="1246.75" x2="1912.375" y1="950.293" y2="950.293"/><text fill="#000000" font-family="sans-serif" font-size="37.5" lengthAdjust="spacing" textLength="406.25" x="1262.375" y="1001.7212">Category : 音楽ビジネス</text><text fill="#000000" font-family="sans-serif" font-size="37.5" lengthAdjust="spacing" textLength="634.375" x="1262.375" y="1048.8892">Contents : 楽曲を中心とした動画投稿</text><text fill="#000000" font-family="sans-serif" font-size="37.5" lengthAdjust="spacing" textLength="371.875" x="1262.375" y="1096.0571">Objective : 広告・誘導</text><text fill="#000000" font-family="sans-serif" font-size="37.5" lengthAdjust="spacing" textLength="518.75" x="1262.375" y="1143.2251">Name : H-Row Music Channel</text><!--MD5=[cdb9700efc745a8bce4b98224cff0c18]
class niconico--><rect codeLine="30" fill="#FFFFFF" filter="url(#fjrxir72ayuln)" height="292.0898" id="niconico" style="stroke:#000000;stroke-width:4.6875;" width="859.375" x="162.375" y="196.875"/><text fill="#000000" font-family="sans-serif" font-size="37.5" lengthAdjust="spacing" textLength="225" x="479.5625" y="251.4282">ニコニコ動画</text><line style="stroke:#000000;stroke-width:4.6875;" x1="165.5" x2="1018.625" y1="275.293" y2="275.293"/><text fill="#000000" font-family="sans-serif" font-size="37.5" lengthAdjust="spacing" textLength="406.25" x="181.125" y="326.7212">Category : 音楽ビジネス</text><text fill="#000000" font-family="sans-serif" font-size="37.5" lengthAdjust="spacing" textLength="821.875" x="181.125" y="373.8892">Contents : VOCALOID楽曲を中心とした動画投稿</text><text fill="#000000" font-family="sans-serif" font-size="37.5" lengthAdjust="spacing" textLength="259.375" x="181.125" y="421.0571">Objective : 誘導</text><text fill="#000000" font-family="sans-serif" font-size="37.5" lengthAdjust="spacing" textLength="253.125" x="181.125" y="468.2251">Name : H-Row</text><!--MD5=[593dd72a0566b38e7d82dddf2d00e77e]
class tiktok--><rect codeLine="37" fill="#FFFFFF" filter="url(#fjrxir72ayuln)" height="292.0898" id="tiktok" style="stroke:#000000;stroke-width:4.6875;" width="896.875" x="1131.125" y="196.875"/><text fill="#000000" font-family="sans-serif" font-size="37.5" lengthAdjust="spacing" textLength="112.5" x="1523.3125" y="251.4282">TikTok</text><line style="stroke:#000000;stroke-width:4.6875;" x1="1134.25" x2="2024.875" y1="275.293" y2="275.293"/><text fill="#000000" font-family="sans-serif" font-size="37.5" lengthAdjust="spacing" textLength="406.25" x="1149.875" y="326.7212">Category : 音楽ビジネス</text><text fill="#000000" font-family="sans-serif" font-size="37.5" lengthAdjust="spacing" textLength="859.375" x="1149.875" y="373.8892">Contents : 楽曲ダイジェストを中心とした動画投稿</text><text fill="#000000" font-family="sans-serif" font-size="37.5" lengthAdjust="spacing" textLength="259.375" x="1149.875" y="421.0571">Objective : 誘導</text><text fill="#000000" font-family="sans-serif" font-size="37.5" lengthAdjust="spacing" textLength="253.125" x="1149.875" y="468.2251">Name : H-Row</text><!--MD5=[b6eefcb33543cd7bf46503e09bf7a894]
class pixiv--><rect codeLine="44" fill="#FFFFFF" filter="url(#fjrxir72ayuln)" height="292.0898" id="pixiv" style="stroke:#000000;stroke-width:4.6875;" width="709.375" x="893.625" y="2684.375"/><text fill="#000000" font-family="sans-serif" font-size="37.5" lengthAdjust="spacing" textLength="75" x="1210.8125" y="2738.9282">Pixiv</text><line style="stroke:#000000;stroke-width:4.6875;" x1="896.75" x2="1599.875" y1="2762.793" y2="2762.793"/><text fill="#000000" font-family="sans-serif" font-size="37.5" lengthAdjust="spacing" textLength="406.25" x="912.375" y="2814.2212">Category : 音楽ビジネス</text><text fill="#000000" font-family="sans-serif" font-size="37.5" lengthAdjust="spacing" textLength="671.875" x="912.375" y="2861.3892">Contents : 制作関連のイラスト等の投稿</text><text fill="#000000" font-family="sans-serif" font-size="37.5" lengthAdjust="spacing" textLength="259.375" x="912.375" y="2908.5571">Objective : 誘導</text><text fill="#000000" font-family="sans-serif" font-size="37.5" lengthAdjust="spacing" textLength="253.125" x="912.375" y="2955.7251">Name : H-Row</text><!--MD5=[2f7f080b907f3fdd100c0a19411d9fa0]
class twitter1--><rect codeLine="51" fill="#FFFFFF" filter="url(#fjrxir72ayuln)" height="292.0898" id="twitter1" style="stroke:#000000;stroke-width:4.6875;" width="746.875" x="1406.125" y="1546.875"/><text fill="#000000" font-family="sans-serif" font-size="37.5" lengthAdjust="spacing" textLength="262.5" x="1648.3125" y="1601.4282">Twitter - H-Row</text><line style="stroke:#000000;stroke-width:4.6875;" x1="1409.25" x2="2149.875" y1="1625.293" y2="1625.293"/><text fill="#000000" font-family="sans-serif" font-size="37.5" lengthAdjust="spacing" textLength="406.25" x="1424.875" y="1676.7212">Category : 音楽ビジネス</text><text fill="#000000" font-family="sans-serif" font-size="37.5" lengthAdjust="spacing" textLength="709.375" x="1424.875" y="1723.8892">Contents : 活動報告・簡易ポートフォリオ</text><text fill="#000000" font-family="sans-serif" font-size="37.5" lengthAdjust="spacing" textLength="371.875" x="1424.875" y="1771.0571">Objective : 依頼・誘導</text><text fill="#000000" font-family="sans-serif" font-size="37.5" lengthAdjust="spacing" textLength="253.125" x="1424.875" y="1818.2251">Name : H-Row</text><!--MD5=[2b7d0a7d811cabd030cef84e82cf3ea3]
class twitter2--><rect codeLine="58" fill="#FFFFFF" filter="url(#fjrxir72ayuln)" height="292.0898" id="twitter2" style="stroke:#000000;stroke-width:4.6875;" width="740.625" x="3503" y="534.375"/><text fill="#000000" font-family="sans-serif" font-size="37.5" lengthAdjust="spacing" textLength="143.75" x="3801.4375" y="588.9282">Twitter 2</text><line style="stroke:#000000;stroke-width:4.6875;" x1="3506.125" x2="4240.5" y1="612.793" y2="612.793"/><text fill="#000000" font-family="sans-serif" font-size="37.5" lengthAdjust="spacing" textLength="443.75" x="3521.75" y="664.2212">Category : ブログビジネス</text><text fill="#000000" font-family="sans-serif" font-size="37.5" lengthAdjust="spacing" textLength="703.125" x="3521.75" y="711.3892">Contents : ライフハック・IT記事の共有等</text><text fill="#000000" font-family="sans-serif" font-size="37.5" lengthAdjust="spacing" textLength="259.375" x="3521.75" y="758.5571">Objective : 誘導</text><text fill="#000000" font-family="sans-serif" font-size="37.5" lengthAdjust="spacing" textLength="125" x="3521.75" y="805.7251">Name :</text><!--MD5=[c5c0ac05f9e4132feb38f4c8a02a3fcb]
class wordpress1--><rect codeLine="65" fill="#FFFFFF" filter="url(#fjrxir72ayuln)" height="292.0898" id="wordpress1" style="stroke:#000000;stroke-width:4.6875;" width="596.875" x="2159.25" y="2221.875"/><text fill="#000000" font-family="sans-serif" font-size="37.5" lengthAdjust="spacing" textLength="225" x="2345.1875" y="2276.4282">WordPress 1</text><line style="stroke:#000000;stroke-width:4.6875;" x1="2162.375" x2="2753" y1="2300.293" y2="2300.293"/><text fill="#000000" font-family="sans-serif" font-size="37.5" lengthAdjust="spacing" textLength="406.25" x="2178" y="2351.7212">Category : 音楽ビジネス</text><text fill="#000000" font-family="sans-serif" font-size="37.5" lengthAdjust="spacing" textLength="559.375" x="2178" y="2398.8892">Contents : 音楽用ポートフォリオ</text><text fill="#000000" font-family="sans-serif" font-size="37.5" lengthAdjust="spacing" textLength="371.875" x="2178" y="2446.0571">Objective : 依頼・誘導</text><text fill="#000000" font-family="sans-serif" font-size="37.5" lengthAdjust="spacing" textLength="512.5" x="2178" y="2493.2251">Name : H-Row Music Portfolio</text><!--MD5=[5a923b671edef3b616cef1adf4a4889e]
class wordpress2--><rect codeLine="72" fill="#FFFFFF" filter="url(#fjrxir72ayuln)" height="292.0898" id="wordpress2" style="stroke:#000000;stroke-width:4.6875;" width="778.125" x="2662.375" y="2684.375"/><text fill="#000000" font-family="sans-serif" font-size="37.5" lengthAdjust="spacing" textLength="225" x="2938.9375" y="2738.9282">WordPress 2</text><line style="stroke:#000000;stroke-width:4.6875;" x1="2665.5" x2="3437.375" y1="2762.793" y2="2762.793"/><text fill="#000000" font-family="sans-serif" font-size="37.5" lengthAdjust="spacing" textLength="443.75" x="2681.125" y="2814.2212">Category : ブログビジネス</text><text fill="#000000" font-family="sans-serif" font-size="37.5" lengthAdjust="spacing" textLength="740.625" x="2681.125" y="2861.3892">Contents : ライフハック・IT等の記事の投稿</text><text fill="#000000" font-family="sans-serif" font-size="37.5" lengthAdjust="spacing" textLength="371.875" x="2681.125" y="2908.5571">Objective : 広告・誘導</text><text fill="#000000" font-family="sans-serif" font-size="37.5" lengthAdjust="spacing" textLength="125" x="2681.125" y="2955.7251">Name :</text><!--MD5=[17727d754806b76bc72fbcb19ed93075]
class booth--><rect codeLine="79" fill="#FFFFFF" filter="url(#fjrxir72ayuln)" height="292.0898" id="booth" style="stroke:#000000;stroke-width:4.6875;" width="446.875" x="1024.875" y="3121.875"/><text fill="#000000" font-family="sans-serif" font-size="37.5" lengthAdjust="spacing" textLength="131.25" x="1182.6875" y="3176.4282">BOOTH</text><line style="stroke:#000000;stroke-width:4.6875;" x1="1028" x2="1468.625" y1="3200.293" y2="3200.293"/><text fill="#000000" font-family="sans-serif" font-size="37.5" lengthAdjust="spacing" textLength="406.25" x="1043.625" y="3251.7212">Category : 音楽ビジネス</text><text fill="#000000" font-family="sans-serif" font-size="37.5" lengthAdjust="spacing" textLength="409.375" x="1043.625" y="3298.8892">Contents : 楽曲等の販売</text><text fill="#000000" font-family="sans-serif" font-size="37.5" lengthAdjust="spacing" textLength="259.375" x="1043.625" y="3346.0571">Objective : 販売</text><text fill="#000000" font-family="sans-serif" font-size="37.5" lengthAdjust="spacing" textLength="125" x="1043.625" y="3393.2251">Name :</text><!--MD5=[22fe6e53306e081f996de22d3ce80932]
class freem--><rect codeLine="86" fill="#FFFFFF" filter="url(#fjrxir72ayuln)" height="292.0898" id="freem" style="stroke:#000000;stroke-width:4.6875;" width="212.5" x="2545.1875" y="871.875"/><text fill="#000000" font-family="sans-serif" font-size="37.5" lengthAdjust="spacing" textLength="150" x="2576.4375" y="926.4282">ふりーむ</text><line style="stroke:#000000;stroke-width:4.6875;" x1="2548.3125" x2="2754.5625" y1="950.293" y2="950.293"/><text fill="#000000" font-family="sans-serif" font-size="37.5" lengthAdjust="spacing" textLength="171.875" x="2563.9375" y="1001.7212">Category :</text><text fill="#000000" font-family="sans-serif" font-size="37.5" lengthAdjust="spacing" textLength="175" x="2563.9375" y="1048.8892">Contents :</text><text fill="#000000" font-family="sans-serif" font-size="37.5" lengthAdjust="spacing" textLength="175" x="2563.9375" y="1096.0571">Objective :</text><text fill="#000000" font-family="sans-serif" font-size="37.5" lengthAdjust="spacing" textLength="125" x="2563.9375" y="1143.2251">Name :</text><!--MD5=[2273177dd1e2e2e0f4fbe9ecde1d11fc]
class contact--><rect codeLine="93" fill="#FFFFFF" filter="url(#fjrxir72ayuln)" height="78.418" id="contact" style="stroke:#000000;stroke-width:4.6875;" width="93.75" x="2157.6875" y="2790.625"/><text fill="#000000" font-family="sans-serif" font-size="37.5" lengthAdjust="spacing" textLength="75" x="2167.0625" y="2845.1782">連絡</text><!--MD5=[ebeb47f2963638276f02a71a67feece8]
class googleadsense--><rect codeLine="96" fill="#FFFFFF" filter="url(#fjrxir72ayuln)" height="78.418" id="googleadsense" style="stroke:#000000;stroke-width:4.6875;" width="306.25" x="638.9375" y="2559.375"/><text fill="#000000" font-family="sans-serif" font-size="37.5" lengthAdjust="spacing" textLength="287.5" x="648.3125" y="2613.9282">Google Adsense</text><!--MD5=[ee2a9fffb678a14a7ff911c8d9427a1a]
class coconala1--><rect codeLine="99" fill="#FFFFFF" filter="url(#fjrxir72ayuln)" height="292.0898" id="coconala1" style="stroke:#000000;stroke-width:4.6875;" width="484.375" x="2965.5" y="1884.375"/><text fill="#000000" font-family="sans-serif" font-size="37.5" lengthAdjust="spacing" textLength="181.25" x="3117.0625" y="1938.9282">ココナラ 1</text><line style="stroke:#000000;stroke-width:4.6875;" x1="2968.625" x2="3446.75" y1="1962.793" y2="1962.793"/><text fill="#000000" font-family="sans-serif" font-size="37.5" lengthAdjust="spacing" textLength="406.25" x="2984.25" y="2014.2212">Category : 音楽ビジネス</text><text fill="#000000" font-family="sans-serif" font-size="37.5" lengthAdjust="spacing" textLength="446.875" x="2984.25" y="2061.3892">Contents : 音楽制作の募集</text><text fill="#000000" font-family="sans-serif" font-size="37.5" lengthAdjust="spacing" textLength="259.375" x="2984.25" y="2108.5571">Objective : 依頼</text><text fill="#000000" font-family="sans-serif" font-size="37.5" lengthAdjust="spacing" textLength="125" x="2984.25" y="2155.7251">Name :</text><!--MD5=[4e17fc436baef6163a3c5c58e5d43aba]
class coconala2--><rect codeLine="106" fill="#FFFFFF" filter="url(#fjrxir72ayuln)" height="292.0898" id="coconala2" style="stroke:#000000;stroke-width:4.6875;" width="484.375" x="3946.75" y="1209.375"/><text fill="#000000" font-family="sans-serif" font-size="37.5" lengthAdjust="spacing" textLength="181.25" x="4098.3125" y="1263.9282">ココナラ 2</text><line style="stroke:#000000;stroke-width:4.6875;" x1="3949.875" x2="4428" y1="1287.793" y2="1287.793"/><text fill="#000000" font-family="sans-serif" font-size="37.5" lengthAdjust="spacing" textLength="406.25" x="3965.5" y="1339.2212">Category : 音楽ビジネス</text><text fill="#000000" font-family="sans-serif" font-size="37.5" lengthAdjust="spacing" textLength="446.875" x="3965.5" y="1386.3892">Contents : 画像制作の募集</text><text fill="#000000" font-family="sans-serif" font-size="37.5" lengthAdjust="spacing" textLength="259.375" x="3965.5" y="1433.5571">Objective : 依頼</text><text fill="#000000" font-family="sans-serif" font-size="37.5" lengthAdjust="spacing" textLength="125" x="3965.5" y="1480.7251">Name :</text><!--MD5=[d576aa48ba476601746fad0c7ae0dfc0]
class smbc2--><rect codeLine="113" fill="#FFFFFF" filter="url(#fjrxir72ayuln)" height="78.418" id="smbc2" style="stroke:#000000;stroke-width:4.6875;" width="146.875" x="3078" y="3559.375"/><text fill="#000000" font-family="sans-serif" font-size="37.5" lengthAdjust="spacing" textLength="128.125" x="3087.375" y="3613.9282">SMBC2</text><!--MD5=[25597b1cf91fb97ce1376bab326f9ddd]
link customer to youtube1--><path codeLine="116" d="M2603.5313,66.8125 C2537.9688,72.6563 2418.9063,90.75 2335.8125,146.875 C2179.5,252.4687 2204.3125,343.3437 2082.6875,487.5 C1973,617.5 1839.625,756.2813 1737.7812,858.7187 " fill="none" id="customer-to-youtube1" style="stroke:#000000;stroke-width:3.125;"/><polygon fill="#000000" points="1725.5312,871.0313,1754.2351,859.9247,1736.5575,859.9604,1736.5217,842.2828,1725.5312,871.0313" style="stroke:#000000;stroke-width:3.125;"/><!--MD5=[0da511e5d5f497e3c18c3c52222cf6d2]
link customer to niconico--><path codeLine="117" d="M2603.2813,64.5938 C2409.8438,67.5 1671.1875,85.6875 1076.4375,196.875 C1064,199.1875 1051.4688,201.7187 1038.8125,204.375 " fill="none" id="customer-to-niconico" style="stroke:#000000;stroke-width:3.125;"/><polygon fill="#000000" points="1022.7813,207.8437,1052.9098,214.1313,1038.0548,204.5486,1047.6376,189.6936,1022.7813,207.8437" style="stroke:#000000;stroke-width:3.125;"/><!--MD5=[8f033e958bcc1b8d135c7d3309223f13]
link customer to tiktok--><path codeLine="118" d="M2603.3438,68.3437 C2508.5938,77.4375 2291.4375,101.7187 2113.9375,146.875 C2064.125,159.5312 2012.4688,175 1961.7813,191.625 " fill="none" id="customer-to-tiktok" style="stroke:#000000;stroke-width:3.125;"/><polygon fill="#000000" points="1946.0625,196.8125,1976.6917,199.8325,1960.8946,191.8983,1968.8289,176.1012,1946.0625,196.8125" style="stroke:#000000;stroke-width:3.125;"/><!--MD5=[4f8205248c0c23fb377e95a19ce680fd]
link customer to pixiv--><path codeLine="119" d="M2603.5938,64.7188 C2261.5,69.5625 197,102.75 107.6875,196.875 C18.75,290.5625 90.4063,359.5 107.6875,487.5 C160.9375,882.1875 345.1875,953.2812 345.1875,1351.5625 C345.1875,1351.5625 345.1875,1351.5625 345.1875,2370.3125 C345.1875,2621.6875 627.4063,2734.5938 876.3125,2785.3125 " fill="none" id="customer-to-pixiv" style="stroke:#000000;stroke-width:3.125;"/><polygon fill="#000000" points="892.6563,2788.5625,867.4892,2770.8457,877.3279,2785.5325,862.6411,2795.3712,892.6563,2788.5625" style="stroke:#000000;stroke-width:3.125;"/><!--MD5=[e2a9ddb94b1060c930bbfb5eaadf5560]
link customer to twitter1--><path codeLine="120" d="M2637.875,100.3125 C2563.4688,298.5937 2200.5938,1251.6563 2010.8125,1500 C2001.5938,1512.0625 1991.4688,1523.8125 1980.75,1535.2188 " fill="none" id="customer-to-twitter1" style="stroke:#000000;stroke-width:3.125;"/><polygon fill="#000000" points="1969.875,1546.4688,1998.4185,1534.9565,1980.7432,1535.2428,1980.457,1517.5674,1969.875,1546.4688" style="stroke:#000000;stroke-width:3.125;"/><!--MD5=[d2dae3c57d12da8d68f9297ff746491a]
link customer to twitter2--><path codeLine="121" d="M2698.7187,63.4687 C2857.8438,62.2188 3371.7188,64.75 3510.8125,146.875 C3653.25,231 3752.4063,395.6875 3810.5625,519.2187 " fill="none" id="customer-to-twitter2" style="stroke:#000000;stroke-width:3.125;"/><polygon fill="#000000" points="3817.4375,534.0625,3816.9826,503.2882,3810.8812,519.8796,3794.2899,513.7782,3817.4375,534.0625" style="stroke:#000000;stroke-width:3.125;"/><!--MD5=[1ca015376434141d19d285f9611815f9]
link customer to wordpress1--><path codeLine="122" d="M2699.3438,78.5 C2791.7813,109.6562 2985.8125,192.5 2985.8125,339.0625 C2985.8125,339.0625 2985.8125,339.0625 2985.8125,1357.8125 C2985.8125,1690.8438 2756.2188,2022.1563 2599.7813,2209.25 " fill="none" id="customer-to-wordpress1" style="stroke:#000000;stroke-width:3.125;"/><polygon fill="#000000" points="2589.5938,2221.375,2617.2807,2207.9326,2599.6666,2209.4302,2598.169,2191.8161,2589.5938,2221.375" style="stroke:#000000;stroke-width:3.125;"/><!--MD5=[9aef7e1dc7b5809246535e930298b925]
link customer to wordpress2--><path codeLine="123" d="M2698.3437,66.6562 C2828.5,74.9688 3189.0625,105.9688 3254.5625,196.875 C3475.3438,503.2187 3432.2813,1507.4063 3454.5625,1884.375 C3462.1563,2013.3125 3489.875,2050.75 3454.5625,2175 C3401.7188,2360.7813 3279.125,2545.4375 3182.9063,2670.4688 " fill="none" id="customer-to-wordpress2" style="stroke:#000000;stroke-width:3.125;"/><polygon fill="#000000" points="3172.5,2683.9063,3199.5865,2669.2917,3182.0526,2671.5414,3179.8028,2654.0075,3172.5,2683.9063" style="stroke:#000000;stroke-width:3.125;"/><!--MD5=[eafb136ac211a9b3d46b91f4a3334ced]
link customer to coconala1--><path codeLine="124" d="M2699.1563,62.75 C2780.9688,62.6875 2950.4375,72.4688 3067.0625,146.875 C3156.2813,203.8125 3207.6875,233.2188 3207.6875,339.0625 C3207.6875,339.0625 3207.6875,339.0625 3207.6875,1357.8125 C3207.6875,1532.4063 3207.6875,1732.6563 3207.6875,1868.1562 " fill="none" id="customer-to-coconala1" style="stroke:#000000;stroke-width:3.125;"/><polygon fill="#000000" points="3207.6875,1884.375,3220.1875,1856.25,3207.6875,1868.75,3195.1875,1856.25,3207.6875,1884.375" style="stroke:#000000;stroke-width:3.125;"/><!--MD5=[a4e96201cc2480d2cf10d82456e68d9f]
link customer to coconala2--><path codeLine="125" d="M2698.8438,65.0625 C2837.4375,68.625 3253.5313,84.2188 3592.0625,146.875 C3671.5938,161.5938 3694.0313,162.0625 3767.0625,196.875 C4002.875,309.3125 4127.75,302.5937 4248.3125,534.375 C4356.3125,742 4300.9375,1020.3125 4247.5938,1192.6563 " fill="none" id="customer-to-coconala2" style="stroke:#000000;stroke-width:3.125;"/><polygon fill="#000000" points="4242.7813,1207.9687,4263.1406,1184.8871,4247.4672,1193.063,4239.2913,1177.3896,4242.7813,1207.9687" style="stroke:#000000;stroke-width:3.125;"/><!--MD5=[be45ce7060d774e18d071e676605c550]
link customer to freem--><path codeLine="126" d="M2651.4375,100.1562 C2651.4375,222.5938 2651.4375,627.375 2651.4375,855.0313 " fill="none" id="customer-to-freem" style="stroke:#000000;stroke-width:3.125;"/><polygon fill="#000000" points="2651.4375,871.0938,2663.9375,842.9688,2651.4375,855.4688,2638.9375,842.9688,2651.4375,871.0938" style="stroke:#000000;stroke-width:3.125;"/><!--MD5=[b4dccddfaef27788fdb71e4ac41af1ee]
link youtube1 to twitter1--><path codeLine="127" d="M1627.0625,1179.1563 C1658.875,1285.5313 1700.5937,1425.0313 1732.3438,1531.2188 " fill="none" id="youtube1-twitter1" style="stroke:#000000;stroke-width:3.125;"/><polygon fill="#000000" points="1736.9687,1546.625,1740.8181,1516.089,1732.4585,1531.6651,1716.8823,1523.3055,1736.9687,1546.625" style="stroke:#000000;stroke-width:3.125;"/><polygon fill="#000000" points="1622.2188,1162.9688,1618.3443,1193.5016,1626.7167,1177.9323,1642.286,1186.3048,1622.2188,1162.9688" style="stroke:#000000;stroke-width:3.125;"/><!--MD5=[0e041e3bd4c113190c353d759b065de6]
link youtube1 to wordpress1--><path codeLine="128" d="M1822.375,1172.6875 C1953.375,1266.1562 2108.1563,1396.625 2207.6875,1546.875 C2342.875,1751 2407.6563,2031.5 2436.625,2205.125 " fill="none" id="youtube1-wordpress1" style="stroke:#000000;stroke-width:3.125;"/><polygon fill="#000000" points="2439.1563,2220.5625,2447.0021,2190.8017,2436.6598,2205.1382,2422.3233,2194.7959,2439.1563,2220.5625" style="stroke:#000000;stroke-width:3.125;"/><polygon fill="#000000" points="1808.9375,1163.1875,1824.6373,1189.6598,1821.6791,1172.2314,1839.1075,1169.2732,1808.9375,1163.1875" style="stroke:#000000;stroke-width:3.125;"/><!--MD5=[d3995a78a0ef3ea5f87cf61c0c9239f2]
link youtube1 to booth--><path codeLine="129" d="M1376.4063,1162.7188 C1362.5625,1177.4063 1349.8125,1193 1338.9375,1209.375 C975.0625,1757.6563 1380.4375,2141.25 948.3125,2637.5 C913.5625,2677.375 868.0313,2640.2188 838.9375,2684.375 C767.8125,2792.2188 779.5,2860.3125 838.9375,2975 C876.8125,3048.1563 942.6875,3106.7188 1010.6563,3151.5313 " fill="none" id="youtube1-to-booth" style="stroke:#000000;stroke-width:3.125;"/><polygon fill="#000000" points="1024.2813,3160.2813,1007.4444,3134.5172,1011.1582,3151.8004,993.875,3155.5141,1024.2813,3160.2813" style="stroke:#000000;stroke-width:3.125;"/><!--MD5=[4e1ffda019908da4ea503f9ada7b0937]
link youtube1 to pixiv--><path codeLine="130" d="M1494.9063,1178.125 C1444.25,1280.3125 1383.625,1417.9063 1351.4375,1546.875 C1252.9063,1941.5313 1242.4375,2423.8125 1244.5625,2668.25 " fill="none" id="youtube1-pixiv" style="stroke:#000000;stroke-width:3.125;"/><polygon fill="#000000" points="1244.7188,2684,1256.8965,2655.734,1244.5402,2668.376,1231.8982,2656.0197,1244.7188,2684" style="stroke:#000000;stroke-width:3.125;"/><polygon fill="#000000" points="1502.2813,1163.3125,1478.523,1182.8781,1495.2935,1177.2879,1500.8837,1194.0584,1502.2813,1163.3125" style="stroke:#000000;stroke-width:3.125;"/><!--MD5=[d07e2c883f0e5e730581bfa609aae1e9]
link youtube1 to googleadsense--><path codeLine="131" d="M1243.5938,1052.1563 C1139.4375,1078.7813 1033.8125,1126.0938 963.9375,1209.375 C622.125,1616.75 739.8438,2343.4375 780.5938,2543.25 " fill="none" id="youtube1-to-googleadsense" style="stroke:#000000;stroke-width:3.125;"/><polygon fill="#000000" points="783.8125,2558.8125,790.3521,2528.7376,780.6453,2543.5119,765.8711,2533.8051,783.8125,2558.8125" style="stroke:#000000;stroke-width:3.125;"/><!--MD5=[356865b0ad6b522eafeab6c5c992a646]
link niconico to youtube1--><path codeLine="132" d="M917.5938,487.6562 C945.375,502.5312 972.6563,518.1875 998.3125,534.375 C1149.375,629.6875 1304.625,759.75 1416.625,860.4063 " fill="none" id="niconico-to-youtube1" style="stroke:#000000;stroke-width:3.125;"/><polygon fill="#000000" points="1428.7188,871.3125,1416.2353,843.1802,1417.127,860.8353,1399.4718,861.727,1428.7188,871.3125" style="stroke:#000000;stroke-width:3.125;"/><!--MD5=[31734b147daafff209f796bc2e94aca7]
link niconico to pixiv--><path codeLine="133" d="M583.5938,488.75 C576.3438,624.125 567.0625,832.8125 567.0625,1014.0625 C567.0625,1014.0625 567.0625,1014.0625 567.0625,2370.3125 C567.0625,2492.9375 551.1875,2548.75 635.8125,2637.5 C700.25,2705.0625 788.2188,2748.6563 877.4063,2776.7188 " fill="none" id="niconico-to-pixiv" style="stroke:#000000;stroke-width:3.125;"/><polygon fill="#000000" points="892.875,2781.4375,869.6105,2761.2874,877.9275,2776.8863,862.3286,2785.2034,892.875,2781.4375" style="stroke:#000000;stroke-width:3.125;"/><!--MD5=[584b1e5a3cffbaaaafbcc3205a34e13a]
link niconico to twitter1--><path codeLine="134" d="M682.875,488.125 C793.2188,656.9063 989.4375,942.5938 1188.9375,1162.5 C1311.8125,1297.9688 1466.6563,1434.9688 1586.9688,1535.25 " fill="none" id="niconico-to-twitter1" style="stroke:#000000;stroke-width:3.125;"/><polygon fill="#000000" points="1599.9688,1546.0625,1586.3547,1518.4595,1587.9616,1536.064,1570.3572,1537.6709,1599.9688,1546.0625" style="stroke:#000000;stroke-width:3.125;"/><!--MD5=[9d449770be0f84f8d9e2621bc675b8da]
link niconico to booth--><path codeLine="135" d="M413.5,488.6563 C281.0313,612.2187 123.3125,803.5 123.3125,1014.0625 C123.3125,1014.0625 123.3125,1014.0625 123.3125,2601.5625 C123.3125,2805.4375 678.8438,3049.9375 1009.125,3177.2813 " fill="none" id="niconico-to-booth" style="stroke:#000000;stroke-width:3.125;"/><polygon fill="#000000" points="1024.6875,3183.25,1002.8798,3161.5316,1010.0925,3177.6709,993.9532,3184.8836,1024.6875,3183.25" style="stroke:#000000;stroke-width:3.125;"/><!--MD5=[46b080f8c6a81505c662cc55ab9b8a58]
link tiktok to youtube1--><path codeLine="136" d="M1579.5625,487.9687 C1579.5625,595.8125 1579.5625,743.875 1579.5625,855.4375 " fill="none" id="tiktok-to-youtube1" style="stroke:#000000;stroke-width:3.125;"/><polygon fill="#000000" points="1579.5625,871.625,1592.0625,843.5,1579.5625,856,1567.0625,843.5,1579.5625,871.625" style="stroke:#000000;stroke-width:3.125;"/><!--MD5=[80e65d29b901fb4cb728a488509bec1f]
link tiktok to twitter1--><path codeLine="137" d="M1725.5625,488.125 C1815.1875,586.5 1921.7812,725.4375 1970.1875,871.875 C2044.5,1096.7813 1947.5,1365.6563 1866.8438,1531.9063 " fill="none" id="tiktok-to-twitter1" style="stroke:#000000;stroke-width:3.125;"/><polygon fill="#000000" points="1859.5937,1546.6562,1883.2269,1526.9397,1866.4923,1532.6366,1860.7954,1515.902,1859.5937,1546.6562" style="stroke:#000000;stroke-width:3.125;"/><!--MD5=[48d2c1fc68c966d166106b175076a8e0]
link pixiv to booth--><path codeLine="138" d="M1248.3125,2975.2188 C1248.3125,3017.1563 1248.3125,3063.3125 1248.3125,3106.1875 " fill="none" id="pixiv-to-booth" style="stroke:#000000;stroke-width:3.125;"/><polygon fill="#000000" points="1248.3125,3121.8125,1260.8125,3093.6875,1248.3125,3106.1875,1235.8125,3093.6875,1248.3125,3121.8125" style="stroke:#000000;stroke-width:3.125;"/><!--MD5=[b9d779a8700e3efd4b0792f7db6a8074]
link twitter1 to pixiv--><path codeLine="139" d="M1704.0937,1852.4688 C1698.9375,1863.25 1693.8438,1873.9687 1688.9375,1884.375 C1558.25,2160.3438 1407.9688,2482.8125 1321,2669.9688 " fill="none" id="twitter1-pixiv" style="stroke:#000000;stroke-width:3.125;"/><polygon fill="#000000" points="1314.3125,2684.3125,1337.5126,2664.0882,1320.9054,2670.1466,1314.8471,2653.5395,1314.3125,2684.3125" style="stroke:#000000;stroke-width:3.125;"/><polygon fill="#000000" points="1711.125,1837.7188,1687.772,1857.7663,1704.4246,1851.8342,1710.3567,1868.4868,1711.125,1837.7188" style="stroke:#000000;stroke-width:3.125;"/><!--MD5=[29dec6cc50626670d458a9838d53504f]
link twitter1 to wordpress1--><path codeLine="140" d="M2035.2813,1848.3438 C2048.6875,1859.875 2061.5,1871.9063 2073.3125,1884.375 C2175.5625,1992.2813 2144.5313,2060.1563 2238.9375,2175 C2248.7187,2186.9375 2259.3438,2198.7187 2270.4063,2210.2188 " fill="none" id="twitter1-wordpress1" style="stroke:#000000;stroke-width:3.125;"/><polygon fill="#000000" points="2281.625,2221.625,2270.8094,2192.8103,2270.6663,2210.4874,2252.9892,2210.3442,2281.625,2221.625" style="stroke:#000000;stroke-width:3.125;"/><polygon fill="#000000" points="2022.7813,1837.9063,2036.2841,1865.5638,2034.748,1847.953,2052.3588,1846.417,2022.7813,1837.9063" style="stroke:#000000;stroke-width:3.125;"/><!--MD5=[02da6ae73fb454aeec62fa406c3e84e3]
link twitter1 to booth--><path codeLine="141" d="M1802.5,1838.4063 C1834.9375,2087.875 1868.9687,2610.5938 1657.6875,2975 C1617.1875,3044.8438 1552.2188,3102.0625 1485.9063,3146.5938 " fill="none" id="twitter1-to-booth" style="stroke:#000000;stroke-width:3.125;"/><polygon fill="#000000" points="1472.625,3155.3438,1502.9926,3150.3361,1485.6806,3146.7593,1489.2574,3129.4473,1472.625,3155.3438" style="stroke:#000000;stroke-width:3.125;"/><!--MD5=[63d1ddb5ac8b609f73c18606d194d4cd]
link twitter1 to contact--><path codeLine="142" d="M1833.7812,1837.75 C1839.75,1853.4688 1845.7188,1869.25 1851.4375,1884.375 C1979.75,2224.2813 2132.6563,2633.7813 2185.5,2775.4375 " fill="none" id="twitter1-to-contact" style="stroke:#000000;stroke-width:3.125;"/><polygon fill="#000000" points="2191.1563,2790.5938,2193.0672,2759.8755,2185.7091,2775.949,2169.6356,2768.5909,2191.1563,2790.5938" style="stroke:#000000;stroke-width:3.125;"/><!--MD5=[4406b4b8825db89887de0602db9aff6e]
link twitter2 to wordpress2--><path codeLine="143" d="M3870.5938,841.375 C3860.3125,1257.3125 3811.5625,2366.375 3582.6875,2637.5 C3579.5625,2641.2188 3527.3125,2660.7813 3456.7188,2686.0313 " fill="none" id="twitter2-wordpress2" style="stroke:#000000;stroke-width:3.125;"/><polygon fill="#000000" points="3441.375,2691.5,3472.0666,2693.8005,3456.0877,2686.2391,3463.6491,2670.2602,3441.375,2691.5" style="stroke:#000000;stroke-width:3.125;"/><polygon fill="#000000" points="3870.9688,825.6875,3857.7499,853.4819,3870.5671,841.3073,3882.7416,854.1245,3870.9688,825.6875" style="stroke:#000000;stroke-width:3.125;"/><!--MD5=[a86ee91323381f356aeecddc41080c12]
link wordpress1 to pixiv--><path codeLine="144" d="M2158.7188,2483.0937 C1995.7813,2544.5625 1792.625,2621.2188 1619.5938,2686.5 " fill="none" id="wordpress1-to-pixiv" style="stroke:#000000;stroke-width:3.125;"/><polygon fill="#000000" points="1604,2692.375,1634.7298,2694.0907,1618.6098,2686.8349,1625.8656,2670.7149,1604,2692.375" style="stroke:#000000;stroke-width:3.125;"/><!--MD5=[5dc611c4e5dfec97296ad7834d2d749e]
link wordpress1 to contact--><path codeLine="145" d="M2378.2813,2513.4063 C2328.625,2602.9375 2267.6563,2712.8438 2232.7187,2775.7813 " fill="none" id="wordpress1-to-contact" style="stroke:#000000;stroke-width:3.125;"/><polygon fill="#000000" points="2224.8438,2789.9688,2249.4294,2771.4536,2232.4319,2776.31,2227.5755,2759.3125,2224.8438,2789.9688" style="stroke:#000000;stroke-width:3.125;"/><!--MD5=[cc153d32d5c50ff8635b5caff9e6365d]
link wordpress1 to wordpress2--><path codeLine="146" d="M2655.6563,2522.4375 C2719.0625,2571.1563 2789.2813,2625.125 2852.7813,2673.9063 " fill="none" id="wordpress1-wordpress2" style="stroke:#000000;stroke-width:3.125;"/><polygon fill="#000000" points="2865.375,2683.5938,2850.652,2656.566,2852.972,2674.0908,2835.4473,2676.4107,2865.375,2683.5938" style="stroke:#000000;stroke-width:3.125;"/><polygon fill="#000000" points="2643.0938,2512.7812,2657.8167,2539.809,2655.4967,2522.2842,2673.0215,2519.9643,2643.0938,2512.7812" style="stroke:#000000;stroke-width:3.125;"/><!--MD5=[63b34193dba8405fbf94b1baae52de28]
link wordpress2 to youtube1--><path codeLine="147" d="M3010.4688,2684.125 C2911.5937,2366.625 2628.5625,1598.4375 2107.6875,1209.375 C2054.9375,1170 1993.25,1138.2188 1931,1112.8125 " fill="none" id="wordpress2-to-youtube1" style="stroke:#000000;stroke-width:3.125;"/><polygon fill="#000000" points="1916.0313,1106.8125,1937.5023,1128.8638,1930.5387,1112.6155,1946.787,1105.6519,1916.0313,1106.8125" style="stroke:#000000;stroke-width:3.125;"/><!--MD5=[993290cad7e4f2a0707f66be716838fb]
link freem to twitter1--><path codeLine="148" d="M2591.5938,1163.2188 C2533.75,1300.1875 2452.7813,1487.9375 2438.9375,1500 C2363.0625,1566.0625 2265.4688,1609.125 2168.7188,1637.1563 " fill="none" id="freem-to-twitter1" style="stroke:#000000;stroke-width:3.125;"/><polygon fill="#000000" points="2153.2188,1641.5313,2183.6803,1645.9313,2168.2576,1637.2918,2176.8972,1621.8691,2153.2188,1641.5313" style="stroke:#000000;stroke-width:3.125;"/><!--MD5=[4a21c79041948c13a13ef069e5f22227]
link freem to wordpress1--><path codeLine="149" d="M2630.875,1162.8438 C2594.4375,1415.5625 2518.75,1940.4375 2480.6563,2204.7188 " fill="none" id="freem-to-wordpress1" style="stroke:#000000;stroke-width:3.125;"/><polygon fill="#000000" points="2478.3125,2220.9688,2494.6959,2194.914,2480.5409,2205.5035,2469.9514,2191.3485,2478.3125,2220.9688" style="stroke:#000000;stroke-width:3.125;"/><!--MD5=[92e421eba24253fb946dc27b84c4cb8d]
link booth to smbc2--><path codeLine="150" d="M1472.2188,3308.5625 C1891.6875,3380.1875 2779.1563,3531.75 3062.5,3580.125 " fill="none" id="booth-to-smbc2" style="stroke:#000000;stroke-width:3.125;"/><polygon fill="#000000" points="3077.9063,3582.75,3052.2908,3565.6879,3062.5048,3580.1161,3048.0766,3590.3302,3077.9063,3582.75" style="stroke:#000000;stroke-width:3.125;"/><text fill="#000000" font-family="sans-serif" font-size="37.5" lengthAdjust="spacing" textLength="75" x="2642.0625" y="3501.4282">入金</text><!--MD5=[acd144a440c96784dd7f483fe08968f7]
link coconala1 to smbc2--><path codeLine="151" d="M3302.0938,2175.375 C3411.9063,2358.9688 3569.25,2688.5625 3495.1875,2975 C3435,3207.7188 3266.6875,3446.25 3190.1563,3546.4062 " fill="none" id="coconala1-to-smbc2" style="stroke:#000000;stroke-width:3.125;"/><polygon fill="#000000" points="3180.4375,3559.0313,3207.4985,3544.3695,3189.9685,3546.6498,3187.6882,3529.1198,3180.4375,3559.0313" style="stroke:#000000;stroke-width:3.125;"/><text fill="#000000" font-family="sans-serif" font-size="37.5" lengthAdjust="spacing" textLength="75" x="3517.0625" y="2845.1782">入金</text><!--MD5=[e9fc5a771f280d62cfcbd0d52b77efbd]
link coconala2 to smbc2--><path codeLine="152" d="M4138.7813,1500.625 C4096.25,1634.6875 4042.0625,1841.7188 4042.0625,2026.5625 C4042.0625,2026.5625 4042.0625,2026.5625 4042.0625,3270.3125 C4042.0625,3439.5 3467.7813,3546.5313 3241.5,3582.125 " fill="none" id="coconala2-to-smbc2" style="stroke:#000000;stroke-width:3.125;"/><polygon fill="#000000" points="3225.8438,3584.5938,3255.5599,3592.6073,3241.2819,3582.1843,3251.7048,3567.9063,3225.8438,3584.5938" style="stroke:#000000;stroke-width:3.125;"/><text fill="#000000" font-family="sans-serif" font-size="37.5" lengthAdjust="spacing" textLength="75" x="4045.1875" y="2613.9282">入金</text><!--MD5=[a00c3a3a5d58ee2d83d48bcf1599776a]
link googleadsense to smbc2--><path codeLine="153" d="M700.7813,2637.7812 C679.9063,2649.8438 659.6563,2665.2188 645.1875,2684.375 C538.3125,2825.875 488.5938,2914.4688 563.9375,3075 C663.6563,3287.5 752.9375,3323.5938 970.1875,3412.5 C1358.375,3571.3438 2698.9375,3592.1875 3060.8125,3594.9062 " fill="none" id="googleadsense-to-smbc2" style="stroke:#000000;stroke-width:3.125;"/><polygon fill="#000000" points="3077.2813,3595.0313,3049.2644,3582.2906,3061.6568,3594.8973,3049.0501,3607.2897,3077.2813,3595.0313" style="stroke:#000000;stroke-width:3.125;"/><text fill="#000000" font-family="sans-serif" font-size="37.5" lengthAdjust="spacing" textLength="75" x="567.0625" y="3063.9282">入金</text><!--MD5=[2de0b13e79801d9238857e368e132d7d]
@startuml

hide circle
hide empty fields
hide empty methods

skinparam class {
    backGroundColor transparent
    borderColor black
    arrowColor black
}

skinparam {
    ranksep 30
    dpi 300
    arrowThickness 1
    defaultFontSize 12
}


class "顧客" as customer {
}

class "YouTube 1" as youtube1 {
    Category : 音楽ビジネス
    Contents : 楽曲を中心とした動画投稿
    Objective : 広告・誘導
    Name : H-Row Music Channel
} 

class "ニコニコ動画" as niconico {
    Category : 音楽ビジネス
    Contents : VOCALOID楽曲を中心とした動画投稿
    Objective : 誘導
    Name : H-Row
}

class "TikTok" as tiktok {
    Category : 音楽ビジネス
    Contents : 楽曲ダイジェストを中心とした動画投稿
    Objective : 誘導
    Name : H-Row
}

class "Pixiv" as pixiv {
    Category : 音楽ビジネス
    Contents : 制作関連のイラスト等の投稿
    Objective : 誘導
    Name : H-Row
}

class "Twitter - H-Row" as twitter1 {
    Category : 音楽ビジネス
    Contents : 活動報告・簡易ポートフォリオ
    Objective : 依頼・誘導
    Name : H-Row
}

class "Twitter 2" as twitter2 {
    Category : ブログビジネス
    Contents : ライフハック・IT記事の共有等
    Objective : 誘導
    Name : 
}

Class "WordPress 1" as wordpress1 {
    Category : 音楽ビジネス
    Contents : 音楽用ポートフォリオ
    Objective : 依頼・誘導
    Name : H-Row Music Portfolio
}

class "WordPress 2" as wordpress2 {
    Category : ブログビジネス
    Contents : ライフハック・IT等の記事の投稿
    Objective : 広告・誘導
    Name : 
}

class "BOOTH" as booth {
    Category : 音楽ビジネス
    Contents : 楽曲等の販売
    Objective : 販売
    Name : 
}

class "ふりーむ" as freem {
    Category : 
    Contents : 
    Objective : 
    Name : 
}

class "連絡" as contact {
}

class "Google Adsense" as googleadsense {
}

class "ココナラ 1" as coconala1 {
    Category : 音楽ビジネス
    Contents : 音楽制作の募集
    Objective : 依頼
    Name : 
}

class "ココナラ 2" as coconala2 {
    Category : 音楽ビジネス
    Contents : 画像制作の募集
    Objective : 依頼
    Name : 
}

class "SMBC2" as smbc2 {
}

customer - -> youtube1
customer - -> niconico
customer - -> tiktok
customer - -> pixiv
customer - -> twitter1
customer - -> twitter2
customer - -> wordpress1
customer - -> wordpress2
customer - -> coconala1
customer - -> coconala2
customer - -> freem
youtube1 <- -> twitter1
youtube1 <- -> wordpress1
youtube1 - -> booth
youtube1 <- -> pixiv
youtube1 - -> googleadsense
niconico - -> youtube1
niconico - -> pixiv
niconico - -> twitter1
niconico - -> booth
tiktok - -> youtube1
tiktok - -> twitter1
pixiv - -> booth
twitter1 <- -> pixiv
twitter1 <- -> wordpress1
twitter1 - -> booth
twitter1 - -> contact
twitter2 <- -> wordpress2
wordpress1 - -> pixiv
wordpress1 - -> contact
wordpress1 <- -> wordpress2
wordpress2 - -> youtube1
freem - -> twitter1
freem - -> wordpress1
booth - -> smbc2 : 入金
coconala1 - -> smbc2 : 入金
coconala2 - -> smbc2 : 入金
googleadsense - -> smbc2 : 入金



@enduml

PlantUML version 1.2021.16(Thu Dec 09 02:25:22 JST 2021)
(GPL source distribution)
Java Runtime: Java(TM) SE Runtime Environment
JVM: Java HotSpot(TM) 64-Bit Server VM
Default Encoding: MS932
Language: ja
Country: JP
--></g></svg>