<?xml version="1.0" encoding="us-ascii" standalone="no"?><svg xmlns="http://www.w3.org/2000/svg" xmlns:xlink="http://www.w3.org/1999/xlink" contentStyleType="text/css" height="634.375px" preserveAspectRatio="none" style="width:1240px;height:634px;background:#FFFFFF;" version="1.1" viewBox="0 0 1240 634" width="1240.625px" zoomAndPan="magnify"><defs/><g><!--class cash--><g id="elem_cash"><rect codeLine="25" fill="#FFFFFF" height="78.418" id="cash" rx="7.8125" ry="7.8125" style="stroke:#000000;stroke-width:1.5625;" width="93.75" x="432.8125" y="365.625"/><text fill="#000000" font-family="sans-serif" font-size="37.5" lengthAdjust="spacing" textLength="75" x="442.1875" y="420.1782">&#29694;&#37329;</text></g><!--class smbc1--><g id="elem_smbc1"><rect codeLine="27" fill="#FFFFFF" height="78.418" id="smbc1" rx="7.8125" ry="7.8125" style="stroke:#000000;stroke-width:1.5625;" width="275" x="804.6875" y="365.625"/><text fill="#000000" font-family="sans-serif" font-size="37.5" lengthAdjust="spacing" textLength="256.25" x="814.0625" y="420.1782">&#19977;&#20117;&#20303;&#21451;&#37504;&#34892; 1</text></g><!--class smbc2--><g id="elem_smbc2"><rect codeLine="28" fill="#FFFFFF" height="78.418" id="smbc2" rx="7.8125" ry="7.8125" style="stroke:#000000;stroke-width:1.5625;" width="275" x="804.6875" y="537.5"/><text fill="#000000" font-family="sans-serif" font-size="37.5" lengthAdjust="spacing" textLength="256.25" x="814.0625" y="592.0532">&#19977;&#20117;&#20303;&#21451;&#37504;&#34892; 2</text></g><!--class sbinetbank--><g id="elem_sbinetbank"><rect codeLine="30" fill="#FFFFFF" height="78.418" id="sbinetbank" rx="7.8125" ry="7.8125" style="stroke:#000000;stroke-width:1.5625;" width="265.625" x="346.875" y="193.75"/><text fill="#000000" font-family="sans-serif" font-size="37.5" lengthAdjust="spacing" textLength="246.875" x="356.25" y="248.3032">SBI&#12493;&#12483;&#12488;&#37504;&#34892;</text></g><!--class paypaybank--><g id="elem_paypaybank"><rect codeLine="32" fill="#FFFFFF" height="78.418" id="paypaybank" rx="7.8125" ry="7.8125" style="stroke:#000000;stroke-width:1.5625;" width="218.75" x="1001.5625" y="193.75"/><text fill="#000000" font-family="sans-serif" font-size="37.5" lengthAdjust="spacing" textLength="200" x="1010.9375" y="248.3032">PayPay&#37504;&#34892;</text></g><!--class rakutenbank--><g id="elem_rakutenbank"><rect codeLine="34" fill="#FFFFFF" height="78.418" id="rakutenbank" rx="7.8125" ry="7.8125" style="stroke:#000000;stroke-width:1.5625;" width="168.75" x="723.4375" y="193.75"/><text fill="#000000" font-family="sans-serif" font-size="37.5" lengthAdjust="spacing" textLength="150" x="732.8125" y="248.3032">&#27005;&#22825;&#37504;&#34892;</text></g><!--class gmocoin--><g id="elem_gmocoin"><rect codeLine="36" fill="#FFFFFF" height="78.418" id="gmocoin" rx="7.8125" ry="7.8125" style="stroke:#000000;stroke-width:1.5625;" width="215.625" x="21.875" y="193.75"/><text fill="#000000" font-family="sans-serif" font-size="37.5" lengthAdjust="spacing" textLength="196.875" x="31.25" y="248.3032">GMO&#12467;&#12452;&#12531;</text></g><!--class rakutensec--><g id="elem_rakutensec"><rect codeLine="38" fill="#FFFFFF" height="78.418" id="rakutensec" rx="7.8125" ry="7.8125" style="stroke:#000000;stroke-width:1.5625;" width="168.75" x="723.4375" y="21.875"/><text fill="#000000" font-family="sans-serif" font-size="37.5" lengthAdjust="spacing" textLength="150" x="732.8125" y="76.4282">&#27005;&#22825;&#35388;&#21048;</text></g><!--class sbifxtrade--><g id="elem_sbifxtrade"><rect codeLine="40" fill="#FFFFFF" height="78.418" id="sbifxtrade" rx="7.8125" ry="7.8125" style="stroke:#000000;stroke-width:1.5625;" width="281.25" x="332.8125" y="21.875"/><text fill="#000000" font-family="sans-serif" font-size="37.5" lengthAdjust="spacing" textLength="262.5" x="342.1875" y="76.4282">SBI FX&#12488;&#12524;&#12540;&#12489;</text></g><!--link sbinetbank to cash--><g id="link_sbinetbank_cash"><path codeLine="42" d="M479.6875,290.625 C479.6875,318.0313 479.6875,318.125 479.6875,345.8125 " fill="none" id="sbinetbank-cash" style="stroke:#000000;stroke-width:3.125;"/><polygon fill="#000000" points="479.6875,271.875,467.1875,300,479.6875,287.5,492.1875,300,479.6875,271.875" style="stroke:#000000;stroke-width:3.125;"/><polygon fill="#000000" points="479.6875,364.5625,492.1875,336.4375,479.6875,348.9375,467.1875,336.4375,479.6875,364.5625" style="stroke:#000000;stroke-width:3.125;"/></g><!--link sbinetbank to smbc1--><g id="link_sbinetbank_smbc1"><path codeLine="43" d="M597.6834,278.1967 C674.9959,305.8842 746.1304,331.331 823.5679,359.081 " fill="none" id="sbinetbank-smbc1" style="stroke:#000000;stroke-width:3.125;"/><polygon fill="#000000" points="580.0313,271.875,602.295,293.1256,594.7414,277.1431,610.7239,269.5894,580.0313,271.875" style="stroke:#000000;stroke-width:3.125;"/><polygon fill="#000000" points="841.2188,365.4063,818.9593,344.1511,826.5097,360.1352,810.5256,367.6856,841.2188,365.4063" style="stroke:#000000;stroke-width:3.125;"/></g><!--reverse link smbc1 to smbc2--><g id="link_smbc1_smbc2"><path codeLine="44" d="M942.1875,462.5 C942.1875,489.9063 942.1875,508.75 942.1875,536.4375 " fill="none" id="smbc1-backto-smbc2" style="stroke:#000000;stroke-width:3.125;"/><polygon fill="#000000" points="942.1875,443.75,929.6875,471.875,942.1875,459.375,954.6875,471.875,942.1875,443.75" style="stroke:#000000;stroke-width:3.125;"/></g><!--link paypaybank to smbc1--><g id="link_paypaybank_smbc1"><path codeLine="45" d="M1074.3125,271.875 C1046.4063,299.2813 1021.4701,323.7359 993.2826,351.4234 " fill="none" id="paypaybank-to-smbc1" style="stroke:#000000;stroke-width:3.125;"/><polygon fill="#000000" points="979.9063,364.5625,1008.7302,353.7714,991.0532,353.6133,991.2114,335.9363,979.9063,364.5625" style="stroke:#000000;stroke-width:3.125;"/></g><!--link rakutensec to sbinetbank--><g id="link_rakutensec_sbinetbank"><path codeLine="47" d="M719.8872,108.4503 C665.2309,136.044 623.5192,157.0813 568.613,184.8 " fill="none" id="rakutensec-sbinetbank" style="stroke:#000000;stroke-width:3.125;"/><polygon fill="#000000" points="736.625,100,705.8847,101.5168,722.6768,107.0419,717.1517,123.834,736.625,100" style="stroke:#000000;stroke-width:3.125;"/><polygon fill="#000000" points="551.875,193.25,582.6153,191.7337,565.8233,186.2084,571.3487,169.4164,551.875,193.25" style="stroke:#000000;stroke-width:3.125;"/></g><!--link rakutensec to rakutenbank--><g id="link_rakutensec_rakutenbank"><path codeLine="48" d="M807.8125,118.75 C807.8125,146.1563 807.8125,146.25 807.8125,173.9375 " fill="none" id="rakutensec-rakutenbank" style="stroke:#000000;stroke-width:3.125;"/><polygon fill="#000000" points="807.8125,100,795.3125,128.125,807.8125,115.625,820.3125,128.125,807.8125,100" style="stroke:#000000;stroke-width:3.125;"/><polygon fill="#000000" points="807.8125,192.6875,820.3125,164.5625,807.8125,177.0625,795.3125,164.5625,807.8125,192.6875" style="stroke:#000000;stroke-width:3.125;"/></g><!--link gmocoin to sbinetbank--><g id="link_gmocoin_sbinetbank"><path codeLine="50" d="M256.4375,232.8125 C292.6875,232.8125 291.4063,232.8125 327.6563,232.8125 " fill="none" id="gmocoin-sbinetbank" style="stroke:#000000;stroke-width:3.125;"/><polygon fill="#000000" points="237.6875,232.8125,265.8125,245.3125,253.3125,232.8125,265.8125,220.3125,237.6875,232.8125" style="stroke:#000000;stroke-width:3.125;"/><polygon fill="#000000" points="346.4063,232.8125,318.2813,220.3125,330.7813,232.8125,318.2813,245.3125,346.4063,232.8125" style="stroke:#000000;stroke-width:3.125;"/></g><!--link sbifxtrade to sbinetbank--><g id="link_sbifxtrade_sbinetbank"><path codeLine="51" d="M475.4863,118.7367 C476.5175,146.143 476.5521,146.263 477.5834,173.9505 " fill="none" id="sbifxtrade-sbinetbank" style="stroke:#000000;stroke-width:3.125;"/><polygon fill="#000000" points="474.7813,100,463.3476,128.5751,475.3688,115.614,488.33,127.6351,474.7813,100" style="stroke:#000000;stroke-width:3.125;"/><polygon fill="#000000" points="478.2813,192.6875,489.7258,164.1167,477.6997,177.0733,464.7431,165.0472,478.2813,192.6875" style="stroke:#000000;stroke-width:3.125;"/></g><!--SRC=[XP1FIyCm6CRl-nHXzy4wBnx4WyA61r6O1wzfcgwXRLAIbZb5aFNWvX-61p-0C471sov3DhzCDjs-XLap-sU2XXpUFk-lJvxtTOY50I8SURZah6hi1s47s0HxbiWhFWuTfgIIS0aD88S-G1uK0boKW3ecH6w3iuXQ-ynZ7BGT4cBTOTp2NAkcfx14XPopTbwyp3jhJ-50YxK9RG4RUaAxSKXTWGEmLKq-hO2eiffPdZW4kHIhN8O6i0qZBwmp6ZR9EGP6BMDJSRlu-lzpALn3vQ_1n_BweGoW00WA9zLdu_xi_N4s7Sm7jykRgyNJ7J0IIlWcClwWQYbLIysQUmSolfTnBEEUnZHa4ef3Ksqa9OzXHzqS4y2EkWNcytaw7xxc60xTACIq03KEZsHt9Bj36OyIgEKpn0ZTS5cyJEQzSTv5O9JF3UgdAhICtsGyaN7_9xTz5d9eOKMgfO6TIbJPpO-JbQgtQYLBIvO2D9i8sN0WeqfPaFNFcUzcgp3vUaBLsSooJllBxXi0]--></g></svg>