<svg version="1.1" xmlns="http://www.w3.org/2000/svg" viewBox="0 0 1248.0266111783683 520.4382930618617" width="1248.0266111783683" height="520.4382930618617">
  <!-- svg-source:excalidraw -->
  
  <defs>
    <style class="style-fonts">
      @font-face {
        font-family: "Virgil";
        src: url("https://file%2B.vscode-resource.vscode-cdn.net/c%3A/Users/hrowi/.vscode/extensions/pomdtr.excalidraw-editor-3.7.4/public//dist/excalidraw-assets/Virgil.woff2");
      }
      @font-face {
        font-family: "Cascadia";
        src: url("https://file%2B.vscode-resource.vscode-cdn.net/c%3A/Users/hrowi/.vscode/extensions/pomdtr.excalidraw-editor-3.7.4/public//dist/excalidraw-assets/Cascadia.woff2");
      }
      @font-face {
        font-family: "Assistant";
        src: url("https://file%2B.vscode-resource.vscode-cdn.net/c%3A/Users/hrowi/.vscode/extensions/pomdtr.excalidraw-editor-3.7.4/public//dist/excalidraw-assets/Assistant-Regular.woff2");
      }
    </style>
    
  </defs>
  <rect x="0" y="0" width="1248.0266111783683" height="520.4382930618617" fill="#ffffff"></rect><g stroke-linecap="round" transform="translate(10 10) rotate(0 230.55555725097656 230.55555725097656)"><path d="M249.41 0.92 C267.89 -1.44, 288.38 6.26, 306.46 12.42 C324.55 18.58, 341.99 27.26, 357.94 37.89 C373.9 48.52, 389.31 61.77, 402.19 76.18 C415.06 90.59, 426.4 107.27, 435.22 124.35 C444.04 141.43, 450.93 160.12, 455.11 178.65 C459.29 197.17, 460.84 216.52, 460.3 235.5 C459.75 254.48, 456.95 274.18, 451.85 292.54 C446.74 310.89, 439.19 329.06, 429.66 345.62 C420.13 362.18, 407.79 378.37, 394.65 391.91 C381.5 405.45, 367.03 416.98, 350.8 426.86 C334.57 436.75, 315.67 445.71, 297.26 451.24 C278.84 456.77, 259.29 459.34, 240.32 460.05 C221.34 460.75, 202.29 459.19, 183.41 455.46 C164.53 451.72, 144.15 445.96, 127.05 437.65 C109.95 429.34, 95.11 418.24, 80.82 405.6 C66.53 392.96, 52.43 377.59, 41.32 361.84 C30.21 346.09, 20.71 328.91, 14.17 311.1 C7.63 293.3, 3.95 274.09, 2.06 255.01 C0.17 235.94, 0.24 215.63, 2.82 196.67 C5.4 177.7, 10.21 158.92, 17.55 141.22 C24.88 123.53, 35.25 105.78, 46.82 90.51 C58.38 75.23, 72.02 61.43, 86.91 49.58 C101.8 37.72, 118.77 27.08, 136.15 19.36 C153.53 11.65, 169.44 6.17, 191.2 3.3 C212.97 0.43, 251.56 1.01, 266.75 2.15 C281.93 3.29, 282.93 6.13, 282.3 10.13 M218.24 0.56 C236.21 -3.78, 256.84 2.23, 275.56 5.95 C294.27 9.66, 313.01 14.84, 330.52 22.85 C348.03 30.87, 365.94 41.73, 380.6 54.02 C395.26 66.31, 407.67 80.84, 418.47 96.58 C429.27 112.32, 438.37 130.26, 445.41 148.47 C452.45 166.68, 458.27 186.66, 460.69 205.85 C463.1 225.05, 462.47 244.79, 459.89 263.64 C457.3 282.49, 452.73 301.46, 445.17 318.97 C437.61 336.49, 426.23 353.55, 414.51 368.72 C402.79 383.89, 389.73 398.02, 374.83 410.01 C359.93 422, 342.68 432.89, 325.13 440.68 C307.58 448.47, 288.33 453.23, 269.52 456.75 C250.72 460.27, 231.23 463.04, 212.29 461.8 C193.34 460.56, 173.77 455.61, 155.85 449.32 C137.94 443.02, 120.63 434.4, 104.79 424.02 C88.94 413.65, 73.8 401.2, 60.8 387.08 C47.79 372.95, 35.6 356.42, 26.75 339.26 C17.9 322.11, 12.16 302.66, 7.7 284.13 C3.24 265.6, 0.04 246.87, -0.01 228.09 C-0.06 209.31, 2.34 189.89, 7.39 171.47 C12.44 153.05, 20.86 134.54, 30.27 117.59 C39.69 100.64, 50.82 83.63, 63.88 69.79 C76.94 55.94, 92.2 44.58, 108.63 34.53 C125.06 24.47, 144.02 14.95, 162.45 9.46 C180.88 3.97, 209.84 2.54, 219.21 1.59 C228.59 0.63, 218.43 0.07, 218.72 3.72" stroke="#000000" stroke-width="1" fill="none"></path></g><g stroke-linecap="round" transform="translate(747.7777404785156 24.4444580078125) rotate(0 241.66668701171875 241.66668701171875)"><path d="M343.08 22.14 C362.14 26.76, 379.01 42.12, 394.52 54.58 C410.04 67.04, 424.31 80.9, 436.17 96.89 C448.02 112.88, 458.04 131.97, 465.67 150.53 C473.29 169.09, 479.2 188.25, 481.93 208.23 C484.65 228.22, 484.33 250.53, 482.02 270.45 C479.71 290.37, 475.4 309.28, 468.07 327.74 C460.74 346.2, 449.96 364.67, 438.04 381.2 C426.12 397.72, 411.64 413.72, 396.55 426.89 C381.45 440.07, 365.45 451.66, 347.48 460.25 C329.51 468.84, 308.52 474.69, 288.72 478.41 C268.93 482.13, 248.66 483.6, 228.72 482.57 C208.78 481.53, 188.34 478.08, 169.08 472.21 C149.82 466.34, 130.23 457.94, 113.15 447.34 C96.07 436.74, 80.13 423.27, 66.6 408.62 C53.08 393.97, 41.86 376.88, 32 359.44 C22.14 342, 12.9 323.35, 7.45 303.98 C1.99 284.6, -0.61 263.06, -0.75 243.19 C-0.88 223.32, 1.77 204.11, 6.66 184.76 C11.56 165.41, 18.96 145.01, 28.62 127.08 C38.27 109.15, 51.12 91.91, 64.61 77.17 C78.11 62.43, 92.88 49.56, 109.59 38.66 C126.3 27.76, 145.95 17.98, 164.89 11.77 C183.83 5.55, 203.43 2.82, 223.24 1.36 C243.06 -0.11, 262.23 -1.07, 283.81 3 C305.39 7.06, 340.1 20.39, 352.72 25.74 C365.35 31.09, 361.38 31.31, 359.55 35.09 M135.17 25.89 C150.61 14.04, 172.27 10.34, 191.51 6.19 C210.76 2.05, 230.47 0.28, 250.63 1.02 C270.8 1.77, 293.1 4.88, 312.52 10.65 C331.94 16.42, 350.41 25.4, 367.17 35.66 C383.93 45.93, 398.98 57.78, 413.09 72.24 C427.2 86.7, 441.78 104.88, 451.82 122.44 C461.87 140, 468.07 158.38, 473.38 177.6 C478.69 196.81, 482.92 217.67, 483.68 237.72 C484.44 257.77, 482.56 278.72, 477.95 297.92 C473.33 317.11, 465.24 335.15, 455.99 352.88 C446.75 370.61, 435.96 389.06, 422.49 404.31 C409.02 419.56, 392.25 433.58, 375.16 444.39 C358.07 455.2, 338.79 462.74, 319.94 469.17 C301.08 475.59, 282.02 481.38, 262.04 482.96 C242.07 484.54, 219.74 481.99, 200.08 478.66 C180.41 475.34, 162.15 470.99, 144.04 463.03 C125.93 455.06, 107.39 443.5, 91.41 430.85 C75.42 418.2, 60.08 402.92, 48.14 387.15 C36.21 371.38, 27.39 354.63, 19.81 336.24 C12.23 317.84, 5.66 297.02, 2.67 276.78 C-0.33 256.55, -0.47 234.5, 1.84 214.82 C4.15 195.14, 9.61 177.49, 16.51 158.72 C23.42 139.95, 31.79 118.94, 43.25 102.2 C54.72 85.46, 70.01 71.26, 85.3 58.28 C100.59 45.3, 126.35 29.32, 134.98 24.31 C143.61 19.31, 135.27 24.6, 137.08 28.24" stroke="#000000" stroke-width="1" fill="none"></path></g><g stroke-linecap="round"><g transform="translate(228.88888549804688 12.22222900390625) rotate(0 0 111.66667175292969)"><path d="M-0.5 -0.2 C-0.36 37.25, -0.11 186.17, 0.1 223.57 M1.44 -1.35 C1.5 35.81, -0.62 184.3, -0.8 221.57" stroke="#000000" stroke-width="1" fill="none"></path></g></g><mask></mask><g stroke-linecap="round"><g transform="translate(40.000030517578125 366.66668701171875) rotate(0 93.33331298828125 -65.55555725097656)"><path d="M-1.04 -0.79 C30 -22.83, 154.9 -109.98, 186.15 -131.89 M0.62 1.42 C31.45 -20.53, 154.11 -108.61, 184.93 -130.76" stroke="#000000" stroke-width="1" fill="none"></path></g></g><mask></mask><g stroke-linecap="round"><g transform="translate(227.77780151367188 233.33334350585938) rotate(0 101.66665649414062 67.77778625488281)"><path d="M1.17 -1.18 C35.19 21.33, 170.29 113.22, 203.99 136.11 M0.32 0.82 C34.26 23.48, 169.67 112.06, 203.38 134.28" stroke="#000000" stroke-width="1" fill="none"></path></g></g><mask></mask><g stroke-linecap="round"><g transform="translate(750.0000305175781 282.22222900390625) rotate(0 243.888916015625 0)"><path d="M-0.59 0.62 C80.78 0.63, 406.51 0.13, 488.03 0.15 M1.3 -0.1 C82.55 0.13, 406.06 1.96, 487.21 1.76" stroke="#000000" stroke-width="1" fill="none"></path></g></g><mask></mask><g stroke-linecap="round"><g transform="translate(985.5555725097656 27.77777099609375) rotate(0 0 240.55557250976562)"><path d="M0.95 -0.2 C1.07 79.87, 0.65 400.72, 0.34 481.12 M0 -1.35 C0.02 78.86, -0.69 402.36, -0.43 482.66" stroke="#000000" stroke-width="1" fill="none"></path></g></g><mask></mask><g stroke-linecap="round"><g transform="translate(231.11111450195312 61.111114501953125) rotate(0 38.888885498046875 -19.444442749023438)"><path d="M0.18 0.32 C13.2 -6.03, 65.63 -32.89, 78.38 -39.27 M-1.18 -0.56 C11.71 -6.64, 64.39 -31.39, 77.74 -37.94" stroke="#000000" stroke-width="1" fill="none"></path></g></g><mask></mask><g stroke-linecap="round"><g transform="translate(227.77780151367188 104.4444580078125) rotate(0 71.11111450195312 -30.555557250976562)"><path d="M-1.06 0.67 C22.7 -9.58, 117.54 -50.09, 141.44 -60.42 M0.58 -0.02 C24.82 -10.11, 120.23 -52.16, 143.74 -62.19" stroke="#000000" stroke-width="1" fill="none"></path></g></g><mask></mask><g stroke-linecap="round"><g transform="translate(230.00003051757812 145.55557250976562) rotate(0 92.22222900390625 -31.666671752929688)"><path d="M0.19 0.82 C31.04 -9.83, 154.33 -52.89, 185.19 -63.75 M-1.17 0.21 C29.58 -10.29, 153.6 -51.8, 184.64 -62.43" stroke="#000000" stroke-width="1" fill="none"></path></g></g><mask></mask><g stroke-linecap="round"><g transform="translate(228.88888549804688 185.55557250976562) rotate(0 102.77780151367188 -32.22222900390625)"><path d="M1.01 0.6 C35.25 -10.23, 170.9 -54.05, 204.82 -64.91 M0.08 -0.13 C34.76 -10.8, 172.68 -53.09, 207.15 -63.62" stroke="#000000" stroke-width="1" fill="none"></path></g></g><mask></mask><g stroke-linecap="round"><g transform="translate(237.77780151367188 230) rotate(0 113.88888549804688 -32.77777099609375)"><path d="M-1.03 0.33 C36.67 -10.82, 188.95 -55.49, 226.89 -66.36 M0.63 -0.54 C38.64 -11.61, 191.09 -54.18, 229.14 -65.24" stroke="#000000" stroke-width="1" fill="none"></path></g></g><mask></mask><g stroke-linecap="round"><g transform="translate(292.2222595214844 264.4444580078125) rotate(0 92.22222900390625 -27.22222900390625)"><path d="M-0.77 0.45 C30.09 -8.57, 154.08 -45.76, 184.96 -55.01 M1.03 -0.36 C31.78 -9.15, 153.82 -44.83, 184.28 -53.77" stroke="#000000" stroke-width="1" fill="none"></path></g></g><mask></mask><g stroke-linecap="round"><g transform="translate(345.5555725097656 297.77777099609375) rotate(0 62.77777099609375 -20.5555419921875)"><path d="M0.51 -0.12 C21.15 -6.84, 104.12 -33.75, 124.87 -40.63 M-0.67 -1.23 C20.26 -8.28, 106.45 -36.01, 127.22 -42.5" stroke="#000000" stroke-width="1" fill="none"></path></g></g><mask></mask><g stroke-linecap="round"><g transform="translate(385.5555725097656 332.22222900390625) rotate(0 43.888885498046875 -15)"><path d="M-1.07 0.63 C13.35 -4.31, 72.02 -25.48, 87.02 -30.62 M0.57 -0.08 C15.33 -4.79, 74.64 -24.58, 89.34 -29.4" stroke="#000000" stroke-width="1" fill="none"></path></g></g><mask></mask><g stroke-linecap="round"><g transform="translate(176.66665649414062 271.11114501953125) rotate(0 36.111114501953125 -8.333343505859375)"><path d="M0.92 -0.12 C12.79 -2.82, 60.17 -14.58, 72.14 -17.17 M-0.06 -1.23 C11.57 -3.69, 59.1 -13.19, 71.15 -15.9" stroke="#000000" stroke-width="1" fill="none"></path></g></g><mask></mask><g stroke-linecap="round"><g transform="translate(141.11111450195312 305.5555419921875) rotate(0 74.4444580078125 -15)"><path d="M-1.01 -0.88 C24.11 -6.04, 124.82 -26.04, 149.89 -31.06 M0.67 1.28 C25.78 -3.77, 124.75 -24.84, 149.46 -30.09" stroke="#000000" stroke-width="1" fill="none"></path></g></g><mask></mask><g stroke-linecap="round"><g transform="translate(87.77780151367188 344.4444580078125) rotate(0 121.11111450195312 -21.111114501953125)"><path d="M-1.05 -0.49 C39.55 -7.3, 202.63 -35.04, 243.23 -41.85 M0.6 -1.79 C41.16 -8.89, 202.59 -36.87, 242.81 -43.78" stroke="#000000" stroke-width="1" fill="none"></path></g></g><mask></mask><g stroke-linecap="round"><g transform="translate(82.22219848632812 400) rotate(0 142.22222900390625 -36.111114501953125)"><path d="M-0.17 0.1 C47.07 -12.08, 237.21 -61.34, 284.51 -73.39 M-1.72 -0.89 C45.27 -12.94, 235.62 -60.8, 283.59 -72.47" stroke="#000000" stroke-width="1" fill="none"></path></g></g><mask></mask><g stroke-linecap="round"><g transform="translate(161.11111450195312 453.3333740234375) rotate(0 124.4444580078125 -48.888916015625)"><path d="M0.62 -0.45 C42.07 -16.61, 206.46 -80.95, 248.01 -97.18 M-0.51 -1.73 C41.38 -18.22, 208.56 -83.19, 250.25 -98.98" stroke="#000000" stroke-width="1" fill="none"></path></g></g><mask></mask><g stroke-linecap="round"><g transform="translate(243.33334350585938 468.888916015625) rotate(0 78.88888549804688 -33.888885498046875)"><path d="M-0.98 0.57 C25.16 -10.64, 131.23 -55.87, 157.86 -67.36 M0.7 -0.18 C26.6 -11.75, 130.65 -58.07, 156.95 -69.26" stroke="#000000" stroke-width="1" fill="none"></path></g></g><mask></mask><g stroke-linecap="round"><g transform="translate(770.0000305175781 334.4444580078125) rotate(0 32.77777099609375 -26.111114501953125)"><path d="M-0.16 -0.62 C10.77 -9.4, 55.11 -44.58, 66.15 -53.37 M-1.7 1.67 C9.07 -6.94, 54.3 -43.38, 65.52 -52.43" stroke="#000000" stroke-width="1" fill="none"></path></g></g><mask></mask><g stroke-linecap="round"><g transform="translate(783.3334045410156 385.55560302734375) rotate(0 52.22222900390625 -44.4444580078125)"><path d="M0.2 0.78 C17.48 -14.22, 85.89 -74.69, 103.37 -89.52 M-1.16 0.14 C16.51 -14.74, 87.88 -73.26, 105.51 -88.31" stroke="#000000" stroke-width="1" fill="none"></path></g></g><mask></mask><g stroke-linecap="round"><g transform="translate(806.6666564941406 418.888916015625) rotate(0 73.3333740234375 -66.11111450195312)"><path d="M0.39 0.95 C24.84 -21.06, 121.3 -111.06, 145.54 -133.2 M-0.86 0.4 C24.04 -21.38, 122.8 -110.38, 147.66 -132.18" stroke="#000000" stroke-width="1" fill="none"></path></g></g><mask></mask><g stroke-linecap="round"><g transform="translate(847.7778625488281 454.4444580078125) rotate(0 69.44439697265625 -59.4444580078125)"><path d="M0.12 -0.19 C23.08 -20.06, 114.85 -99.4, 138.16 -119.37 M-1.28 -1.34 C22.04 -21.03, 116.98 -98.42, 140.49 -118.08" stroke="#000000" stroke-width="1" fill="none"></path></g></g><mask></mask><g stroke-linecap="round"><g transform="translate(891.1111145019531 480) rotate(0 45.55560302734375 -36.666656494140625)"><path d="M-0.24 -0.94 C14.78 -13.11, 75.2 -61.22, 90.34 -73.32 M-1.82 1.18 C13.56 -10.75, 77.41 -59.53, 92.64 -71.77" stroke="#000000" stroke-width="1" fill="none"></path></g></g><mask></mask><g stroke-linecap="round"><g transform="translate(923.3334045410156 495.55560302734375) rotate(0 30.5555419921875 -22.22222900390625)"><path d="M0.51 0.4 C10.69 -6.82, 51.83 -36.83, 61.75 -44.28 M-0.69 -0.44 C9.34 -7.35, 50.63 -35.58, 61.14 -42.66" stroke="#000000" stroke-width="1" fill="none"></path></g></g><mask></mask><g stroke-linecap="round"><g transform="translate(768.3050196833908 410.2944985322654) rotate(0 -144.77133793136568 -40.33641728162763)"><path d="M0.53 0.29 C-47.65 -13.27, -240.48 -67.73, -289 -81.05 M-0.66 -0.6 C-48.95 -14.01, -241.73 -66.24, -289.67 -79.71" stroke="#000000" stroke-width="1" fill="none"></path></g><g transform="translate(768.3050196833908 410.2944985322654) rotate(0 -144.77133793136568 -40.33641728162763)"><path d="M-259.77 -82.12 C-268.36 -80.36, -278.57 -82.29, -289.67 -79.71 M-259.77 -82.12 C-270.45 -82.38, -282.14 -79.84, -289.67 -79.71" stroke="#000000" stroke-width="1" fill="none"></path></g><g transform="translate(768.3050196833908 410.2944985322654) rotate(0 -144.77133793136568 -40.33641728162763)"><path d="M-265.21 -62.34 C-272.2 -66.61, -280.76 -74.56, -289.67 -79.71 M-265.21 -62.34 C-273.75 -70.2, -283.33 -75.31, -289.67 -79.71" stroke="#000000" stroke-width="1" fill="none"></path></g></g><mask></mask><g transform="translate(432.2221984863281 429.88897705078125) rotate(0 168.03997802734375 15)"><text x="0" y="0" font-family="Virgil, Segoe UI Emoji" font-size="20px" fill="#000000" text-anchor="start" style="white-space: pre;" direction="ltr" dominant-baseline="text-before-edge">2/3 に対して 1/4 がいくつあるか？</text></g></svg>