<?xml version="1.0" encoding="us-ascii" standalone="no"?><svg xmlns="http://www.w3.org/2000/svg" xmlns:xlink="http://www.w3.org/1999/xlink" contentStyleType="text/css" height="1640.625px" preserveAspectRatio="none" style="width:2681px;height:1640px;background:#FFFFFF;" version="1.1" viewBox="0 0 2681 1640" width="2681.25px" zoomAndPan="magnify"><defs/><g><!--cluster Notes--><g id="cluster_Notes"><rect fill="none" height="1600" rx="7.8125" ry="7.8125" style="stroke:#000000;stroke-width:4.6875;" width="1287.5" x="21.875" y="21.875"/><text fill="#000000" font-family="sans-serif" font-size="37.5" font-weight="bold" lengthAdjust="spacing" textLength="103.125" x="614.0625" y="67.0532">Notes</text></g><!--cluster dropbox--><g id="cluster_dropbox"><rect fill="none" height="643.75" rx="7.8125" ry="7.8125" style="stroke:#000000;stroke-width:4.6875;" width="893.75" x="340.625" y="565.625"/><text fill="#000000" font-family="sans-serif" font-size="37.5" font-weight="bold" lengthAdjust="spacing" textLength="340.625" x="617.1875" y="610.8032">Dropbox (Obsidian)</text></g><!--cluster googledrive--><g id="cluster_googledrive"><rect fill="none" height="234.375" rx="7.8125" ry="7.8125" style="stroke:#000000;stroke-width:4.6875;" width="375" x="428.125" y="1312.5"/><text fill="#000000" font-family="sans-serif" font-size="37.5" font-weight="bold" lengthAdjust="spacing" textLength="221.875" x="504.6875" y="1357.6782">Google Drive</text></g><!--cluster eagle--><g id="cluster_eagle"><rect fill="none" height="234.375" rx="7.8125" ry="7.8125" style="stroke:#000000;stroke-width:4.6875;" width="193.75" x="1040.625" y="153.125"/><text fill="#000000" font-family="sans-serif" font-size="37.5" font-weight="bold" lengthAdjust="spacing" textLength="96.875" x="1089.0625" y="198.3032">Eagle</text></g><!--cluster gyazo--><g id="cluster_gyazo"><rect fill="none" height="234.375" rx="7.8125" ry="7.8125" style="stroke:#000000;stroke-width:4.6875;" width="325" x="640.625" y="153.125"/><text fill="#000000" font-family="sans-serif" font-size="37.5" font-weight="bold" lengthAdjust="spacing" textLength="106.25" x="750" y="198.3032">Gyazo</text></g><!--cluster Database--><g id="cluster_Database"><rect fill="none" height="234.375" rx="7.8125" ry="7.8125" style="stroke:#000000;stroke-width:4.6875;" width="496.875" x="2165.625" y="153.125"/><text fill="#000000" font-family="sans-serif" font-size="37.5" font-weight="bold" lengthAdjust="spacing" textLength="168.75" x="2329.6875" y="198.3032">Database</text></g><!--cluster Task Management--><g id="cluster_Task Management"><rect fill="none" height="729.6875" rx="7.8125" ry="7.8125" style="stroke:#000000;stroke-width:4.6875;" width="706.25" x="1384.375" y="153.125"/><text fill="#000000" font-family="sans-serif" font-size="37.5" font-weight="bold" lengthAdjust="spacing" textLength="328.125" x="1573.4375" y="198.3032">Task Management</text></g><!--class logseq--><g id="elem_logseq"><rect codeLine="26" fill="#FFFFFF" height="78.418" id="logseq" rx="7.8125" ry="7.8125" style="stroke:#000000;stroke-width:1.5625;" width="150" x="728.125" y="437.5"/><text fill="#000000" font-family="sans-serif" font-size="37.5" lengthAdjust="spacing" textLength="131.25" x="737.5" y="492.0532">Logseq</text></g><!--class coda--><g id="elem_coda"><rect codeLine="53" fill="#FFFFFF" height="78.418" id="coda" rx="7.8125" ry="7.8125" style="stroke:#000000;stroke-width:1.5625;" width="112.5" x="506.25" y="437.5"/><text fill="#000000" font-family="sans-serif" font-size="37.5" lengthAdjust="spacing" textLength="93.75" x="515.625" y="492.0532">Coda</text></g><!--class dynalist--><g id="elem_dynalist"><rect codeLine="54" fill="#FFFFFF" height="78.418" id="dynalist" rx="7.8125" ry="7.8125" style="stroke:#000000;stroke-width:1.5625;" width="156.25" x="71.875" y="259.375"/><text fill="#000000" font-family="sans-serif" font-size="37.5" lengthAdjust="spacing" textLength="137.5" x="81.25" y="313.9282">Dynalist</text></g><!--class googlekeep--><g id="elem_googlekeep"><rect codeLine="55" fill="#FFFFFF" height="78.418" id="googlekeep" rx="7.8125" ry="7.8125" style="stroke:#000000;stroke-width:1.5625;" width="243.75" x="337.5" y="259.375"/><text fill="#000000" font-family="sans-serif" font-size="37.5" lengthAdjust="spacing" textLength="225" x="346.875" y="313.9282">Google Keep</text></g><!--class workflowy--><g id="elem_workflowy"><rect codeLine="56" fill="#FFFFFF" height="78.418" id="workflowy" rx="7.8125" ry="7.8125" style="stroke:#000000;stroke-width:1.5625;" width="190.625" x="73.4375" y="437.5"/><text fill="#000000" font-family="sans-serif" font-size="37.5" lengthAdjust="spacing" textLength="171.875" x="82.8125" y="492.0532">Workflowy</text></g><!--class svg--><g id="elem_svg"><rect codeLine="28" fill="#FFFFFF" height="78.418" id="svg" rx="7.8125" ry="7.8125" style="stroke:#000000;stroke-width:1.5625;" width="93.75" x="743.75" y="754.6875"/><text fill="#000000" font-family="sans-serif" font-size="37.5" lengthAdjust="spacing" textLength="75" x="753.125" y="809.2407">SVG</text></g><!--class diagramsnet--><g id="elem_diagramsnet"><rect codeLine="29" fill="#FFFFFF" height="150.5859" id="diagramsnet" rx="7.8125" ry="7.8125" style="stroke:#000000;stroke-width:1.5625;" width="246.875" x="492.1875" y="1009.375"/><text fill="#000000" font-family="sans-serif" font-size="37.5" lengthAdjust="spacing" textLength="228.125" x="501.5625" y="1063.9282">diagrams.net</text><line style="stroke:#000000;stroke-width:1.5625;" x1="495.3125" x2="735.9375" y1="1087.793" y2="1087.793"/><text fill="#000000" font-family="sans-serif" font-size="37.5" lengthAdjust="spacing" textLength="196.875" x="510.9375" y="1139.2212">by VS Code</text></g><!--class excalidraw--><g id="elem_excalidraw"><rect codeLine="32" fill="#FFFFFF" height="150.5859" id="excalidraw" rx="7.8125" ry="7.8125" style="stroke:#000000;stroke-width:1.5625;" width="234.375" x="848.4375" y="1009.375"/><text fill="#000000" font-family="sans-serif" font-size="37.5" lengthAdjust="spacing" textLength="184.375" x="873.4375" y="1063.9282">Excalidraw</text><line style="stroke:#000000;stroke-width:1.5625;" x1="851.5625" x2="1079.6875" y1="1087.793" y2="1087.793"/><text fill="#000000" font-family="sans-serif" font-size="37.5" lengthAdjust="spacing" textLength="196.875" x="867.1875" y="1139.2212">by VS Code</text></g><!--class plantuml--><g id="elem_plantuml"><rect codeLine="35" fill="#FFFFFF" height="150.5859" id="plantuml" rx="7.8125" ry="7.8125" style="stroke:#000000;stroke-width:1.5625;" width="234.375" x="948.4375" y="718.75"/><text fill="#000000" font-family="sans-serif" font-size="37.5" lengthAdjust="spacing" textLength="175" x="978.125" y="773.3032">Plant UML</text><line style="stroke:#000000;stroke-width:1.5625;" x1="951.5625" x2="1179.6875" y1="797.168" y2="797.168"/><text fill="#000000" font-family="sans-serif" font-size="37.5" lengthAdjust="spacing" textLength="196.875" x="967.1875" y="848.5962">by VS Code</text></g><!--class affinity--><g id="elem_affinity"><rect codeLine="38" fill="#FFFFFF" height="244.9219" id="affinity" rx="7.8125" ry="7.8125" style="stroke:#000000;stroke-width:1.5625;" width="240.625" x="392.1875" y="671.875"/><text fill="#000000" font-family="sans-serif" font-size="37.5" lengthAdjust="spacing" textLength="106.25" x="459.375" y="726.4282">Affinity</text><line style="stroke:#000000;stroke-width:1.5625;" x1="395.3125" x2="629.6875" y1="750.293" y2="750.293"/><text fill="#000000" font-family="sans-serif" font-size="37.5" lengthAdjust="spacing" textLength="159.375" x="410.9375" y="801.7212">&#12539;Photos</text><text fill="#000000" font-family="sans-serif" font-size="37.5" lengthAdjust="spacing" textLength="196.875" x="410.9375" y="848.8892">&#12539;Designer</text><text fill="#000000" font-family="sans-serif" font-size="37.5" lengthAdjust="spacing" textLength="203.125" x="410.9375" y="896.0571">&#12539;Publisher</text></g><!--class googlesheets--><g id="elem_googlesheets"><rect codeLine="45" fill="#FFFFFF" height="78.418" id="googlesheets" rx="7.8125" ry="7.8125" style="stroke:#000000;stroke-width:1.5625;" width="275" x="478.125" y="1418.75"/><text fill="#000000" font-family="sans-serif" font-size="37.5" lengthAdjust="spacing" textLength="256.25" x="487.5" y="1473.3032">Google Sheets</text></g><!--class pdf--><g id="elem_pdf"><rect codeLine="48" fill="#FFFFFF" height="78.418" id="pdf" rx="7.8125" ry="7.8125" style="stroke:#000000;stroke-width:1.5625;" width="93.75" x="1090.625" y="259.375"/><text fill="#000000" font-family="sans-serif" font-size="37.5" lengthAdjust="spacing" textLength="75" x="1100" y="313.9282">PDF</text></g><!--class imagefiles--><g id="elem_imagefiles"><rect codeLine="51" fill="#FFFFFF" height="78.418" id="imagefiles" rx="7.8125" ry="7.8125" style="stroke:#000000;stroke-width:1.5625;" width="221.875" x="692.1875" y="259.375"/><text fill="#000000" font-family="sans-serif" font-size="37.5" lengthAdjust="spacing" textLength="203.125" x="701.5625" y="313.9282">Image Files</text></g><!--class obsidian--><g id="elem_obsidian"><rect codeLine="60" fill="#FFFFFF" height="78.418" id="obsidian" rx="7.8125" ry="7.8125" style="stroke:#000000;stroke-width:1.5625;" width="175" x="2437.5" y="259.375"/><text fill="#000000" font-family="sans-serif" font-size="37.5" lengthAdjust="spacing" textLength="156.25" x="2446.875" y="313.9282">Obsidian</text></g><!--class coda2--><g id="elem_coda2"><rect codeLine="61" fill="#FFFFFF" height="78.418" id="coda2" rx="7.8125" ry="7.8125" style="stroke:#000000;stroke-width:1.5625;" width="112.5" x="2215.625" y="259.375"/><text fill="#000000" font-family="sans-serif" font-size="37.5" lengthAdjust="spacing" textLength="93.75" x="2225" y="313.9282">Coda</text></g><!--class coda3--><g id="elem_coda3"><rect codeLine="65" fill="#FFFFFF" height="78.418" id="coda3" rx="7.8125" ry="7.8125" style="stroke:#000000;stroke-width:1.5625;" width="112.5" x="1668.75" y="437.5"/><text fill="#000000" font-family="sans-serif" font-size="37.5" lengthAdjust="spacing" textLength="93.75" x="1678.125" y="492.0532">Coda</text></g><!--class todoist--><g id="elem_todoist"><rect codeLine="66" fill="#FFFFFF" height="78.418" id="todoist" rx="7.8125" ry="7.8125" style="stroke:#000000;stroke-width:1.5625;" width="146.875" x="1892.1875" y="437.5"/><text fill="#000000" font-family="sans-serif" font-size="37.5" lengthAdjust="spacing" textLength="128.125" x="1901.5625" y="492.0532">Todoist</text></g><!--class googlecalendar--><g id="elem_googlecalendar"><rect codeLine="67" fill="#FFFFFF" height="78.418" id="googlecalendar" rx="7.8125" ry="7.8125" style="stroke:#000000;stroke-width:1.5625;" width="312.5" x="1581.25" y="259.375"/><text fill="#000000" font-family="sans-serif" font-size="37.5" lengthAdjust="spacing" textLength="293.75" x="1590.625" y="313.9282">Google Calendar</text></g><!--class gmail--><g id="elem_gmail"><rect codeLine="68" fill="#FFFFFF" height="78.418" id="gmail" rx="7.8125" ry="7.8125" style="stroke:#000000;stroke-width:1.5625;" width="121.875" x="1435.9375" y="437.5"/><text fill="#000000" font-family="sans-serif" font-size="37.5" lengthAdjust="spacing" textLength="103.125" x="1445.3125" y="492.0532">Gmail</text></g><!--class discord--><g id="elem_discord"><rect codeLine="69" fill="#FFFFFF" height="78.418" id="discord" rx="7.8125" ry="7.8125" style="stroke:#000000;stroke-width:1.5625;" width="153.125" x="1435.9375" y="754.6875"/><text fill="#000000" font-family="sans-serif" font-size="37.5" lengthAdjust="spacing" textLength="134.375" x="1445.3125" y="809.2407">Discord</text></g><!--reverse link logseq to svg--><g id="link_logseq_svg"><path codeLine="73" d="M800.9029,535.2974 C798.4967,595.1411 794.5,693.9688 792.0938,753.7812 " fill="none" id="logseq-backto-svg" style="stroke:#000000;stroke-width:3.125;"/><polygon fill="#000000" points="801.6562,516.5625,788.0364,544.1626,801.0285,532.1749,813.0162,545.167,801.6562,516.5625" style="stroke:#000000;stroke-width:3.125;"/></g><!--reverse link svg to plantuml--><g id="link_svg_plantuml"><path codeLine="74" d="M856.625,793.75 C893.4063,793.75 911.4375,793.75 948.1875,793.75 " fill="none" id="svg-backto-plantuml" style="stroke:#000000;stroke-width:3.125;"/><polygon fill="#000000" points="837.875,793.75,866,806.25,853.5,793.75,866,781.25,837.875,793.75" style="stroke:#000000;stroke-width:3.125;"/></g><!--reverse link svg to excalidraw--><g id="link_svg_excalidraw"><path codeLine="75" d="M822.6144,848.8709 C849.6769,892.8084 886.2187,952.1875 920.8125,1008.4063 " fill="none" id="svg-backto-excalidraw" style="stroke:#000000;stroke-width:3.125;"/><polygon fill="#000000" points="812.7812,832.9062,816.8879,863.4087,820.9756,846.2102,838.1741,850.2978,812.7812,832.9062" style="stroke:#000000;stroke-width:3.125;"/></g><!--reverse link svg to diagramsnet--><g id="link_svg_diagramsnet"><path codeLine="76" d="M758.6356,848.8709 C731.5731,892.8084 695.0313,952.1875 660.4375,1008.4063 " fill="none" id="svg-backto-diagramsnet" style="stroke:#000000;stroke-width:3.125;"/><polygon fill="#000000" points="768.4688,832.9062,743.0759,850.2978,760.2744,846.2102,764.3621,863.4087,768.4688,832.9062" style="stroke:#000000;stroke-width:3.125;"/></g><!--link affinity to svg--><g id="link_affinity_svg"><path codeLine="77" d="M633.0938,793.75 C669.5938,793.75 687.375,793.75 723.875,793.75 " fill="none" id="affinity-to-svg" style="stroke:#000000;stroke-width:3.125;"/><polygon fill="#000000" points="742.625,793.75,714.5,781.25,727,793.75,714.5,806.25,742.625,793.75" style="stroke:#000000;stroke-width:3.125;"/></g><!--reverse link diagramsnet to googlesheets--><g id="link_diagramsnet_googlesheets"><path codeLine="78" d="M615.625,1178.7813 C615.625,1256.5313 615.625,1358.0938 615.625,1418.0938 " fill="none" id="diagramsnet-backto-googlesheets" style="stroke:#000000;stroke-width:3.125;"/><polygon fill="#000000" points="615.625,1160.0313,603.125,1188.1563,615.625,1175.6563,628.125,1188.1563,615.625,1160.0313" style="stroke:#000000;stroke-width:3.125;"/></g><!--link pdf to logseq--><g id="link_pdf_logseq"><path codeLine="79" d="M1089.5313,336.5 C1055.9375,359.9688 1009.4063,390.4687 965.625,412.5 C937.9063,426.4375 923.8349,432.6963 895.8037,442.7588 " fill="none" id="pdf-to-logseq" style="stroke:#000000;stroke-width:3.125;"/><polygon fill="#000000" points="878.1563,449.0937,908.8507,451.3562,892.8624,443.8146,900.404,427.8264,878.1563,449.0937" style="stroke:#000000;stroke-width:3.125;"/></g><!--link imagefiles to logseq--><g id="link_imagefiles_logseq"><path codeLine="80" d="M803.125,338 C803.125,367.1875 803.125,389.125 803.125,418.2813 " fill="none" id="imagefiles-to-logseq" style="stroke:#000000;stroke-width:3.125;"/><polygon fill="#000000" points="803.125,437.0313,815.625,408.9063,803.125,421.4063,790.625,408.9063,803.125,437.0313" style="stroke:#000000;stroke-width:3.125;"/></g><!--link coda to logseq--><g id="link_coda_logseq"><path codeLine="81" d="M618.9063,476.5625 C654.875,476.5625 672.125,476.5625 708.0938,476.5625 " fill="none" id="coda-to-logseq" style="stroke:#000000;stroke-width:3.125;"/><polygon fill="#000000" points="726.8438,476.5625,698.7188,464.0625,711.2188,476.5625,698.7188,489.0625,726.8438,476.5625" style="stroke:#000000;stroke-width:3.125;"/></g><!--link googlecalendar to todoist--><g id="link_googlecalendar_todoist"><path codeLine="86" d="M1785.875,338 C1824.5938,367.1875 1878.625,407.875 1917.3125,437.0313 " fill="none" id="googlecalendar-todoist" style="stroke:#000000;stroke-width:3.125;"/></g><!--link googlecalendar to gmail--><g id="link_googlecalendar_gmail"><path codeLine="87" d="M1686.4687,338 C1645.625,367.1875 1603.913,396.9757 1563.1005,426.1319 " fill="none" id="googlecalendar-to-gmail" style="stroke:#000000;stroke-width:3.125;"/><polygon fill="#000000" points="1547.8438,437.0313,1577.995,430.8534,1560.5577,427.9485,1563.4626,410.5111,1547.8438,437.0313" style="stroke:#000000;stroke-width:3.125;"/></g><!--link gmail to discord--><g id="link_gmail_discord"><path codeLine="88" d="M1498.7188,516.5625 C1501.75,576.4063 1506.717,675.2423 1509.717,735.0548 " fill="none" id="gmail-to-discord" style="stroke:#000000;stroke-width:3.125;"/><polygon fill="#000000" points="1510.6563,753.7812,1521.7317,725.0654,1509.8735,738.1759,1496.7631,726.3177,1510.6563,753.7812" style="stroke:#000000;stroke-width:3.125;"/></g><!--reverse link coda3 to todoist--><g id="link_coda3_todoist"><path codeLine="89" d="M1800.1562,476.5625 C1836.5938,476.5625 1854.3125,476.5625 1890.7812,476.5625 " fill="none" id="coda3-backto-todoist" style="stroke:#000000;stroke-width:3.125;"/><polygon fill="#000000" points="1781.4062,476.5625,1809.5312,489.0625,1797.0312,476.5625,1809.5312,464.0625,1781.4062,476.5625" style="stroke:#000000;stroke-width:3.125;"/></g><!--SRC=[dLJ9Rjim4BthAmXVqXvSPBdqK1GexDWechG6dARdiJYI256aIb9ndCAdVbO_fpzIRfOfsRs4fvatZsyMBXMZI7AcSevPvMniMhCZ1KDETOeqQ2ffeKpNJBIWe24v1wt9hupOjO6yNYhP2JgJN2gohPZ1496AeWheXbkQHq4fkKt1VQhSMWHAZDhQx3WIXRa1KTew1zH8gO3ABHCbAO3ha5Y1g3MsvERIkxHbrhmyPd-eM5uBj2rS1G8Mq76paCAisGkIg-iZjmVVk-o7yYPVfK4zYJM4SKpkPAdnvuI09joRFjXlcIlPRkGpUVDjenbb8DvwAWrmK4hKrezB7zTFvJXaDvTs0lgTG1Cq8c1zSXJoPx0ZZsioanHxU3-MkttEWJEgOEl5i7TVeRNY80pvVd_dfLhdTGr_XT2dec22cPtNWUYCTFx-_hEgf95wZCvHirAWEc5t6yvqbGH2tltmf9PIsjj6veezeSzVUe0wdvmSL6IlAqIZ4xhsm3dzMx3XC6jddKgkveimFrgShMy7Bp9aSjRf_i-DuoqOnr0GStxXt4GkSkqnW2VbraW3yvsmzq376nOTafrs_WMnJVgkhPkoVaXL5rnkmr5k3zxWESt1m0OqZbxKuQNudJ8w_ot-UY3v0Beczo2iqw0m8-N1nfiqyY2fF7HjWdscvnbm51HKqdSUeG6x0SO3nrc3yJATsmyolbzlk_el_C-IXG-4V9XE_GVGFwHfzz43oIETTjE0fRz03_PF9_hftNGi2oVxZdcxgRzznvj373N-QsvevEXc5uVpi-PexjbmE5QbdweVIKWrcc28XDh2PE8UttyuCh_-0G00]--></g></svg>