<?xml version="1.0" encoding="us-ascii" standalone="no"?><svg xmlns="http://www.w3.org/2000/svg" xmlns:xlink="http://www.w3.org/1999/xlink" contentStyleType="text/css" height="1640.625px" preserveAspectRatio="none" style="width:2550px;height:1640px;background:#FFFFFF;" version="1.1" viewBox="0 0 2550 1640" width="2550px" zoomAndPan="magnify"><defs/><g><!--cluster Notes--><g id="cluster_Notes"><rect fill="none" height="1600" rx="7.8125" ry="7.8125" style="stroke:#000000;stroke-width:4.6875;" width="1156.25" x="21.875" y="21.875"/><text fill="#000000" font-family="sans-serif" font-size="37.5" font-weight="bold" lengthAdjust="spacing" textLength="103.125" x="548.4375" y="67.0532">Notes</text></g><!--cluster dropbox--><g id="cluster_dropbox"><rect fill="none" height="643.75" rx="7.8125" ry="7.8125" style="stroke:#000000;stroke-width:4.6875;" width="893.75" x="209.375" y="565.625"/><text fill="#000000" font-family="sans-serif" font-size="37.5" font-weight="bold" lengthAdjust="spacing" textLength="340.625" x="485.9375" y="610.8032">Dropbox (Obsidian)</text></g><!--cluster googledrive--><g id="cluster_googledrive"><rect fill="none" height="234.375" rx="7.8125" ry="7.8125" style="stroke:#000000;stroke-width:4.6875;" width="375" x="296.875" y="1312.5"/><text fill="#000000" font-family="sans-serif" font-size="37.5" font-weight="bold" lengthAdjust="spacing" textLength="221.875" x="373.4375" y="1357.6782">Google Drive</text></g><!--cluster eagle--><g id="cluster_eagle"><rect fill="none" height="234.375" rx="7.8125" ry="7.8125" style="stroke:#000000;stroke-width:4.6875;" width="193.75" x="909.375" y="153.125"/><text fill="#000000" font-family="sans-serif" font-size="37.5" font-weight="bold" lengthAdjust="spacing" textLength="96.875" x="957.8125" y="198.3032">Eagle</text></g><!--cluster gyazo--><g id="cluster_gyazo"><rect fill="none" height="234.375" rx="7.8125" ry="7.8125" style="stroke:#000000;stroke-width:4.6875;" width="325" x="509.375" y="153.125"/><text fill="#000000" font-family="sans-serif" font-size="37.5" font-weight="bold" lengthAdjust="spacing" textLength="106.25" x="618.75" y="198.3032">Gyazo</text></g><!--cluster Database--><g id="cluster_Database"><rect fill="none" height="234.375" rx="7.8125" ry="7.8125" style="stroke:#000000;stroke-width:4.6875;" width="496.875" x="2034.375" y="153.125"/><text fill="#000000" font-family="sans-serif" font-size="37.5" font-weight="bold" lengthAdjust="spacing" textLength="168.75" x="2198.4375" y="198.3032">Database</text></g><!--cluster Task Management--><g id="cluster_Task Management"><rect fill="none" height="729.6875" rx="7.8125" ry="7.8125" style="stroke:#000000;stroke-width:4.6875;" width="706.25" x="1253.125" y="153.125"/><text fill="#000000" font-family="sans-serif" font-size="37.5" font-weight="bold" lengthAdjust="spacing" textLength="328.125" x="1442.1875" y="198.3032">Task Management</text></g><!--class test 2--><g id="elem_test 2"><rect codeLine="26" fill="#FFFFFF" height="78.418" id="test 2" rx="7.8125" ry="7.8125" style="stroke:#000000;stroke-width:1.5625;" width="112.5" x="71.875" y="259.375"/><text fill="#000000" font-family="sans-serif" font-size="37.5" lengthAdjust="spacing" textLength="93.75" x="81.25" y="313.9282">test 2</text></g><!--class logseq--><g id="elem_logseq"><rect codeLine="27" fill="#FFFFFF" height="78.418" id="logseq" rx="7.8125" ry="7.8125" style="stroke:#000000;stroke-width:1.5625;" width="150" x="950" y="437.5"/><text fill="#000000" font-family="sans-serif" font-size="37.5" lengthAdjust="spacing" textLength="131.25" x="959.375" y="492.0532">Logseq</text></g><!--class coda--><g id="elem_coda"><rect codeLine="54" fill="#FFFFFF" height="78.418" id="coda" rx="7.8125" ry="7.8125" style="stroke:#000000;stroke-width:1.5625;" width="112.5" x="728.125" y="437.5"/><text fill="#000000" font-family="sans-serif" font-size="37.5" lengthAdjust="spacing" textLength="93.75" x="737.5" y="492.0532">Coda</text></g><!--class dynalist--><g id="elem_dynalist"><rect codeLine="55" fill="#FFFFFF" height="78.418" id="dynalist" rx="7.8125" ry="7.8125" style="stroke:#000000;stroke-width:1.5625;" width="156.25" x="293.75" y="259.375"/><text fill="#000000" font-family="sans-serif" font-size="37.5" lengthAdjust="spacing" textLength="137.5" x="303.125" y="313.9282">Dynalist</text></g><!--class googlekeep--><g id="elem_googlekeep"><rect codeLine="56" fill="#FFFFFF" height="78.418" id="googlekeep" rx="7.8125" ry="7.8125" style="stroke:#000000;stroke-width:1.5625;" width="243.75" x="71.875" y="437.5"/><text fill="#000000" font-family="sans-serif" font-size="37.5" lengthAdjust="spacing" textLength="225" x="81.25" y="492.0532">Google Keep</text></g><!--class workflowy--><g id="elem_workflowy"><rect codeLine="57" fill="#FFFFFF" height="78.418" id="workflowy" rx="7.8125" ry="7.8125" style="stroke:#000000;stroke-width:1.5625;" width="190.625" x="426.5625" y="437.5"/><text fill="#000000" font-family="sans-serif" font-size="37.5" lengthAdjust="spacing" textLength="171.875" x="435.9375" y="492.0532">Workflowy</text></g><!--class svg--><g id="elem_svg"><rect codeLine="29" fill="#FFFFFF" height="78.418" id="svg" rx="7.8125" ry="7.8125" style="stroke:#000000;stroke-width:1.5625;" width="93.75" x="612.5" y="754.6875"/><text fill="#000000" font-family="sans-serif" font-size="37.5" lengthAdjust="spacing" textLength="75" x="621.875" y="809.2407">SVG</text></g><!--class diagramsnet--><g id="elem_diagramsnet"><rect codeLine="30" fill="#FFFFFF" height="150.5859" id="diagramsnet" rx="7.8125" ry="7.8125" style="stroke:#000000;stroke-width:1.5625;" width="246.875" x="360.9375" y="1009.375"/><text fill="#000000" font-family="sans-serif" font-size="37.5" lengthAdjust="spacing" textLength="228.125" x="370.3125" y="1063.9282">diagrams.net</text><line style="stroke:#000000;stroke-width:1.5625;" x1="364.0625" x2="604.6875" y1="1087.793" y2="1087.793"/><text fill="#000000" font-family="sans-serif" font-size="37.5" lengthAdjust="spacing" textLength="196.875" x="379.6875" y="1139.2212">by VS Code</text></g><!--class excalidraw--><g id="elem_excalidraw"><rect codeLine="33" fill="#FFFFFF" height="150.5859" id="excalidraw" rx="7.8125" ry="7.8125" style="stroke:#000000;stroke-width:1.5625;" width="234.375" x="717.1875" y="1009.375"/><text fill="#000000" font-family="sans-serif" font-size="37.5" lengthAdjust="spacing" textLength="184.375" x="742.1875" y="1063.9282">Excalidraw</text><line style="stroke:#000000;stroke-width:1.5625;" x1="720.3125" x2="948.4375" y1="1087.793" y2="1087.793"/><text fill="#000000" font-family="sans-serif" font-size="37.5" lengthAdjust="spacing" textLength="196.875" x="735.9375" y="1139.2212">by VS Code</text></g><!--class plantuml--><g id="elem_plantuml"><rect codeLine="36" fill="#FFFFFF" height="150.5859" id="plantuml" rx="7.8125" ry="7.8125" style="stroke:#000000;stroke-width:1.5625;" width="234.375" x="817.1875" y="718.75"/><text fill="#000000" font-family="sans-serif" font-size="37.5" lengthAdjust="spacing" textLength="175" x="846.875" y="773.3032">Plant UML</text><line style="stroke:#000000;stroke-width:1.5625;" x1="820.3125" x2="1048.4375" y1="797.168" y2="797.168"/><text fill="#000000" font-family="sans-serif" font-size="37.5" lengthAdjust="spacing" textLength="196.875" x="835.9375" y="848.5962">by VS Code</text></g><!--class affinity--><g id="elem_affinity"><rect codeLine="39" fill="#FFFFFF" height="244.9219" id="affinity" rx="7.8125" ry="7.8125" style="stroke:#000000;stroke-width:1.5625;" width="240.625" x="260.9375" y="671.875"/><text fill="#000000" font-family="sans-serif" font-size="37.5" lengthAdjust="spacing" textLength="106.25" x="328.125" y="726.4282">Affinity</text><line style="stroke:#000000;stroke-width:1.5625;" x1="264.0625" x2="498.4375" y1="750.293" y2="750.293"/><text fill="#000000" font-family="sans-serif" font-size="37.5" lengthAdjust="spacing" textLength="159.375" x="279.6875" y="801.7212">&#12539;Photos</text><text fill="#000000" font-family="sans-serif" font-size="37.5" lengthAdjust="spacing" textLength="196.875" x="279.6875" y="848.8892">&#12539;Designer</text><text fill="#000000" font-family="sans-serif" font-size="37.5" lengthAdjust="spacing" textLength="203.125" x="279.6875" y="896.0571">&#12539;Publisher</text></g><!--class googlesheets--><g id="elem_googlesheets"><rect codeLine="46" fill="#FFFFFF" height="78.418" id="googlesheets" rx="7.8125" ry="7.8125" style="stroke:#000000;stroke-width:1.5625;" width="275" x="346.875" y="1418.75"/><text fill="#000000" font-family="sans-serif" font-size="37.5" lengthAdjust="spacing" textLength="256.25" x="356.25" y="1473.3032">Google Sheets</text></g><!--class pdf--><g id="elem_pdf"><rect codeLine="49" fill="#FFFFFF" height="78.418" id="pdf" rx="7.8125" ry="7.8125" style="stroke:#000000;stroke-width:1.5625;" width="93.75" x="959.375" y="259.375"/><text fill="#000000" font-family="sans-serif" font-size="37.5" lengthAdjust="spacing" textLength="75" x="968.75" y="313.9282">PDF</text></g><!--class imagefiles--><g id="elem_imagefiles"><rect codeLine="52" fill="#FFFFFF" height="78.418" id="imagefiles" rx="7.8125" ry="7.8125" style="stroke:#000000;stroke-width:1.5625;" width="221.875" x="560.9375" y="259.375"/><text fill="#000000" font-family="sans-serif" font-size="37.5" lengthAdjust="spacing" textLength="203.125" x="570.3125" y="313.9282">Image Files</text></g><!--class obsidian--><g id="elem_obsidian"><rect codeLine="61" fill="#FFFFFF" height="78.418" id="obsidian" rx="7.8125" ry="7.8125" style="stroke:#000000;stroke-width:1.5625;" width="175" x="2306.25" y="259.375"/><text fill="#000000" font-family="sans-serif" font-size="37.5" lengthAdjust="spacing" textLength="156.25" x="2315.625" y="313.9282">Obsidian</text></g><!--class coda2--><g id="elem_coda2"><rect codeLine="62" fill="#FFFFFF" height="78.418" id="coda2" rx="7.8125" ry="7.8125" style="stroke:#000000;stroke-width:1.5625;" width="112.5" x="2084.375" y="259.375"/><text fill="#000000" font-family="sans-serif" font-size="37.5" lengthAdjust="spacing" textLength="93.75" x="2093.75" y="313.9282">Coda</text></g><!--class coda3--><g id="elem_coda3"><rect codeLine="66" fill="#FFFFFF" height="78.418" id="coda3" rx="7.8125" ry="7.8125" style="stroke:#000000;stroke-width:1.5625;" width="112.5" x="1537.5" y="437.5"/><text fill="#000000" font-family="sans-serif" font-size="37.5" lengthAdjust="spacing" textLength="93.75" x="1546.875" y="492.0532">Coda</text></g><!--class todoist--><g id="elem_todoist"><rect codeLine="67" fill="#FFFFFF" height="78.418" id="todoist" rx="7.8125" ry="7.8125" style="stroke:#000000;stroke-width:1.5625;" width="146.875" x="1760.9375" y="437.5"/><text fill="#000000" font-family="sans-serif" font-size="37.5" lengthAdjust="spacing" textLength="128.125" x="1770.3125" y="492.0532">Todoist</text></g><!--class googlecalendar--><g id="elem_googlecalendar"><rect codeLine="68" fill="#FFFFFF" height="78.418" id="googlecalendar" rx="7.8125" ry="7.8125" style="stroke:#000000;stroke-width:1.5625;" width="312.5" x="1450" y="259.375"/><text fill="#000000" font-family="sans-serif" font-size="37.5" lengthAdjust="spacing" textLength="293.75" x="1459.375" y="313.9282">Google Calendar</text></g><!--class gmail--><g id="elem_gmail"><rect codeLine="69" fill="#FFFFFF" height="78.418" id="gmail" rx="7.8125" ry="7.8125" style="stroke:#000000;stroke-width:1.5625;" width="121.875" x="1304.6875" y="437.5"/><text fill="#000000" font-family="sans-serif" font-size="37.5" lengthAdjust="spacing" textLength="103.125" x="1314.0625" y="492.0532">Gmail</text></g><!--class discord--><g id="elem_discord"><rect codeLine="70" fill="#FFFFFF" height="78.418" id="discord" rx="7.8125" ry="7.8125" style="stroke:#000000;stroke-width:1.5625;" width="153.125" x="1304.6875" y="754.6875"/><text fill="#000000" font-family="sans-serif" font-size="37.5" lengthAdjust="spacing" textLength="134.375" x="1314.0625" y="809.2407">Discord</text></g><!--reverse link logseq to svg--><g id="link_logseq_svg"><path codeLine="74" d="M931.3422,507.1188 C914.1547,511.9001 913.9688,511.6563 896.875,515.625 C837.7188,529.4063 809.6562,502.3438 762.5,540.625 C695.7813,594.7813 671.75,699.25 663.4688,754.4375 " fill="none" id="logseq-backto-svg" style="stroke:#000000;stroke-width:3.125;"/><polygon fill="#000000" points="949.4063,502.0938,918.9601,497.5887,934.3529,506.2813,925.6602,521.6741,949.4063,502.0938" style="stroke:#000000;stroke-width:3.125;"/></g><!--reverse link svg to plantuml--><g id="link_svg_plantuml"><path codeLine="75" d="M725.375,793.75 C762.1563,793.75 780.1875,793.75 816.9375,793.75 " fill="none" id="svg-backto-plantuml" style="stroke:#000000;stroke-width:3.125;"/><polygon fill="#000000" points="706.625,793.75,734.75,806.25,722.25,793.75,734.75,781.25,706.625,793.75" style="stroke:#000000;stroke-width:3.125;"/></g><!--reverse link svg to excalidraw--><g id="link_svg_excalidraw"><path codeLine="76" d="M691.3644,848.8709 C718.4269,892.8084 754.9688,952.1875 789.5625,1008.4063 " fill="none" id="svg-backto-excalidraw" style="stroke:#000000;stroke-width:3.125;"/><polygon fill="#000000" points="681.5313,832.9062,685.6379,863.4087,689.7256,846.2102,706.9241,850.2978,681.5313,832.9062" style="stroke:#000000;stroke-width:3.125;"/></g><!--reverse link svg to diagramsnet--><g id="link_svg_diagramsnet"><path codeLine="77" d="M627.3856,848.8709 C600.3231,892.8084 563.7813,952.1875 529.1875,1008.4063 " fill="none" id="svg-backto-diagramsnet" style="stroke:#000000;stroke-width:3.125;"/><polygon fill="#000000" points="637.2188,832.9062,611.8259,850.2978,629.0244,846.2102,633.1121,863.4087,637.2188,832.9062" style="stroke:#000000;stroke-width:3.125;"/></g><!--link affinity to svg--><g id="link_affinity_svg"><path codeLine="78" d="M501.8438,793.75 C538.3438,793.75 556.125,793.75 592.625,793.75 " fill="none" id="affinity-to-svg" style="stroke:#000000;stroke-width:3.125;"/><polygon fill="#000000" points="611.375,793.75,583.25,781.25,595.75,793.75,583.25,806.25,611.375,793.75" style="stroke:#000000;stroke-width:3.125;"/></g><!--reverse link diagramsnet to googlesheets--><g id="link_diagramsnet_googlesheets"><path codeLine="79" d="M484.375,1178.7813 C484.375,1256.5313 484.375,1358.0938 484.375,1418.0938 " fill="none" id="diagramsnet-backto-googlesheets" style="stroke:#000000;stroke-width:3.125;"/><polygon fill="#000000" points="484.375,1160.0313,471.875,1188.1563,484.375,1175.6563,496.875,1188.1563,484.375,1160.0313" style="stroke:#000000;stroke-width:3.125;"/></g><!--link pdf to logseq--><g id="link_pdf_logseq"><path codeLine="80" d="M1010.2188,338 C1013.4063,367.1875 1015.8061,389.2361 1018.9936,418.3923 " fill="none" id="pdf-to-logseq" style="stroke:#000000;stroke-width:3.125;"/><polygon fill="#000000" points="1021.0313,437.0313,1030.4007,407.7144,1019.3332,421.4988,1005.5487,410.4313,1021.0313,437.0313" style="stroke:#000000;stroke-width:3.125;"/></g><!--link imagefiles to logseq--><g id="link_imagefiles_logseq"><path codeLine="81" d="M745.9063,337.5937 C806.1563,366.9375 873.9884,399.9116 934.2071,429.2554 " fill="none" id="imagefiles-to-logseq" style="stroke:#000000;stroke-width:3.125;"/><polygon fill="#000000" points="951.0625,437.4688,931.2551,413.9118,937.0164,430.6243,920.3039,436.3856,951.0625,437.4688" style="stroke:#000000;stroke-width:3.125;"/></g><!--link coda to logseq--><g id="link_coda_logseq"><path codeLine="82" d="M840.7813,476.5625 C876.75,476.5625 894,476.5625 929.9687,476.5625 " fill="none" id="coda-to-logseq" style="stroke:#000000;stroke-width:3.125;"/><polygon fill="#000000" points="948.7187,476.5625,920.5937,464.0625,933.0937,476.5625,920.5937,489.0625,948.7187,476.5625" style="stroke:#000000;stroke-width:3.125;"/></g><!--link googlecalendar to todoist--><g id="link_googlecalendar_todoist"><path codeLine="87" d="M1654.625,338 C1693.3438,367.1875 1747.375,407.875 1786.0625,437.0313 " fill="none" id="googlecalendar-todoist" style="stroke:#000000;stroke-width:3.125;"/></g><!--link googlecalendar to gmail--><g id="link_googlecalendar_gmail"><path codeLine="88" d="M1555.2188,338 C1514.375,367.1875 1472.663,396.9757 1431.8505,426.1319 " fill="none" id="googlecalendar-to-gmail" style="stroke:#000000;stroke-width:3.125;"/><polygon fill="#000000" points="1416.5938,437.0313,1446.745,430.8534,1429.3077,427.9485,1432.2126,410.5111,1416.5938,437.0313" style="stroke:#000000;stroke-width:3.125;"/></g><!--link gmail to discord--><g id="link_gmail_discord"><path codeLine="89" d="M1367.4688,516.5625 C1370.5,576.4063 1375.467,675.2423 1378.467,735.0548 " fill="none" id="gmail-to-discord" style="stroke:#000000;stroke-width:3.125;"/><polygon fill="#000000" points="1379.4063,753.7812,1390.4817,725.0654,1378.6235,738.1759,1365.5131,726.3177,1379.4063,753.7812" style="stroke:#000000;stroke-width:3.125;"/></g><!--reverse link coda3 to todoist--><g id="link_coda3_todoist"><path codeLine="90" d="M1668.9062,476.5625 C1705.3438,476.5625 1723.0625,476.5625 1759.5312,476.5625 " fill="none" id="coda3-backto-todoist" style="stroke:#000000;stroke-width:3.125;"/><polygon fill="#000000" points="1650.1562,476.5625,1678.2812,489.0625,1665.7812,476.5625,1678.2812,464.0625,1650.1562,476.5625" style="stroke:#000000;stroke-width:3.125;"/></g><!--SRC=[dLHBRjim4Dth58GtQHSk4cVJHL6Wi6EZQD8QS9gkn-988aIHAad5SOgiUgmUfnSfVvOfsTs4gvatZsy-_5IC8icPoZbcbREnQSsU50mvrIdIeAcaXJ9TCz62WeRa7BGclp9YrnRoUgLa9-XSSgd8hc86GqGgYYgWMsvf7WMbv2u5NrBbrY9GOjJMPi-HACmDYDBMEQ16IWLKxfWeIG5SXyGAHAsn9TUNtgKji-RbCVjznV9Qe6tXAX2mW8wRfHHcmvwHNCsEt1vyxx8VofjybGRr9DOGnZ6nY26pIGhTobBZpma1JRWtVR1NMIZPRkKJUVDjgnbb8DvwAWrm44_KDWyh7zUFvJXaDvTsAFgTG1Cq8c1zSXJonx8d3niobnHx-6KiT_EK0sTKmSwBOU- -GclDGHZo_UxMIxNEwnh-2g5FHS44Ctkl0z4PwVpz_MTTIIFr65sWPgL0TSBkjfpfAWc4l2_3arf9QIyWMIZsY3v_wG7gV79oK96zgH2DJkZQ0-VqRy26mwoTTIgvNYp3_6XnjhuzFCkGoLcd-pytZhTa74D1pFc5SnEvoBN709wKMoCDBFR2tWCTRrXqI7RQ-HV4DkcxjcxA-Y5LNN2v2qUvEtY35xO00rlGE7faXvVYTyhe_BVusK3o7dHDxa1Ofq5XHig3ZTTfv5vIUUZQ1FjCptFWA2YefEyyGWDs0um7ZhC6usKwjtzcVB_UTlLV-Cyc2ny8-J2T-W-WVqZJxgC7aaSwxQO1It-17koVJlJJk-bO5axs7VDsKt_xZZU7E6hyrzpGoD7DBWxdPytHtBFXSAnAFrK_af1gDC4G2RM5oSGzllzmP7xz0m00]--></g></svg>