<?xml version="1.0" encoding="us-ascii" standalone="no"?><svg xmlns="http://www.w3.org/2000/svg" xmlns:xlink="http://www.w3.org/1999/xlink" contentStyleType="text/css" height="1640.625px" preserveAspectRatio="none" style="width:2521px;height:1640px;background:#FFFFFF;" version="1.1" viewBox="0 0 2521 1640" width="2521.875px" zoomAndPan="magnify"><defs/><g><!--cluster Notes--><g id="cluster_Notes"><rect fill="none" height="1600" rx="7.8125" ry="7.8125" style="stroke:#000000;stroke-width:4.6875;" width="1128.125" x="21.875" y="21.875"/><text fill="#000000" font-family="sans-serif" font-size="37.5" font-weight="bold" lengthAdjust="spacing" textLength="103.125" x="534.375" y="67.0532">Notes</text></g><!--cluster dropbox--><g id="cluster_dropbox"><rect fill="none" height="643.75" rx="7.8125" ry="7.8125" style="stroke:#000000;stroke-width:4.6875;" width="893.75" x="181.25" y="565.625"/><text fill="#000000" font-family="sans-serif" font-size="37.5" font-weight="bold" lengthAdjust="spacing" textLength="340.625" x="457.8125" y="610.8032">Dropbox (Obsidian)</text></g><!--cluster googledrive--><g id="cluster_googledrive"><rect fill="none" height="234.375" rx="7.8125" ry="7.8125" style="stroke:#000000;stroke-width:4.6875;" width="375" x="268.75" y="1312.5"/><text fill="#000000" font-family="sans-serif" font-size="37.5" font-weight="bold" lengthAdjust="spacing" textLength="221.875" x="345.3125" y="1357.6782">Google Drive</text></g><!--cluster eagle--><g id="cluster_eagle"><rect fill="none" height="234.375" rx="7.8125" ry="7.8125" style="stroke:#000000;stroke-width:4.6875;" width="193.75" x="881.25" y="153.125"/><text fill="#000000" font-family="sans-serif" font-size="37.5" font-weight="bold" lengthAdjust="spacing" textLength="96.875" x="929.6875" y="198.3032">Eagle</text></g><!--cluster gyazo--><g id="cluster_gyazo"><rect fill="none" height="234.375" rx="7.8125" ry="7.8125" style="stroke:#000000;stroke-width:4.6875;" width="325" x="481.25" y="153.125"/><text fill="#000000" font-family="sans-serif" font-size="37.5" font-weight="bold" lengthAdjust="spacing" textLength="106.25" x="590.625" y="198.3032">Gyazo</text></g><!--cluster Database--><g id="cluster_Database"><rect fill="none" height="234.375" rx="7.8125" ry="7.8125" style="stroke:#000000;stroke-width:4.6875;" width="496.875" x="2006.25" y="153.125"/><text fill="#000000" font-family="sans-serif" font-size="37.5" font-weight="bold" lengthAdjust="spacing" textLength="168.75" x="2170.3125" y="198.3032">Database</text></g><!--cluster Task Management--><g id="cluster_Task Management"><rect fill="none" height="729.6875" rx="7.8125" ry="7.8125" style="stroke:#000000;stroke-width:4.6875;" width="706.25" x="1225" y="153.125"/><text fill="#000000" font-family="sans-serif" font-size="37.5" font-weight="bold" lengthAdjust="spacing" textLength="328.125" x="1414.0625" y="198.3032">Task Management</text></g><!--class test--><g id="elem_test"><rect codeLine="26" fill="#FFFFFF" height="78.418" id="test" rx="7.8125" ry="7.8125" style="stroke:#000000;stroke-width:1.5625;" width="81.25" x="75" y="259.375"/><text fill="#000000" font-family="sans-serif" font-size="37.5" lengthAdjust="spacing" textLength="62.5" x="84.375" y="313.9282">test</text></g><!--class logseq--><g id="elem_logseq"><rect codeLine="27" fill="#FFFFFF" height="78.418" id="logseq" rx="7.8125" ry="7.8125" style="stroke:#000000;stroke-width:1.5625;" width="150" x="950" y="437.5"/><text fill="#000000" font-family="sans-serif" font-size="37.5" lengthAdjust="spacing" textLength="131.25" x="959.375" y="492.0532">Logseq</text></g><!--class coda--><g id="elem_coda"><rect codeLine="54" fill="#FFFFFF" height="78.418" id="coda" rx="7.8125" ry="7.8125" style="stroke:#000000;stroke-width:1.5625;" width="112.5" x="728.125" y="437.5"/><text fill="#000000" font-family="sans-serif" font-size="37.5" lengthAdjust="spacing" textLength="93.75" x="737.5" y="492.0532">Coda</text></g><!--class dynalist--><g id="elem_dynalist"><rect codeLine="55" fill="#FFFFFF" height="78.418" id="dynalist" rx="7.8125" ry="7.8125" style="stroke:#000000;stroke-width:1.5625;" width="156.25" x="265.625" y="259.375"/><text fill="#000000" font-family="sans-serif" font-size="37.5" lengthAdjust="spacing" textLength="137.5" x="275" y="313.9282">Dynalist</text></g><!--class googlekeep--><g id="elem_googlekeep"><rect codeLine="56" fill="#FFFFFF" height="78.418" id="googlekeep" rx="7.8125" ry="7.8125" style="stroke:#000000;stroke-width:1.5625;" width="243.75" x="71.875" y="437.5"/><text fill="#000000" font-family="sans-serif" font-size="37.5" lengthAdjust="spacing" textLength="225" x="81.25" y="492.0532">Google Keep</text></g><!--class workflowy--><g id="elem_workflowy"><rect codeLine="57" fill="#FFFFFF" height="78.418" id="workflowy" rx="7.8125" ry="7.8125" style="stroke:#000000;stroke-width:1.5625;" width="190.625" x="426.5625" y="437.5"/><text fill="#000000" font-family="sans-serif" font-size="37.5" lengthAdjust="spacing" textLength="171.875" x="435.9375" y="492.0532">Workflowy</text></g><!--class svg--><g id="elem_svg"><rect codeLine="29" fill="#FFFFFF" height="78.418" id="svg" rx="7.8125" ry="7.8125" style="stroke:#000000;stroke-width:1.5625;" width="93.75" x="584.375" y="754.6875"/><text fill="#000000" font-family="sans-serif" font-size="37.5" lengthAdjust="spacing" textLength="75" x="593.75" y="809.2407">SVG</text></g><!--class diagramsnet--><g id="elem_diagramsnet"><rect codeLine="30" fill="#FFFFFF" height="150.5859" id="diagramsnet" rx="7.8125" ry="7.8125" style="stroke:#000000;stroke-width:1.5625;" width="246.875" x="332.8125" y="1009.375"/><text fill="#000000" font-family="sans-serif" font-size="37.5" lengthAdjust="spacing" textLength="228.125" x="342.1875" y="1063.9282">diagrams.net</text><line style="stroke:#000000;stroke-width:1.5625;" x1="335.9375" x2="576.5625" y1="1087.793" y2="1087.793"/><text fill="#000000" font-family="sans-serif" font-size="37.5" lengthAdjust="spacing" textLength="196.875" x="351.5625" y="1139.2212">by VS Code</text></g><!--class excalidraw--><g id="elem_excalidraw"><rect codeLine="33" fill="#FFFFFF" height="150.5859" id="excalidraw" rx="7.8125" ry="7.8125" style="stroke:#000000;stroke-width:1.5625;" width="234.375" x="689.0625" y="1009.375"/><text fill="#000000" font-family="sans-serif" font-size="37.5" lengthAdjust="spacing" textLength="184.375" x="714.0625" y="1063.9282">Excalidraw</text><line style="stroke:#000000;stroke-width:1.5625;" x1="692.1875" x2="920.3125" y1="1087.793" y2="1087.793"/><text fill="#000000" font-family="sans-serif" font-size="37.5" lengthAdjust="spacing" textLength="196.875" x="707.8125" y="1139.2212">by VS Code</text></g><!--class plantuml--><g id="elem_plantuml"><rect codeLine="36" fill="#FFFFFF" height="150.5859" id="plantuml" rx="7.8125" ry="7.8125" style="stroke:#000000;stroke-width:1.5625;" width="234.375" x="789.0625" y="718.75"/><text fill="#000000" font-family="sans-serif" font-size="37.5" lengthAdjust="spacing" textLength="175" x="818.75" y="773.3032">Plant UML</text><line style="stroke:#000000;stroke-width:1.5625;" x1="792.1875" x2="1020.3125" y1="797.168" y2="797.168"/><text fill="#000000" font-family="sans-serif" font-size="37.5" lengthAdjust="spacing" textLength="196.875" x="807.8125" y="848.5962">by VS Code</text></g><!--class affinity--><g id="elem_affinity"><rect codeLine="39" fill="#FFFFFF" height="244.9219" id="affinity" rx="7.8125" ry="7.8125" style="stroke:#000000;stroke-width:1.5625;" width="240.625" x="232.8125" y="671.875"/><text fill="#000000" font-family="sans-serif" font-size="37.5" lengthAdjust="spacing" textLength="106.25" x="300" y="726.4282">Affinity</text><line style="stroke:#000000;stroke-width:1.5625;" x1="235.9375" x2="470.3125" y1="750.293" y2="750.293"/><text fill="#000000" font-family="sans-serif" font-size="37.5" lengthAdjust="spacing" textLength="159.375" x="251.5625" y="801.7212">&#12539;Photos</text><text fill="#000000" font-family="sans-serif" font-size="37.5" lengthAdjust="spacing" textLength="196.875" x="251.5625" y="848.8892">&#12539;Designer</text><text fill="#000000" font-family="sans-serif" font-size="37.5" lengthAdjust="spacing" textLength="203.125" x="251.5625" y="896.0571">&#12539;Publisher</text></g><!--class googlesheets--><g id="elem_googlesheets"><rect codeLine="46" fill="#FFFFFF" height="78.418" id="googlesheets" rx="7.8125" ry="7.8125" style="stroke:#000000;stroke-width:1.5625;" width="275" x="318.75" y="1418.75"/><text fill="#000000" font-family="sans-serif" font-size="37.5" lengthAdjust="spacing" textLength="256.25" x="328.125" y="1473.3032">Google Sheets</text></g><!--class pdf--><g id="elem_pdf"><rect codeLine="49" fill="#FFFFFF" height="78.418" id="pdf" rx="7.8125" ry="7.8125" style="stroke:#000000;stroke-width:1.5625;" width="93.75" x="931.25" y="259.375"/><text fill="#000000" font-family="sans-serif" font-size="37.5" lengthAdjust="spacing" textLength="75" x="940.625" y="313.9282">PDF</text></g><!--class imagefiles--><g id="elem_imagefiles"><rect codeLine="52" fill="#FFFFFF" height="78.418" id="imagefiles" rx="7.8125" ry="7.8125" style="stroke:#000000;stroke-width:1.5625;" width="221.875" x="532.8125" y="259.375"/><text fill="#000000" font-family="sans-serif" font-size="37.5" lengthAdjust="spacing" textLength="203.125" x="542.1875" y="313.9282">Image Files</text></g><!--class obsidian--><g id="elem_obsidian"><rect codeLine="61" fill="#FFFFFF" height="78.418" id="obsidian" rx="7.8125" ry="7.8125" style="stroke:#000000;stroke-width:1.5625;" width="175" x="2278.125" y="259.375"/><text fill="#000000" font-family="sans-serif" font-size="37.5" lengthAdjust="spacing" textLength="156.25" x="2287.5" y="313.9282">Obsidian</text></g><!--class coda2--><g id="elem_coda2"><rect codeLine="62" fill="#FFFFFF" height="78.418" id="coda2" rx="7.8125" ry="7.8125" style="stroke:#000000;stroke-width:1.5625;" width="112.5" x="2056.25" y="259.375"/><text fill="#000000" font-family="sans-serif" font-size="37.5" lengthAdjust="spacing" textLength="93.75" x="2065.625" y="313.9282">Coda</text></g><!--class coda3--><g id="elem_coda3"><rect codeLine="66" fill="#FFFFFF" height="78.418" id="coda3" rx="7.8125" ry="7.8125" style="stroke:#000000;stroke-width:1.5625;" width="112.5" x="1509.375" y="437.5"/><text fill="#000000" font-family="sans-serif" font-size="37.5" lengthAdjust="spacing" textLength="93.75" x="1518.75" y="492.0532">Coda</text></g><!--class todoist--><g id="elem_todoist"><rect codeLine="67" fill="#FFFFFF" height="78.418" id="todoist" rx="7.8125" ry="7.8125" style="stroke:#000000;stroke-width:1.5625;" width="146.875" x="1732.8125" y="437.5"/><text fill="#000000" font-family="sans-serif" font-size="37.5" lengthAdjust="spacing" textLength="128.125" x="1742.1875" y="492.0532">Todoist</text></g><!--class googlecalendar--><g id="elem_googlecalendar"><rect codeLine="68" fill="#FFFFFF" height="78.418" id="googlecalendar" rx="7.8125" ry="7.8125" style="stroke:#000000;stroke-width:1.5625;" width="312.5" x="1421.875" y="259.375"/><text fill="#000000" font-family="sans-serif" font-size="37.5" lengthAdjust="spacing" textLength="293.75" x="1431.25" y="313.9282">Google Calendar</text></g><!--class gmail--><g id="elem_gmail"><rect codeLine="69" fill="#FFFFFF" height="78.418" id="gmail" rx="7.8125" ry="7.8125" style="stroke:#000000;stroke-width:1.5625;" width="121.875" x="1276.5625" y="437.5"/><text fill="#000000" font-family="sans-serif" font-size="37.5" lengthAdjust="spacing" textLength="103.125" x="1285.9375" y="492.0532">Gmail</text></g><!--class discord--><g id="elem_discord"><rect codeLine="70" fill="#FFFFFF" height="78.418" id="discord" rx="7.8125" ry="7.8125" style="stroke:#000000;stroke-width:1.5625;" width="153.125" x="1276.5625" y="754.6875"/><text fill="#000000" font-family="sans-serif" font-size="37.5" lengthAdjust="spacing" textLength="134.375" x="1285.9375" y="809.2407">Discord</text></g><!--reverse link logseq to svg--><g id="link_logseq_svg"><path codeLine="74" d="M931.4275,507.4946 C914.24,512.2446 914.0313,511.9063 896.875,515.625 C825.4687,531.0625 791.8125,495.4688 734.375,540.625 C666.8125,593.7188 643.1563,698.6563 635.1563,754.1875 " fill="none" id="logseq-backto-svg" style="stroke:#000000;stroke-width:3.125;"/><polygon fill="#000000" points="949.5,502.5,919.0615,497.9435,934.4396,506.6622,925.7209,522.0402,949.5,502.5" style="stroke:#000000;stroke-width:3.125;"/></g><!--reverse link svg to plantuml--><g id="link_svg_plantuml"><path codeLine="75" d="M697.25,793.75 C734.0313,793.75 752.0625,793.75 788.8125,793.75 " fill="none" id="svg-backto-plantuml" style="stroke:#000000;stroke-width:3.125;"/><polygon fill="#000000" points="678.5,793.75,706.625,806.25,694.125,793.75,706.625,781.25,678.5,793.75" style="stroke:#000000;stroke-width:3.125;"/></g><!--reverse link svg to excalidraw--><g id="link_svg_excalidraw"><path codeLine="76" d="M663.2394,848.8709 C690.3019,892.8084 726.8438,952.1875 761.4375,1008.4063 " fill="none" id="svg-backto-excalidraw" style="stroke:#000000;stroke-width:3.125;"/><polygon fill="#000000" points="653.4063,832.9062,657.5129,863.4087,661.6006,846.2102,678.7991,850.2978,653.4063,832.9062" style="stroke:#000000;stroke-width:3.125;"/></g><!--reverse link svg to diagramsnet--><g id="link_svg_diagramsnet"><path codeLine="77" d="M599.2606,848.8709 C572.1981,892.8084 535.6563,952.1875 501.0625,1008.4063 " fill="none" id="svg-backto-diagramsnet" style="stroke:#000000;stroke-width:3.125;"/><polygon fill="#000000" points="609.0938,832.9062,583.7009,850.2978,600.8994,846.2102,604.9871,863.4087,609.0938,832.9062" style="stroke:#000000;stroke-width:3.125;"/></g><!--link affinity to svg--><g id="link_affinity_svg"><path codeLine="78" d="M473.7188,793.75 C510.2188,793.75 528,793.75 564.5,793.75 " fill="none" id="affinity-to-svg" style="stroke:#000000;stroke-width:3.125;"/><polygon fill="#000000" points="583.25,793.75,555.125,781.25,567.625,793.75,555.125,806.25,583.25,793.75" style="stroke:#000000;stroke-width:3.125;"/></g><!--reverse link diagramsnet to googlesheets--><g id="link_diagramsnet_googlesheets"><path codeLine="79" d="M456.25,1178.7813 C456.25,1256.5313 456.25,1358.0938 456.25,1418.0938 " fill="none" id="diagramsnet-backto-googlesheets" style="stroke:#000000;stroke-width:3.125;"/><polygon fill="#000000" points="456.25,1160.0313,443.75,1188.1563,456.25,1175.6563,468.75,1188.1563,456.25,1160.0313" style="stroke:#000000;stroke-width:3.125;"/></g><!--link pdf to logseq--><g id="link_pdf_logseq"><path codeLine="80" d="M988.0625,338 C996.0313,367.1875 1002.1998,389.7834 1010.1373,418.9397 " fill="none" id="pdf-to-logseq" style="stroke:#000000;stroke-width:3.125;"/><polygon fill="#000000" points="1015.0625,437.0313,1019.7357,406.6104,1010.9581,421.955,995.6136,413.1774,1015.0625,437.0313" style="stroke:#000000;stroke-width:3.125;"/></g><!--link imagefiles to logseq--><g id="link_imagefiles_logseq"><path codeLine="81" d="M719.375,337.7188 C765.875,359.75 826.7813,388.25 881.25,412.5 C903.0313,422.2188 909.578,425.1261 931.4218,434.3761 " fill="none" id="imagefiles-to-logseq" style="stroke:#000000;stroke-width:3.125;"/><polygon fill="#000000" points="948.6875,441.6875,927.6631,419.2099,934.2994,435.5947,917.9146,442.2309,948.6875,441.6875" style="stroke:#000000;stroke-width:3.125;"/></g><!--link coda to logseq--><g id="link_coda_logseq"><path codeLine="82" d="M840.7813,476.5625 C876.75,476.5625 894,476.5625 929.9687,476.5625 " fill="none" id="coda-to-logseq" style="stroke:#000000;stroke-width:3.125;"/><polygon fill="#000000" points="948.7187,476.5625,920.5937,464.0625,933.0937,476.5625,920.5937,489.0625,948.7187,476.5625" style="stroke:#000000;stroke-width:3.125;"/></g><!--link googlecalendar to todoist--><g id="link_googlecalendar_todoist"><path codeLine="87" d="M1626.5,338 C1665.2188,367.1875 1719.25,407.875 1757.9375,437.0313 " fill="none" id="googlecalendar-todoist" style="stroke:#000000;stroke-width:3.125;"/></g><!--link googlecalendar to gmail--><g id="link_googlecalendar_gmail"><path codeLine="88" d="M1527.0938,338 C1486.25,367.1875 1444.538,396.9757 1403.7255,426.1319 " fill="none" id="googlecalendar-to-gmail" style="stroke:#000000;stroke-width:3.125;"/><polygon fill="#000000" points="1388.4688,437.0313,1418.62,430.8534,1401.1827,427.9485,1404.0876,410.5111,1388.4688,437.0313" style="stroke:#000000;stroke-width:3.125;"/></g><!--link gmail to discord--><g id="link_gmail_discord"><path codeLine="89" d="M1339.3438,516.5625 C1342.375,576.4063 1347.342,675.2423 1350.342,735.0548 " fill="none" id="gmail-to-discord" style="stroke:#000000;stroke-width:3.125;"/><polygon fill="#000000" points="1351.2813,753.7812,1362.3567,725.0654,1350.4985,738.1759,1337.3881,726.3177,1351.2813,753.7812" style="stroke:#000000;stroke-width:3.125;"/></g><!--reverse link coda3 to todoist--><g id="link_coda3_todoist"><path codeLine="90" d="M1640.7812,476.5625 C1677.2188,476.5625 1694.9375,476.5625 1731.4062,476.5625 " fill="none" id="coda3-backto-todoist" style="stroke:#000000;stroke-width:3.125;"/><polygon fill="#000000" points="1622.0312,476.5625,1650.1562,489.0625,1637.6562,476.5625,1650.1562,464.0625,1622.0312,476.5625" style="stroke:#000000;stroke-width:3.125;"/></g><!--SRC=[dLJ9Rjim4BthAmXVqXvSPBdqK1GexDWechG6dARdiJYI256aIb9ndCAdVbO_fpzIRfOfsRs4fvatZsyMBXMZI7AcSevPvMniMhCZ1KDETOeqQ2ffeKpNJBIWe24v1wt9hupOjO6yNYhP2JgJN2gohPZ1496AeWheXbkQHq4fkKt1VQhSMWHAZDhQx3WIXRa1KTew1zH8gO3ABHCbAO3ha5Y1g3MsvERIkxHbrhmyPd-eM5uBj2rS1G8Mq76paCAisGkIg-iZjmVVk-o7yYPVfK4zYJM4SKmiOYO4D7566hYJfSQVFiIzwOEzrbp9TYEVoPjl6yqe0_7MKsc0Guf4RVsuz77zL8v3TdDfHwFV2GoL703hawEGFvmTULoJcQJOm_kntErp3fnH1LilXhtx2gqL1s78z_ixBzKwhsluAuG-5GKJpEoy3aHdfFFtzvzL9OtKOtIEcfK2rGcxst2cgoGGykw79xMKqbv3CbVi2Nt-qWFK-UJae29xNI4QdT2r1yxftu8DXraxwrHoDL-4-T7YR7qxU94XaxDEztzk76_1E8Q2cFCBvoPoaMkF0JmfjqOQcE-4lGVnhjFeaEoqyo-8RT9tRTsKzKEgkk1o6uvoU_06xsmE1ZQWSVJK3Y_5xvJH-M_nrmF91z0rkGTXdGQ56IaFDjwaaGT9vQ5h4-mpFS-0ew2Wahxp20tO3J0UECuQZ9VftFwSyVrwszL_uR-SB7mWvCDqwZ-0_Y5DkuyUI1xfj9i6BFq5Uh1_Ej5FxwPZMJZPTypRJVtjEzuSugZnNtD38qStkpYSdpL7Sy-6mx4g_LJzI4AgqGH39DGM9XFt-Fx3aVdr3m00]--></g></svg>