<?xml version="1.0" encoding="us-ascii" standalone="no"?><svg xmlns="http://www.w3.org/2000/svg" xmlns:xlink="http://www.w3.org/1999/xlink" contentStyleType="text/css" height="1640.625px" preserveAspectRatio="none" style="width:2593px;height:1640px;background:#FFFFFF;" version="1.1" viewBox="0 0 2593 1640" width="2593.75px" zoomAndPan="magnify"><defs/><g><!--cluster Notes--><g id="cluster_Notes"><rect fill="none" height="1600" rx="7.8125" ry="7.8125" style="stroke:#000000;stroke-width:4.6875;" width="1200" x="21.875" y="21.875"/><text fill="#000000" font-family="sans-serif" font-size="37.5" font-weight="bold" lengthAdjust="spacing" textLength="103.125" x="570.3125" y="67.0532">Notes</text></g><!--cluster dropbox--><g id="cluster_dropbox"><rect fill="none" height="643.75" rx="7.8125" ry="7.8125" style="stroke:#000000;stroke-width:4.6875;" width="893.75" x="253.125" y="565.625"/><text fill="#000000" font-family="sans-serif" font-size="37.5" font-weight="bold" lengthAdjust="spacing" textLength="340.625" x="529.6875" y="610.8032">Dropbox (Obsidian)</text></g><!--cluster googledrive--><g id="cluster_googledrive"><rect fill="none" height="234.375" rx="7.8125" ry="7.8125" style="stroke:#000000;stroke-width:4.6875;" width="375" x="340.625" y="1312.5"/><text fill="#000000" font-family="sans-serif" font-size="37.5" font-weight="bold" lengthAdjust="spacing" textLength="221.875" x="417.1875" y="1357.6782">Google Drive</text></g><!--cluster eagle--><g id="cluster_eagle"><rect fill="none" height="234.375" rx="7.8125" ry="7.8125" style="stroke:#000000;stroke-width:4.6875;" width="193.75" x="953.125" y="153.125"/><text fill="#000000" font-family="sans-serif" font-size="37.5" font-weight="bold" lengthAdjust="spacing" textLength="96.875" x="1001.5625" y="198.3032">Eagle</text></g><!--cluster gyazo--><g id="cluster_gyazo"><rect fill="none" height="234.375" rx="7.8125" ry="7.8125" style="stroke:#000000;stroke-width:4.6875;" width="325" x="553.125" y="153.125"/><text fill="#000000" font-family="sans-serif" font-size="37.5" font-weight="bold" lengthAdjust="spacing" textLength="106.25" x="662.5" y="198.3032">Gyazo</text></g><!--cluster Database--><g id="cluster_Database"><rect fill="none" height="234.375" rx="7.8125" ry="7.8125" style="stroke:#000000;stroke-width:4.6875;" width="496.875" x="2078.125" y="153.125"/><text fill="#000000" font-family="sans-serif" font-size="37.5" font-weight="bold" lengthAdjust="spacing" textLength="168.75" x="2242.1875" y="198.3032">Database</text></g><!--cluster Task Management--><g id="cluster_Task Management"><rect fill="none" height="729.6875" rx="7.8125" ry="7.8125" style="stroke:#000000;stroke-width:4.6875;" width="706.25" x="1296.875" y="153.125"/><text fill="#000000" font-family="sans-serif" font-size="37.5" font-weight="bold" lengthAdjust="spacing" textLength="328.125" x="1485.9375" y="198.3032">Task Management</text></g><!--class test--><g id="elem_test"><rect codeLine="26" fill="#FFFFFF" height="78.418" id="test" rx="7.8125" ry="7.8125" style="stroke:#000000;stroke-width:1.5625;" width="156.25" x="71.875" y="259.375"/><text fill="#000000" font-family="sans-serif" font-size="37.5" lengthAdjust="spacing" textLength="137.5" x="81.25" y="313.9282">test2to2</text></g><!--class logseq--><g id="elem_logseq"><rect codeLine="27" fill="#FFFFFF" height="78.418" id="logseq" rx="7.8125" ry="7.8125" style="stroke:#000000;stroke-width:1.5625;" width="150" x="950" y="437.5"/><text fill="#000000" font-family="sans-serif" font-size="37.5" lengthAdjust="spacing" textLength="131.25" x="959.375" y="492.0532">Logseq</text></g><!--class coda--><g id="elem_coda"><rect codeLine="54" fill="#FFFFFF" height="78.418" id="coda" rx="7.8125" ry="7.8125" style="stroke:#000000;stroke-width:1.5625;" width="112.5" x="728.125" y="437.5"/><text fill="#000000" font-family="sans-serif" font-size="37.5" lengthAdjust="spacing" textLength="93.75" x="737.5" y="492.0532">Coda</text></g><!--class dynalist--><g id="elem_dynalist"><rect codeLine="55" fill="#FFFFFF" height="78.418" id="dynalist" rx="7.8125" ry="7.8125" style="stroke:#000000;stroke-width:1.5625;" width="156.25" x="337.5" y="259.375"/><text fill="#000000" font-family="sans-serif" font-size="37.5" lengthAdjust="spacing" textLength="137.5" x="346.875" y="313.9282">Dynalist</text></g><!--class googlekeep--><g id="elem_googlekeep"><rect codeLine="56" fill="#FFFFFF" height="78.418" id="googlekeep" rx="7.8125" ry="7.8125" style="stroke:#000000;stroke-width:1.5625;" width="243.75" x="71.875" y="437.5"/><text fill="#000000" font-family="sans-serif" font-size="37.5" lengthAdjust="spacing" textLength="225" x="81.25" y="492.0532">Google Keep</text></g><!--class workflowy--><g id="elem_workflowy"><rect codeLine="57" fill="#FFFFFF" height="78.418" id="workflowy" rx="7.8125" ry="7.8125" style="stroke:#000000;stroke-width:1.5625;" width="190.625" x="426.5625" y="437.5"/><text fill="#000000" font-family="sans-serif" font-size="37.5" lengthAdjust="spacing" textLength="171.875" x="435.9375" y="492.0532">Workflowy</text></g><!--class svg--><g id="elem_svg"><rect codeLine="29" fill="#FFFFFF" height="78.418" id="svg" rx="7.8125" ry="7.8125" style="stroke:#000000;stroke-width:1.5625;" width="93.75" x="656.25" y="754.6875"/><text fill="#000000" font-family="sans-serif" font-size="37.5" lengthAdjust="spacing" textLength="75" x="665.625" y="809.2407">SVG</text></g><!--class diagramsnet--><g id="elem_diagramsnet"><rect codeLine="30" fill="#FFFFFF" height="150.5859" id="diagramsnet" rx="7.8125" ry="7.8125" style="stroke:#000000;stroke-width:1.5625;" width="246.875" x="404.6875" y="1009.375"/><text fill="#000000" font-family="sans-serif" font-size="37.5" lengthAdjust="spacing" textLength="228.125" x="414.0625" y="1063.9282">diagrams.net</text><line style="stroke:#000000;stroke-width:1.5625;" x1="407.8125" x2="648.4375" y1="1087.793" y2="1087.793"/><text fill="#000000" font-family="sans-serif" font-size="37.5" lengthAdjust="spacing" textLength="196.875" x="423.4375" y="1139.2212">by VS Code</text></g><!--class excalidraw--><g id="elem_excalidraw"><rect codeLine="33" fill="#FFFFFF" height="150.5859" id="excalidraw" rx="7.8125" ry="7.8125" style="stroke:#000000;stroke-width:1.5625;" width="234.375" x="760.9375" y="1009.375"/><text fill="#000000" font-family="sans-serif" font-size="37.5" lengthAdjust="spacing" textLength="184.375" x="785.9375" y="1063.9282">Excalidraw</text><line style="stroke:#000000;stroke-width:1.5625;" x1="764.0625" x2="992.1875" y1="1087.793" y2="1087.793"/><text fill="#000000" font-family="sans-serif" font-size="37.5" lengthAdjust="spacing" textLength="196.875" x="779.6875" y="1139.2212">by VS Code</text></g><!--class plantuml--><g id="elem_plantuml"><rect codeLine="36" fill="#FFFFFF" height="150.5859" id="plantuml" rx="7.8125" ry="7.8125" style="stroke:#000000;stroke-width:1.5625;" width="234.375" x="860.9375" y="718.75"/><text fill="#000000" font-family="sans-serif" font-size="37.5" lengthAdjust="spacing" textLength="175" x="890.625" y="773.3032">Plant UML</text><line style="stroke:#000000;stroke-width:1.5625;" x1="864.0625" x2="1092.1875" y1="797.168" y2="797.168"/><text fill="#000000" font-family="sans-serif" font-size="37.5" lengthAdjust="spacing" textLength="196.875" x="879.6875" y="848.5962">by VS Code</text></g><!--class affinity--><g id="elem_affinity"><rect codeLine="39" fill="#FFFFFF" height="244.9219" id="affinity" rx="7.8125" ry="7.8125" style="stroke:#000000;stroke-width:1.5625;" width="240.625" x="304.6875" y="671.875"/><text fill="#000000" font-family="sans-serif" font-size="37.5" lengthAdjust="spacing" textLength="106.25" x="371.875" y="726.4282">Affinity</text><line style="stroke:#000000;stroke-width:1.5625;" x1="307.8125" x2="542.1875" y1="750.293" y2="750.293"/><text fill="#000000" font-family="sans-serif" font-size="37.5" lengthAdjust="spacing" textLength="159.375" x="323.4375" y="801.7212">&#12539;Photos</text><text fill="#000000" font-family="sans-serif" font-size="37.5" lengthAdjust="spacing" textLength="196.875" x="323.4375" y="848.8892">&#12539;Designer</text><text fill="#000000" font-family="sans-serif" font-size="37.5" lengthAdjust="spacing" textLength="203.125" x="323.4375" y="896.0571">&#12539;Publisher</text></g><!--class googlesheets--><g id="elem_googlesheets"><rect codeLine="46" fill="#FFFFFF" height="78.418" id="googlesheets" rx="7.8125" ry="7.8125" style="stroke:#000000;stroke-width:1.5625;" width="275" x="390.625" y="1418.75"/><text fill="#000000" font-family="sans-serif" font-size="37.5" lengthAdjust="spacing" textLength="256.25" x="400" y="1473.3032">Google Sheets</text></g><!--class pdf--><g id="elem_pdf"><rect codeLine="49" fill="#FFFFFF" height="78.418" id="pdf" rx="7.8125" ry="7.8125" style="stroke:#000000;stroke-width:1.5625;" width="93.75" x="1003.125" y="259.375"/><text fill="#000000" font-family="sans-serif" font-size="37.5" lengthAdjust="spacing" textLength="75" x="1012.5" y="313.9282">PDF</text></g><!--class imagefiles--><g id="elem_imagefiles"><rect codeLine="52" fill="#FFFFFF" height="78.418" id="imagefiles" rx="7.8125" ry="7.8125" style="stroke:#000000;stroke-width:1.5625;" width="221.875" x="604.6875" y="259.375"/><text fill="#000000" font-family="sans-serif" font-size="37.5" lengthAdjust="spacing" textLength="203.125" x="614.0625" y="313.9282">Image Files</text></g><!--class obsidian--><g id="elem_obsidian"><rect codeLine="61" fill="#FFFFFF" height="78.418" id="obsidian" rx="7.8125" ry="7.8125" style="stroke:#000000;stroke-width:1.5625;" width="175" x="2350" y="259.375"/><text fill="#000000" font-family="sans-serif" font-size="37.5" lengthAdjust="spacing" textLength="156.25" x="2359.375" y="313.9282">Obsidian</text></g><!--class coda2--><g id="elem_coda2"><rect codeLine="62" fill="#FFFFFF" height="78.418" id="coda2" rx="7.8125" ry="7.8125" style="stroke:#000000;stroke-width:1.5625;" width="112.5" x="2128.125" y="259.375"/><text fill="#000000" font-family="sans-serif" font-size="37.5" lengthAdjust="spacing" textLength="93.75" x="2137.5" y="313.9282">Coda</text></g><!--class coda3--><g id="elem_coda3"><rect codeLine="66" fill="#FFFFFF" height="78.418" id="coda3" rx="7.8125" ry="7.8125" style="stroke:#000000;stroke-width:1.5625;" width="112.5" x="1581.25" y="437.5"/><text fill="#000000" font-family="sans-serif" font-size="37.5" lengthAdjust="spacing" textLength="93.75" x="1590.625" y="492.0532">Coda</text></g><!--class todoist--><g id="elem_todoist"><rect codeLine="67" fill="#FFFFFF" height="78.418" id="todoist" rx="7.8125" ry="7.8125" style="stroke:#000000;stroke-width:1.5625;" width="146.875" x="1804.6875" y="437.5"/><text fill="#000000" font-family="sans-serif" font-size="37.5" lengthAdjust="spacing" textLength="128.125" x="1814.0625" y="492.0532">Todoist</text></g><!--class googlecalendar--><g id="elem_googlecalendar"><rect codeLine="68" fill="#FFFFFF" height="78.418" id="googlecalendar" rx="7.8125" ry="7.8125" style="stroke:#000000;stroke-width:1.5625;" width="312.5" x="1493.75" y="259.375"/><text fill="#000000" font-family="sans-serif" font-size="37.5" lengthAdjust="spacing" textLength="293.75" x="1503.125" y="313.9282">Google Calendar</text></g><!--class gmail--><g id="elem_gmail"><rect codeLine="69" fill="#FFFFFF" height="78.418" id="gmail" rx="7.8125" ry="7.8125" style="stroke:#000000;stroke-width:1.5625;" width="121.875" x="1348.4375" y="437.5"/><text fill="#000000" font-family="sans-serif" font-size="37.5" lengthAdjust="spacing" textLength="103.125" x="1357.8125" y="492.0532">Gmail</text></g><!--class discord--><g id="elem_discord"><rect codeLine="70" fill="#FFFFFF" height="78.418" id="discord" rx="7.8125" ry="7.8125" style="stroke:#000000;stroke-width:1.5625;" width="153.125" x="1348.4375" y="754.6875"/><text fill="#000000" font-family="sans-serif" font-size="37.5" lengthAdjust="spacing" textLength="134.375" x="1357.8125" y="809.2407">Discord</text></g><!--reverse link logseq to svg--><g id="link_logseq_svg"><path codeLine="74" d="M931.0718,506.0953 C913.9156,510.9078 913.7813,510.9063 896.875,515.625 C856.625,526.8125 837.5313,512.9375 806.25,540.625 C742.25,597.25 717.125,699.7188 707.9375,754.2188 " fill="none" id="logseq-backto-svg" style="stroke:#000000;stroke-width:3.125;"/><polygon fill="#000000" points="949.125,501.0312,918.6692,496.5919,934.0807,505.2513,925.4213,520.6629,949.125,501.0312" style="stroke:#000000;stroke-width:3.125;"/></g><!--reverse link svg to plantuml--><g id="link_svg_plantuml"><path codeLine="75" d="M769.125,793.75 C805.9063,793.75 823.9375,793.75 860.6875,793.75 " fill="none" id="svg-backto-plantuml" style="stroke:#000000;stroke-width:3.125;"/><polygon fill="#000000" points="750.375,793.75,778.5,806.25,766,793.75,778.5,781.25,750.375,793.75" style="stroke:#000000;stroke-width:3.125;"/></g><!--reverse link svg to excalidraw--><g id="link_svg_excalidraw"><path codeLine="76" d="M735.1144,848.8709 C762.1769,892.8084 798.7187,952.1875 833.3125,1008.4063 " fill="none" id="svg-backto-excalidraw" style="stroke:#000000;stroke-width:3.125;"/><polygon fill="#000000" points="725.2813,832.9062,729.3879,863.4087,733.4756,846.2102,750.6741,850.2978,725.2813,832.9062" style="stroke:#000000;stroke-width:3.125;"/></g><!--reverse link svg to diagramsnet--><g id="link_svg_diagramsnet"><path codeLine="77" d="M671.1356,848.8709 C644.0731,892.8084 607.5313,952.1875 572.9375,1008.4063 " fill="none" id="svg-backto-diagramsnet" style="stroke:#000000;stroke-width:3.125;"/><polygon fill="#000000" points="680.9688,832.9062,655.5759,850.2978,672.7744,846.2102,676.8621,863.4087,680.9688,832.9062" style="stroke:#000000;stroke-width:3.125;"/></g><!--link affinity to svg--><g id="link_affinity_svg"><path codeLine="78" d="M545.5938,793.75 C582.0938,793.75 599.875,793.75 636.375,793.75 " fill="none" id="affinity-to-svg" style="stroke:#000000;stroke-width:3.125;"/><polygon fill="#000000" points="655.125,793.75,627,781.25,639.5,793.75,627,806.25,655.125,793.75" style="stroke:#000000;stroke-width:3.125;"/></g><!--reverse link diagramsnet to googlesheets--><g id="link_diagramsnet_googlesheets"><path codeLine="79" d="M528.125,1178.7813 C528.125,1256.5313 528.125,1358.0938 528.125,1418.0938 " fill="none" id="diagramsnet-backto-googlesheets" style="stroke:#000000;stroke-width:3.125;"/><polygon fill="#000000" points="528.125,1160.0313,515.625,1188.1563,528.125,1175.6563,540.625,1188.1563,528.125,1160.0313" style="stroke:#000000;stroke-width:3.125;"/></g><!--link pdf to logseq--><g id="link_pdf_logseq"><path codeLine="80" d="M1044.6875,338 C1040.4688,367.1875 1037.2358,389.3211 1032.9858,418.4773 " fill="none" id="pdf-to-logseq" style="stroke:#000000;stroke-width:3.125;"/><polygon fill="#000000" points="1030.2813,437.0313,1046.7073,411.0034,1032.535,421.5696,1021.9688,407.3973,1030.2813,437.0313" style="stroke:#000000;stroke-width:3.125;"/></g><!--link imagefiles to logseq--><g id="link_imagefiles_logseq"><path codeLine="81" d="M781.25,338 C833.75,367.1875 890.6105,398.7675 943.0792,427.9238 " fill="none" id="imagefiles-to-logseq" style="stroke:#000000;stroke-width:3.125;"/><polygon fill="#000000" points="959.4687,437.0313,940.9561,412.4437,945.8108,429.4417,928.8128,434.2964,959.4687,437.0313" style="stroke:#000000;stroke-width:3.125;"/></g><!--link coda to logseq--><g id="link_coda_logseq"><path codeLine="82" d="M840.7813,476.5625 C876.75,476.5625 894,476.5625 929.9687,476.5625 " fill="none" id="coda-to-logseq" style="stroke:#000000;stroke-width:3.125;"/><polygon fill="#000000" points="948.7187,476.5625,920.5937,464.0625,933.0937,476.5625,920.5937,489.0625,948.7187,476.5625" style="stroke:#000000;stroke-width:3.125;"/></g><!--link googlecalendar to todoist--><g id="link_googlecalendar_todoist"><path codeLine="87" d="M1698.375,338 C1737.0938,367.1875 1791.125,407.875 1829.8125,437.0313 " fill="none" id="googlecalendar-todoist" style="stroke:#000000;stroke-width:3.125;"/></g><!--link googlecalendar to gmail--><g id="link_googlecalendar_gmail"><path codeLine="88" d="M1598.9687,338 C1558.125,367.1875 1516.413,396.9757 1475.6005,426.1319 " fill="none" id="googlecalendar-to-gmail" style="stroke:#000000;stroke-width:3.125;"/><polygon fill="#000000" points="1460.3438,437.0313,1490.495,430.8534,1473.0577,427.9485,1475.9626,410.5111,1460.3438,437.0313" style="stroke:#000000;stroke-width:3.125;"/></g><!--link gmail to discord--><g id="link_gmail_discord"><path codeLine="89" d="M1411.2188,516.5625 C1414.25,576.4063 1419.217,675.2423 1422.217,735.0548 " fill="none" id="gmail-to-discord" style="stroke:#000000;stroke-width:3.125;"/><polygon fill="#000000" points="1423.1563,753.7812,1434.2317,725.0654,1422.3735,738.1759,1409.2631,726.3177,1423.1563,753.7812" style="stroke:#000000;stroke-width:3.125;"/></g><!--reverse link coda3 to todoist--><g id="link_coda3_todoist"><path codeLine="90" d="M1712.6562,476.5625 C1749.0938,476.5625 1766.8125,476.5625 1803.2812,476.5625 " fill="none" id="coda3-backto-todoist" style="stroke:#000000;stroke-width:3.125;"/><polygon fill="#000000" points="1693.9062,476.5625,1722.0312,489.0625,1709.5312,476.5625,1722.0312,464.0625,1693.9062,476.5625" style="stroke:#000000;stroke-width:3.125;"/></g><!--SRC=[dLJBRjim4BphAmXVqXvS9CwbXw90OIT1qQGDO3SzhyMLH8WYLPAAunG-zRFwEVsHycM9ajDBUDgP7SwIoqV5A9ASgPnZLhaOczRiIS6GKvqo3PfAMYhJDHCjA6X8pa5hyYiZTcmXhs-Kx0HTIYuLsLNCOCX8HL45TikjpBEWbDobv25rRYq39KPlRVOSYSBSW2ZjEaVIAAc0oXqJ9Ic0wr1OWQWrjkJot4FQCXkU3zKt5SjhWNOB5q601NJSN4jXrkmPoSLYqFRaUrVzkBpPLsbGp-8QGZjcbZ4B8nSp0feua2PlPQdnfqzn7_faxxTIijtA9_BcsrOpoa2yzL8Qw50cSLi_tFYyVYodAJkvjEtHxmIQu149YybWv0zeJnxMP2afzlHXQdVrb0DdLC7Ecs4FN-5rpq4Oyltkrbkr3dKDVuNHfw9WWfczzu489Zv_V_-vhwIHUigkKBDIe3fHTrlET9KaGjt3-AHkfBHNaQmKUqHVl_G4TPYS75HKhoj4enEvziHB_bTWqw7NBZgrl5zTX_xHuiNrxU5PXaekEft_kN6wQyOnB8WvN3YOs4MjFGRmejm6QMAr5_OUw7Z38Y3PwSw_8BR9lciBKzKFgUg2orquojqHZTxQ2WniGUFakHrVYfyf8_ZluXSZomtecjo1iA11OIREeucNQMOZgJpkseJuXJqlWQEWe99zvv4QgHjWF6XSD6elqxdzFUFxzR5R_vd_ThBmWP0Fyxd_0Fg7DEy-UY9vfFDk7hZq5-Z9_kb4dDvDfx9qCc-esytzxHjk3d7I-A-vff41PcV7yxFXfE_Pk3dMfU-gRqaeDUbWo8IrXSx4ENx_uSZy-0S0]--></g></svg>