<?xml version="1.0" encoding="us-ascii" standalone="no"?><svg xmlns="http://www.w3.org/2000/svg" xmlns:xlink="http://www.w3.org/1999/xlink" contentStyleType="text/css" height="1640.625px" preserveAspectRatio="none" style="width:2543px;height:1640px;background:#FFFFFF;" version="1.1" viewBox="0 0 2543 1640" width="2543.75px" zoomAndPan="magnify"><defs/><g><!--cluster Notes--><g id="cluster_Notes"><rect fill="none" height="1600" rx="7.8125" ry="7.8125" style="stroke:#000000;stroke-width:4.6875;" width="1150" x="21.875" y="21.875"/><text fill="#000000" font-family="sans-serif" font-size="37.5" font-weight="bold" lengthAdjust="spacing" textLength="103.125" x="545.3125" y="67.0532">Notes</text></g><!--cluster dropbox--><g id="cluster_dropbox"><rect fill="none" height="643.75" rx="7.8125" ry="7.8125" style="stroke:#000000;stroke-width:4.6875;" width="893.75" x="203.125" y="565.625"/><text fill="#000000" font-family="sans-serif" font-size="37.5" font-weight="bold" lengthAdjust="spacing" textLength="340.625" x="479.6875" y="610.8032">Dropbox (Obsidian)</text></g><!--cluster googledrive--><g id="cluster_googledrive"><rect fill="none" height="234.375" rx="7.8125" ry="7.8125" style="stroke:#000000;stroke-width:4.6875;" width="375" x="290.625" y="1312.5"/><text fill="#000000" font-family="sans-serif" font-size="37.5" font-weight="bold" lengthAdjust="spacing" textLength="221.875" x="367.1875" y="1357.6782">Google Drive</text></g><!--cluster eagle--><g id="cluster_eagle"><rect fill="none" height="234.375" rx="7.8125" ry="7.8125" style="stroke:#000000;stroke-width:4.6875;" width="193.75" x="903.125" y="153.125"/><text fill="#000000" font-family="sans-serif" font-size="37.5" font-weight="bold" lengthAdjust="spacing" textLength="96.875" x="951.5625" y="198.3032">Eagle</text></g><!--cluster gyazo--><g id="cluster_gyazo"><rect fill="none" height="234.375" rx="7.8125" ry="7.8125" style="stroke:#000000;stroke-width:4.6875;" width="325" x="503.125" y="153.125"/><text fill="#000000" font-family="sans-serif" font-size="37.5" font-weight="bold" lengthAdjust="spacing" textLength="106.25" x="612.5" y="198.3032">Gyazo</text></g><!--cluster Database--><g id="cluster_Database"><rect fill="none" height="234.375" rx="7.8125" ry="7.8125" style="stroke:#000000;stroke-width:4.6875;" width="496.875" x="2028.125" y="153.125"/><text fill="#000000" font-family="sans-serif" font-size="37.5" font-weight="bold" lengthAdjust="spacing" textLength="168.75" x="2192.1875" y="198.3032">Database</text></g><!--cluster Task Management--><g id="cluster_Task Management"><rect fill="none" height="729.6875" rx="7.8125" ry="7.8125" style="stroke:#000000;stroke-width:4.6875;" width="706.25" x="1246.875" y="153.125"/><text fill="#000000" font-family="sans-serif" font-size="37.5" font-weight="bold" lengthAdjust="spacing" textLength="328.125" x="1435.9375" y="198.3032">Task Management</text></g><!--class test--><g id="elem_test"><rect codeLine="26" fill="#FFFFFF" height="78.418" id="test" rx="7.8125" ry="7.8125" style="stroke:#000000;stroke-width:1.5625;" width="103.125" x="73.4375" y="259.375"/><text fill="#000000" font-family="sans-serif" font-size="37.5" lengthAdjust="spacing" textLength="84.375" x="82.8125" y="313.9282">test2</text></g><!--class logseq--><g id="elem_logseq"><rect codeLine="27" fill="#FFFFFF" height="78.418" id="logseq" rx="7.8125" ry="7.8125" style="stroke:#000000;stroke-width:1.5625;" width="150" x="950" y="437.5"/><text fill="#000000" font-family="sans-serif" font-size="37.5" lengthAdjust="spacing" textLength="131.25" x="959.375" y="492.0532">Logseq</text></g><!--class coda--><g id="elem_coda"><rect codeLine="54" fill="#FFFFFF" height="78.418" id="coda" rx="7.8125" ry="7.8125" style="stroke:#000000;stroke-width:1.5625;" width="112.5" x="728.125" y="437.5"/><text fill="#000000" font-family="sans-serif" font-size="37.5" lengthAdjust="spacing" textLength="93.75" x="737.5" y="492.0532">Coda</text></g><!--class dynalist--><g id="elem_dynalist"><rect codeLine="55" fill="#FFFFFF" height="78.418" id="dynalist" rx="7.8125" ry="7.8125" style="stroke:#000000;stroke-width:1.5625;" width="156.25" x="287.5" y="259.375"/><text fill="#000000" font-family="sans-serif" font-size="37.5" lengthAdjust="spacing" textLength="137.5" x="296.875" y="313.9282">Dynalist</text></g><!--class googlekeep--><g id="elem_googlekeep"><rect codeLine="56" fill="#FFFFFF" height="78.418" id="googlekeep" rx="7.8125" ry="7.8125" style="stroke:#000000;stroke-width:1.5625;" width="243.75" x="71.875" y="437.5"/><text fill="#000000" font-family="sans-serif" font-size="37.5" lengthAdjust="spacing" textLength="225" x="81.25" y="492.0532">Google Keep</text></g><!--class workflowy--><g id="elem_workflowy"><rect codeLine="57" fill="#FFFFFF" height="78.418" id="workflowy" rx="7.8125" ry="7.8125" style="stroke:#000000;stroke-width:1.5625;" width="190.625" x="426.5625" y="437.5"/><text fill="#000000" font-family="sans-serif" font-size="37.5" lengthAdjust="spacing" textLength="171.875" x="435.9375" y="492.0532">Workflowy</text></g><!--class svg--><g id="elem_svg"><rect codeLine="29" fill="#FFFFFF" height="78.418" id="svg" rx="7.8125" ry="7.8125" style="stroke:#000000;stroke-width:1.5625;" width="93.75" x="606.25" y="754.6875"/><text fill="#000000" font-family="sans-serif" font-size="37.5" lengthAdjust="spacing" textLength="75" x="615.625" y="809.2407">SVG</text></g><!--class diagramsnet--><g id="elem_diagramsnet"><rect codeLine="30" fill="#FFFFFF" height="150.5859" id="diagramsnet" rx="7.8125" ry="7.8125" style="stroke:#000000;stroke-width:1.5625;" width="246.875" x="354.6875" y="1009.375"/><text fill="#000000" font-family="sans-serif" font-size="37.5" lengthAdjust="spacing" textLength="228.125" x="364.0625" y="1063.9282">diagrams.net</text><line style="stroke:#000000;stroke-width:1.5625;" x1="357.8125" x2="598.4375" y1="1087.793" y2="1087.793"/><text fill="#000000" font-family="sans-serif" font-size="37.5" lengthAdjust="spacing" textLength="196.875" x="373.4375" y="1139.2212">by VS Code</text></g><!--class excalidraw--><g id="elem_excalidraw"><rect codeLine="33" fill="#FFFFFF" height="150.5859" id="excalidraw" rx="7.8125" ry="7.8125" style="stroke:#000000;stroke-width:1.5625;" width="234.375" x="710.9375" y="1009.375"/><text fill="#000000" font-family="sans-serif" font-size="37.5" lengthAdjust="spacing" textLength="184.375" x="735.9375" y="1063.9282">Excalidraw</text><line style="stroke:#000000;stroke-width:1.5625;" x1="714.0625" x2="942.1875" y1="1087.793" y2="1087.793"/><text fill="#000000" font-family="sans-serif" font-size="37.5" lengthAdjust="spacing" textLength="196.875" x="729.6875" y="1139.2212">by VS Code</text></g><!--class plantuml--><g id="elem_plantuml"><rect codeLine="36" fill="#FFFFFF" height="150.5859" id="plantuml" rx="7.8125" ry="7.8125" style="stroke:#000000;stroke-width:1.5625;" width="234.375" x="810.9375" y="718.75"/><text fill="#000000" font-family="sans-serif" font-size="37.5" lengthAdjust="spacing" textLength="175" x="840.625" y="773.3032">Plant UML</text><line style="stroke:#000000;stroke-width:1.5625;" x1="814.0625" x2="1042.1875" y1="797.168" y2="797.168"/><text fill="#000000" font-family="sans-serif" font-size="37.5" lengthAdjust="spacing" textLength="196.875" x="829.6875" y="848.5962">by VS Code</text></g><!--class affinity--><g id="elem_affinity"><rect codeLine="39" fill="#FFFFFF" height="244.9219" id="affinity" rx="7.8125" ry="7.8125" style="stroke:#000000;stroke-width:1.5625;" width="240.625" x="254.6875" y="671.875"/><text fill="#000000" font-family="sans-serif" font-size="37.5" lengthAdjust="spacing" textLength="106.25" x="321.875" y="726.4282">Affinity</text><line style="stroke:#000000;stroke-width:1.5625;" x1="257.8125" x2="492.1875" y1="750.293" y2="750.293"/><text fill="#000000" font-family="sans-serif" font-size="37.5" lengthAdjust="spacing" textLength="159.375" x="273.4375" y="801.7212">&#12539;Photos</text><text fill="#000000" font-family="sans-serif" font-size="37.5" lengthAdjust="spacing" textLength="196.875" x="273.4375" y="848.8892">&#12539;Designer</text><text fill="#000000" font-family="sans-serif" font-size="37.5" lengthAdjust="spacing" textLength="203.125" x="273.4375" y="896.0571">&#12539;Publisher</text></g><!--class googlesheets--><g id="elem_googlesheets"><rect codeLine="46" fill="#FFFFFF" height="78.418" id="googlesheets" rx="7.8125" ry="7.8125" style="stroke:#000000;stroke-width:1.5625;" width="275" x="340.625" y="1418.75"/><text fill="#000000" font-family="sans-serif" font-size="37.5" lengthAdjust="spacing" textLength="256.25" x="350" y="1473.3032">Google Sheets</text></g><!--class pdf--><g id="elem_pdf"><rect codeLine="49" fill="#FFFFFF" height="78.418" id="pdf" rx="7.8125" ry="7.8125" style="stroke:#000000;stroke-width:1.5625;" width="93.75" x="953.125" y="259.375"/><text fill="#000000" font-family="sans-serif" font-size="37.5" lengthAdjust="spacing" textLength="75" x="962.5" y="313.9282">PDF</text></g><!--class imagefiles--><g id="elem_imagefiles"><rect codeLine="52" fill="#FFFFFF" height="78.418" id="imagefiles" rx="7.8125" ry="7.8125" style="stroke:#000000;stroke-width:1.5625;" width="221.875" x="554.6875" y="259.375"/><text fill="#000000" font-family="sans-serif" font-size="37.5" lengthAdjust="spacing" textLength="203.125" x="564.0625" y="313.9282">Image Files</text></g><!--class obsidian--><g id="elem_obsidian"><rect codeLine="61" fill="#FFFFFF" height="78.418" id="obsidian" rx="7.8125" ry="7.8125" style="stroke:#000000;stroke-width:1.5625;" width="175" x="2300" y="259.375"/><text fill="#000000" font-family="sans-serif" font-size="37.5" lengthAdjust="spacing" textLength="156.25" x="2309.375" y="313.9282">Obsidian</text></g><!--class coda2--><g id="elem_coda2"><rect codeLine="62" fill="#FFFFFF" height="78.418" id="coda2" rx="7.8125" ry="7.8125" style="stroke:#000000;stroke-width:1.5625;" width="112.5" x="2078.125" y="259.375"/><text fill="#000000" font-family="sans-serif" font-size="37.5" lengthAdjust="spacing" textLength="93.75" x="2087.5" y="313.9282">Coda</text></g><!--class coda3--><g id="elem_coda3"><rect codeLine="66" fill="#FFFFFF" height="78.418" id="coda3" rx="7.8125" ry="7.8125" style="stroke:#000000;stroke-width:1.5625;" width="112.5" x="1531.25" y="437.5"/><text fill="#000000" font-family="sans-serif" font-size="37.5" lengthAdjust="spacing" textLength="93.75" x="1540.625" y="492.0532">Coda</text></g><!--class todoist--><g id="elem_todoist"><rect codeLine="67" fill="#FFFFFF" height="78.418" id="todoist" rx="7.8125" ry="7.8125" style="stroke:#000000;stroke-width:1.5625;" width="146.875" x="1754.6875" y="437.5"/><text fill="#000000" font-family="sans-serif" font-size="37.5" lengthAdjust="spacing" textLength="128.125" x="1764.0625" y="492.0532">Todoist</text></g><!--class googlecalendar--><g id="elem_googlecalendar"><rect codeLine="68" fill="#FFFFFF" height="78.418" id="googlecalendar" rx="7.8125" ry="7.8125" style="stroke:#000000;stroke-width:1.5625;" width="312.5" x="1443.75" y="259.375"/><text fill="#000000" font-family="sans-serif" font-size="37.5" lengthAdjust="spacing" textLength="293.75" x="1453.125" y="313.9282">Google Calendar</text></g><!--class gmail--><g id="elem_gmail"><rect codeLine="69" fill="#FFFFFF" height="78.418" id="gmail" rx="7.8125" ry="7.8125" style="stroke:#000000;stroke-width:1.5625;" width="121.875" x="1298.4375" y="437.5"/><text fill="#000000" font-family="sans-serif" font-size="37.5" lengthAdjust="spacing" textLength="103.125" x="1307.8125" y="492.0532">Gmail</text></g><!--class discord--><g id="elem_discord"><rect codeLine="70" fill="#FFFFFF" height="78.418" id="discord" rx="7.8125" ry="7.8125" style="stroke:#000000;stroke-width:1.5625;" width="153.125" x="1298.4375" y="754.6875"/><text fill="#000000" font-family="sans-serif" font-size="37.5" lengthAdjust="spacing" textLength="134.375" x="1307.8125" y="809.2407">Discord</text></g><!--reverse link logseq to svg--><g id="link_logseq_svg"><path codeLine="74" d="M931.3734,507.2126 C914.1859,511.9938 914,511.7188 896.875,515.625 C835,529.7812 805.6875,500.8125 756.25,540.625 C689.3125,594.5 665.375,699.0937 657.1875,754.375 " fill="none" id="logseq-backto-svg" style="stroke:#000000;stroke-width:3.125;"/><polygon fill="#000000" points="949.4375,502.1875,918.9913,497.6824,934.3841,506.3751,925.6914,521.7679,949.4375,502.1875" style="stroke:#000000;stroke-width:3.125;"/></g><!--reverse link svg to plantuml--><g id="link_svg_plantuml"><path codeLine="75" d="M719.125,793.75 C755.9063,793.75 773.9375,793.75 810.6875,793.75 " fill="none" id="svg-backto-plantuml" style="stroke:#000000;stroke-width:3.125;"/><polygon fill="#000000" points="700.375,793.75,728.5,806.25,716,793.75,728.5,781.25,700.375,793.75" style="stroke:#000000;stroke-width:3.125;"/></g><!--reverse link svg to excalidraw--><g id="link_svg_excalidraw"><path codeLine="76" d="M685.1144,848.8709 C712.1769,892.8084 748.7188,952.1875 783.3125,1008.4063 " fill="none" id="svg-backto-excalidraw" style="stroke:#000000;stroke-width:3.125;"/><polygon fill="#000000" points="675.2813,832.9062,679.3879,863.4087,683.4756,846.2102,700.6741,850.2978,675.2813,832.9062" style="stroke:#000000;stroke-width:3.125;"/></g><!--reverse link svg to diagramsnet--><g id="link_svg_diagramsnet"><path codeLine="77" d="M621.1356,848.8709 C594.0731,892.8084 557.5313,952.1875 522.9375,1008.4063 " fill="none" id="svg-backto-diagramsnet" style="stroke:#000000;stroke-width:3.125;"/><polygon fill="#000000" points="630.9688,832.9062,605.5759,850.2978,622.7744,846.2102,626.8621,863.4087,630.9688,832.9062" style="stroke:#000000;stroke-width:3.125;"/></g><!--link affinity to svg--><g id="link_affinity_svg"><path codeLine="78" d="M495.5938,793.75 C532.0938,793.75 549.875,793.75 586.375,793.75 " fill="none" id="affinity-to-svg" style="stroke:#000000;stroke-width:3.125;"/><polygon fill="#000000" points="605.125,793.75,577,781.25,589.5,793.75,577,806.25,605.125,793.75" style="stroke:#000000;stroke-width:3.125;"/></g><!--reverse link diagramsnet to googlesheets--><g id="link_diagramsnet_googlesheets"><path codeLine="79" d="M478.125,1178.7813 C478.125,1256.5313 478.125,1358.0938 478.125,1418.0938 " fill="none" id="diagramsnet-backto-googlesheets" style="stroke:#000000;stroke-width:3.125;"/><polygon fill="#000000" points="478.125,1160.0313,465.625,1188.1563,478.125,1175.6563,490.625,1188.1563,478.125,1160.0313" style="stroke:#000000;stroke-width:3.125;"/></g><!--link pdf to logseq--><g id="link_pdf_logseq"><path codeLine="80" d="M1005.3125,338 C1009.5313,367.1875 1012.7642,389.3211 1017.0142,418.4773 " fill="none" id="pdf-to-logseq" style="stroke:#000000;stroke-width:3.125;"/><polygon fill="#000000" points="1019.7188,437.0313,1028.0312,407.3973,1017.465,421.5696,1003.2927,411.0034,1019.7188,437.0313" style="stroke:#000000;stroke-width:3.125;"/></g><!--link imagefiles to logseq--><g id="link_imagefiles_logseq"><path codeLine="81" d="M740.9688,337.5937 C802.2813,366.9375 871.5575,400.0273 932.8388,429.371 " fill="none" id="imagefiles-to-logseq" style="stroke:#000000;stroke-width:3.125;"/><polygon fill="#000000" points="949.75,437.4688,929.7817,414.048,935.6573,430.7206,918.9847,436.5963,949.75,437.4688" style="stroke:#000000;stroke-width:3.125;"/></g><!--link coda to logseq--><g id="link_coda_logseq"><path codeLine="82" d="M840.7813,476.5625 C876.75,476.5625 894,476.5625 929.9687,476.5625 " fill="none" id="coda-to-logseq" style="stroke:#000000;stroke-width:3.125;"/><polygon fill="#000000" points="948.7187,476.5625,920.5937,464.0625,933.0937,476.5625,920.5937,489.0625,948.7187,476.5625" style="stroke:#000000;stroke-width:3.125;"/></g><!--link googlecalendar to todoist--><g id="link_googlecalendar_todoist"><path codeLine="87" d="M1648.375,338 C1687.0938,367.1875 1741.125,407.875 1779.8125,437.0313 " fill="none" id="googlecalendar-todoist" style="stroke:#000000;stroke-width:3.125;"/></g><!--link googlecalendar to gmail--><g id="link_googlecalendar_gmail"><path codeLine="88" d="M1548.9688,338 C1508.125,367.1875 1466.413,396.9757 1425.6005,426.1319 " fill="none" id="googlecalendar-to-gmail" style="stroke:#000000;stroke-width:3.125;"/><polygon fill="#000000" points="1410.3438,437.0313,1440.495,430.8534,1423.0577,427.9485,1425.9626,410.5111,1410.3438,437.0313" style="stroke:#000000;stroke-width:3.125;"/></g><!--link gmail to discord--><g id="link_gmail_discord"><path codeLine="89" d="M1361.2188,516.5625 C1364.25,576.4063 1369.217,675.2423 1372.217,735.0548 " fill="none" id="gmail-to-discord" style="stroke:#000000;stroke-width:3.125;"/><polygon fill="#000000" points="1373.1563,753.7812,1384.2317,725.0654,1372.3735,738.1759,1359.2631,726.3177,1373.1563,753.7812" style="stroke:#000000;stroke-width:3.125;"/></g><!--reverse link coda3 to todoist--><g id="link_coda3_todoist"><path codeLine="90" d="M1662.6562,476.5625 C1699.0938,476.5625 1716.8125,476.5625 1753.2812,476.5625 " fill="none" id="coda3-backto-todoist" style="stroke:#000000;stroke-width:3.125;"/><polygon fill="#000000" points="1643.9062,476.5625,1672.0312,489.0625,1659.5312,476.5625,1672.0312,464.0625,1643.9062,476.5625" style="stroke:#000000;stroke-width:3.125;"/></g><!--SRC=[dLJ9Rjim4BthAmXVqXvSPBdqK1GexDWechG1dARdiJYI256aIb9nd2AdVbO_fpzIRfOesRs4fvatZsyMBXMZI7AcSevPvMniMhCd1KDETOeqQ2ffeKpNJBIWe24v1wt9hupOjOMyNYlP2RgGN2gogvZ1496AeWhebbkQHq4fkKl1brIvjGYK6BMrsNCa2dC3ehHrZgYHKW6LEoPAKW3N8R42KMjioTMvTsdBh7a-PB-lM5uBj2rS108Mq76pai9is3EIYyk1suFlNVP3URElqg2UnHh2E6OMCPSp0feuAutSo5BZJn_YtlJ1NcofPBkLJ-JDjwrcb85uwwaqm257ehPvMFkuVYod8RkvjBFHxmIQe141wvD1o9_EdZnio49IxE6NgTprKmwSKGKxBuQz-mgjEmx2aE-tDrwgTLxNy5S8VIeA9fZPUns8paJdx-y_TvKqKa_H9MfM2bH7x6xBcQwIGCZxCZwfjPJs7fAbOe_eyvSUeCudHmSLsPiAqUY4hZrmIlyQR3ZCsbd7adVBLPWVBKxMjuTd6J8vwtZ_vyRnLenZA8Wvlt1k8XUvzXZ0at9hf87bNjXxeECDYmx9ZZl_WjWcVTVMJLa_fAeBBdVXA7S7R_JGbc1W2nedR-tmKlnE6Pt_5dyvahm7NPDR4DPfK9Y9ycZZLHgvbrGUkZR1Fj7p0ZWA2YhfEu_GYDq0uu7ZhD5ucSxjrndVhxTT_MV-pyd21q8-pEV-0-WVqhpxw87aaSwxUS3INw07-wSJ_VHkEfQ5atr3tcxkRzzmSuYZnd_D3OqCRdPsE3zhJkQUZOTZLVgf-f64L9C9XaYeBKmcxl7zXoFpwny0]--></g></svg>